<svg xmlns="http://www.w3.org/2000/svg" xmlns:xlink="http://www.w3.org/1999/xlink" width="500" zoomAndPan="magnify" viewBox="0 0 375 374.999991" height="500" preserveAspectRatio="xMidYMid meet" version="1.0"><defs><clipPath id="17d85b228d"><path d="M 125.585938 118.707031 L 249.335938 118.707031 L 249.335938 255.957031 L 125.585938 255.957031 Z M 125.585938 118.707031 " clip-rule="nonzero"/></clipPath><clipPath id="46fb54ed2d"><path d="M 125.585938 217 L 131 217 L 131 222 L 125.585938 222 Z M 125.585938 217 " clip-rule="nonzero"/></clipPath></defs><path fill="#003475" d="M 141.625 185.027344 L 150.792969 185.027344 C 151.09375 185.027344 151.390625 185 151.6875 184.941406 C 151.984375 184.882812 152.269531 184.796875 152.546875 184.679688 C 152.824219 184.566406 153.089844 184.425781 153.339844 184.257812 C 153.589844 184.089844 153.820312 183.902344 154.035156 183.6875 C 154.246094 183.476562 154.4375 183.246094 154.605469 182.996094 C 154.769531 182.746094 154.914062 182.480469 155.027344 182.203125 C 155.144531 181.925781 155.230469 181.640625 155.289062 181.347656 C 155.347656 181.050781 155.375 180.753906 155.375 180.453125 L 155.375 171.304688 C 155.375 171.003906 155.347656 170.707031 155.289062 170.410156 C 155.230469 170.117188 155.144531 169.832031 155.027344 169.554688 C 154.914062 169.273438 154.769531 169.011719 154.605469 168.761719 C 154.4375 168.511719 154.246094 168.28125 154.035156 168.070312 C 153.820312 167.855469 153.589844 167.667969 153.339844 167.5 C 153.089844 167.332031 152.824219 167.191406 152.546875 167.078125 C 152.269531 166.960938 151.984375 166.875 151.6875 166.816406 C 151.390625 166.757812 151.09375 166.730469 150.792969 166.730469 L 141.625 166.730469 C 141.324219 166.730469 141.027344 166.757812 140.730469 166.816406 C 140.4375 166.875 140.152344 166.960938 139.871094 167.078125 C 139.59375 167.191406 139.332031 167.332031 139.082031 167.5 C 138.828125 167.667969 138.597656 167.855469 138.386719 168.070312 C 138.171875 168.28125 137.984375 168.511719 137.816406 168.761719 C 137.648438 169.011719 137.507812 169.273438 137.390625 169.554688 C 137.277344 169.832031 137.191406 170.117188 137.132812 170.410156 C 137.074219 170.707031 137.042969 171.003906 137.042969 171.304688 L 137.042969 180.453125 C 137.042969 180.753906 137.074219 181.050781 137.132812 181.347656 C 137.191406 181.640625 137.277344 181.925781 137.390625 182.203125 C 137.507812 182.480469 137.648438 182.746094 137.816406 182.996094 C 137.984375 183.246094 138.171875 183.476562 138.386719 183.6875 C 138.597656 183.902344 138.828125 184.089844 139.082031 184.257812 C 139.332031 184.425781 139.59375 184.566406 139.871094 184.679688 C 140.152344 184.796875 140.4375 184.882812 140.730469 184.941406 C 141.027344 185 141.324219 185.027344 141.625 185.027344 Z M 141.625 171.304688 L 150.792969 171.304688 L 150.792969 180.453125 L 141.625 180.453125 Z M 141.625 171.304688 " fill-opacity="1" fill-rule="nonzero"/><path fill="#003475" d="M 169.125 185.027344 L 178.292969 185.027344 C 178.59375 185.027344 178.890625 185 179.1875 184.941406 C 179.484375 184.882812 179.769531 184.796875 180.046875 184.679688 C 180.324219 184.566406 180.589844 184.425781 180.839844 184.257812 C 181.089844 184.089844 181.320312 183.902344 181.535156 183.6875 C 181.746094 183.476562 181.9375 183.246094 182.105469 182.996094 C 182.269531 182.746094 182.414062 182.480469 182.527344 182.203125 C 182.644531 181.925781 182.730469 181.640625 182.789062 181.347656 C 182.847656 181.050781 182.875 180.753906 182.875 180.453125 L 182.875 171.304688 C 182.875 171.003906 182.847656 170.707031 182.789062 170.410156 C 182.730469 170.117188 182.644531 169.832031 182.527344 169.554688 C 182.414062 169.273438 182.269531 169.011719 182.105469 168.761719 C 181.9375 168.511719 181.746094 168.28125 181.535156 168.070312 C 181.320312 167.855469 181.089844 167.667969 180.839844 167.5 C 180.589844 167.332031 180.324219 167.191406 180.046875 167.078125 C 179.769531 166.960938 179.484375 166.875 179.1875 166.816406 C 178.890625 166.757812 178.59375 166.730469 178.292969 166.730469 L 169.125 166.730469 C 168.824219 166.730469 168.527344 166.757812 168.230469 166.816406 C 167.9375 166.875 167.652344 166.960938 167.371094 167.078125 C 167.09375 167.191406 166.832031 167.332031 166.582031 167.5 C 166.328125 167.667969 166.097656 167.855469 165.886719 168.070312 C 165.671875 168.28125 165.484375 168.511719 165.316406 168.761719 C 165.148438 169.011719 165.007812 169.273438 164.890625 169.554688 C 164.777344 169.832031 164.691406 170.117188 164.632812 170.410156 C 164.574219 170.707031 164.542969 171.003906 164.542969 171.304688 L 164.542969 180.453125 C 164.542969 180.753906 164.574219 181.050781 164.632812 181.347656 C 164.691406 181.640625 164.777344 181.925781 164.890625 182.203125 C 165.007812 182.480469 165.148438 182.746094 165.316406 182.996094 C 165.484375 183.246094 165.671875 183.476562 165.886719 183.6875 C 166.097656 183.902344 166.328125 184.089844 166.582031 184.257812 C 166.832031 184.425781 167.09375 184.566406 167.371094 184.679688 C 167.652344 184.796875 167.9375 184.882812 168.230469 184.941406 C 168.527344 185 168.824219 185.027344 169.125 185.027344 Z M 169.125 171.304688 L 178.292969 171.304688 L 178.292969 180.453125 L 169.125 180.453125 Z M 169.125 171.304688 " fill-opacity="1" fill-rule="nonzero"/><path fill="#003475" d="M 196.625 185.027344 L 205.792969 185.027344 C 206.09375 185.027344 206.390625 185 206.6875 184.941406 C 206.984375 184.882812 207.269531 184.796875 207.546875 184.679688 C 207.824219 184.566406 208.089844 184.425781 208.339844 184.257812 C 208.589844 184.089844 208.820312 183.902344 209.035156 183.6875 C 209.246094 183.476562 209.4375 183.246094 209.605469 182.996094 C 209.769531 182.746094 209.914062 182.480469 210.027344 182.203125 C 210.144531 181.925781 210.230469 181.640625 210.289062 181.347656 C 210.347656 181.050781 210.375 180.753906 210.375 180.453125 L 210.375 171.304688 C 210.375 171.003906 210.347656 170.707031 210.289062 170.410156 C 210.230469 170.117188 210.144531 169.832031 210.027344 169.554688 C 209.914062 169.273438 209.769531 169.011719 209.605469 168.761719 C 209.4375 168.511719 209.246094 168.28125 209.035156 168.070312 C 208.820312 167.855469 208.589844 167.667969 208.339844 167.5 C 208.089844 167.332031 207.824219 167.191406 207.546875 167.078125 C 207.269531 166.960938 206.984375 166.875 206.6875 166.816406 C 206.390625 166.757812 206.09375 166.730469 205.792969 166.730469 L 196.625 166.730469 C 196.324219 166.730469 196.027344 166.757812 195.730469 166.816406 C 195.4375 166.875 195.152344 166.960938 194.871094 167.078125 C 194.59375 167.191406 194.332031 167.332031 194.082031 167.5 C 193.828125 167.667969 193.597656 167.855469 193.386719 168.070312 C 193.171875 168.28125 192.984375 168.511719 192.816406 168.761719 C 192.648438 169.011719 192.507812 169.273438 192.390625 169.554688 C 192.277344 169.832031 192.191406 170.117188 192.132812 170.410156 C 192.074219 170.707031 192.042969 171.003906 192.042969 171.304688 L 192.042969 180.453125 C 192.042969 180.753906 192.074219 181.050781 192.132812 181.347656 C 192.191406 181.640625 192.277344 181.925781 192.390625 182.203125 C 192.507812 182.480469 192.648438 182.746094 192.816406 182.996094 C 192.984375 183.246094 193.171875 183.476562 193.386719 183.6875 C 193.597656 183.902344 193.828125 184.089844 194.082031 184.257812 C 194.332031 184.425781 194.59375 184.566406 194.871094 184.679688 C 195.152344 184.796875 195.4375 184.882812 195.730469 184.941406 C 196.027344 185 196.324219 185.027344 196.625 185.027344 Z M 196.625 171.304688 L 205.792969 171.304688 L 205.792969 180.453125 L 196.625 180.453125 Z M 196.625 171.304688 " fill-opacity="1" fill-rule="nonzero"/><path fill="#003475" d="M 224.125 185.027344 L 233.292969 185.027344 C 233.59375 185.027344 233.890625 185 234.1875 184.941406 C 234.484375 184.882812 234.769531 184.796875 235.046875 184.679688 C 235.324219 184.566406 235.589844 184.425781 235.839844 184.257812 C 236.089844 184.089844 236.320312 183.902344 236.535156 183.6875 C 236.746094 183.476562 236.9375 183.246094 237.105469 182.996094 C 237.269531 182.746094 237.414062 182.480469 237.527344 182.203125 C 237.644531 181.925781 237.730469 181.640625 237.789062 181.347656 C 237.847656 181.050781 237.875 180.753906 237.875 180.453125 L 237.875 171.304688 C 237.875 171.003906 237.847656 170.707031 237.789062 170.410156 C 237.730469 170.117188 237.644531 169.832031 237.527344 169.554688 C 237.414062 169.273438 237.269531 169.011719 237.105469 168.761719 C 236.9375 168.511719 236.746094 168.28125 236.535156 168.070312 C 236.320312 167.855469 236.089844 167.667969 235.839844 167.5 C 235.589844 167.332031 235.324219 167.191406 235.046875 167.078125 C 234.769531 166.960938 234.484375 166.875 234.1875 166.816406 C 233.890625 166.757812 233.59375 166.730469 233.292969 166.730469 L 224.125 166.730469 C 223.824219 166.730469 223.527344 166.757812 223.230469 166.816406 C 222.9375 166.875 222.652344 166.960938 222.371094 167.078125 C 222.09375 167.191406 221.832031 167.332031 221.582031 167.5 C 221.328125 167.667969 221.097656 167.855469 220.886719 168.070312 C 220.671875 168.28125 220.484375 168.511719 220.316406 168.761719 C 220.148438 169.011719 220.007812 169.273438 219.890625 169.554688 C 219.777344 169.832031 219.691406 170.117188 219.632812 170.410156 C 219.574219 170.707031 219.542969 171.003906 219.542969 171.304688 L 219.542969 180.453125 C 219.542969 180.753906 219.574219 181.050781 219.632812 181.347656 C 219.691406 181.640625 219.777344 181.925781 219.890625 182.203125 C 220.007812 182.480469 220.148438 182.746094 220.316406 182.996094 C 220.484375 183.246094 220.671875 183.476562 220.886719 183.6875 C 221.097656 183.902344 221.328125 184.089844 221.582031 184.257812 C 221.832031 184.425781 222.09375 184.566406 222.371094 184.679688 C 222.652344 184.796875 222.9375 184.882812 223.230469 184.941406 C 223.527344 185 223.824219 185.027344 224.125 185.027344 Z M 224.125 171.304688 L 233.292969 171.304688 L 233.292969 180.453125 L 224.125 180.453125 Z M 224.125 171.304688 " fill-opacity="1" fill-rule="nonzero"/><path fill="#003475" d="M 137.042969 205.617188 C 137.042969 205.917969 137.074219 206.214844 137.132812 206.507812 C 137.191406 206.804688 137.277344 207.089844 137.390625 207.367188 C 137.507812 207.644531 137.648438 207.90625 137.816406 208.15625 C 137.984375 208.40625 138.171875 208.636719 138.386719 208.851562 C 138.597656 209.0625 138.828125 209.253906 139.082031 209.421875 C 139.332031 209.585938 139.59375 209.726562 139.871094 209.84375 C 140.152344 209.957031 140.4375 210.042969 140.730469 210.101562 C 141.027344 210.160156 141.324219 210.191406 141.625 210.191406 L 150.792969 210.191406 C 151.09375 210.191406 151.390625 210.160156 151.6875 210.101562 C 151.984375 210.042969 152.269531 209.957031 152.546875 209.84375 C 152.824219 209.726562 153.089844 209.585938 153.339844 209.421875 C 153.589844 209.253906 153.820312 209.0625 154.035156 208.851562 C 154.246094 208.636719 154.4375 208.40625 154.605469 208.15625 C 154.769531 207.90625 154.914062 207.644531 155.027344 207.367188 C 155.144531 207.089844 155.230469 206.804688 155.289062 206.507812 C 155.347656 206.214844 155.375 205.917969 155.375 205.617188 L 155.375 196.464844 C 155.375 196.164062 155.347656 195.867188 155.289062 195.574219 C 155.230469 195.277344 155.144531 194.992188 155.027344 194.714844 C 154.914062 194.4375 154.769531 194.175781 154.605469 193.925781 C 154.4375 193.675781 154.246094 193.445312 154.035156 193.230469 C 153.820312 193.019531 153.589844 192.828125 153.339844 192.660156 C 153.089844 192.496094 152.824219 192.355469 152.546875 192.238281 C 152.269531 192.125 151.984375 192.039062 151.6875 191.980469 C 151.390625 191.921875 151.09375 191.890625 150.792969 191.890625 L 141.625 191.890625 C 141.324219 191.890625 141.027344 191.921875 140.730469 191.980469 C 140.4375 192.039062 140.152344 192.125 139.871094 192.238281 C 139.59375 192.355469 139.332031 192.496094 139.082031 192.660156 C 138.828125 192.828125 138.597656 193.019531 138.386719 193.230469 C 138.171875 193.445312 137.984375 193.675781 137.816406 193.925781 C 137.648438 194.175781 137.507812 194.4375 137.390625 194.714844 C 137.277344 194.992188 137.191406 195.277344 137.132812 195.574219 C 137.074219 195.867188 137.042969 196.164062 137.042969 196.464844 Z M 141.625 196.464844 L 150.792969 196.464844 L 150.792969 205.617188 L 141.625 205.617188 Z M 141.625 196.464844 " fill-opacity="1" fill-rule="nonzero"/><path fill="#003475" d="M 164.542969 204.472656 C 164.542969 204.773438 164.574219 205.070312 164.632812 205.363281 C 164.691406 205.660156 164.777344 205.945312 164.890625 206.222656 C 165.007812 206.5 165.148438 206.765625 165.316406 207.015625 C 165.484375 207.265625 165.671875 207.496094 165.886719 207.707031 C 166.097656 207.917969 166.328125 208.109375 166.582031 208.277344 C 166.832031 208.441406 167.09375 208.585938 167.371094 208.699219 C 167.652344 208.8125 167.9375 208.902344 168.230469 208.960938 C 168.527344 209.019531 168.824219 209.046875 169.125 209.046875 L 178.292969 209.046875 C 178.59375 209.046875 178.890625 209.019531 179.1875 208.960938 C 179.484375 208.902344 179.769531 208.8125 180.046875 208.699219 C 180.324219 208.585938 180.589844 208.441406 180.839844 208.277344 C 181.089844 208.109375 181.320312 207.917969 181.535156 207.707031 C 181.746094 207.496094 181.9375 207.265625 182.105469 207.015625 C 182.269531 206.765625 182.414062 206.5 182.527344 206.222656 C 182.644531 205.945312 182.730469 205.660156 182.789062 205.363281 C 182.847656 205.070312 182.875 204.773438 182.875 204.472656 L 182.875 195.324219 C 182.875 195.023438 182.847656 194.722656 182.789062 194.429688 C 182.730469 194.136719 182.644531 193.847656 182.527344 193.570312 C 182.414062 193.292969 182.269531 193.03125 182.105469 192.78125 C 181.9375 192.53125 181.746094 192.300781 181.535156 192.085938 C 181.320312 191.875 181.089844 191.683594 180.839844 191.519531 C 180.589844 191.351562 180.324219 191.210938 180.046875 191.09375 C 179.769531 190.980469 179.484375 190.894531 179.1875 190.835938 C 178.890625 190.777344 178.59375 190.746094 178.292969 190.746094 L 169.125 190.746094 C 168.824219 190.746094 168.527344 190.777344 168.230469 190.835938 C 167.9375 190.894531 167.652344 190.980469 167.371094 191.09375 C 167.09375 191.210938 166.832031 191.351562 166.582031 191.519531 C 166.328125 191.683594 166.097656 191.875 165.886719 192.085938 C 165.671875 192.300781 165.484375 192.53125 165.316406 192.78125 C 165.148438 193.03125 165.007812 193.292969 164.890625 193.570312 C 164.777344 193.847656 164.691406 194.136719 164.632812 194.429688 C 164.574219 194.722656 164.542969 195.023438 164.542969 195.324219 Z M 169.125 195.324219 L 178.292969 195.324219 L 178.292969 204.472656 L 169.125 204.472656 Z M 169.125 195.324219 " fill-opacity="1" fill-rule="nonzero"/><path fill="#003475" d="M 192.042969 204.472656 C 192.042969 204.773438 192.074219 205.070312 192.132812 205.363281 C 192.191406 205.660156 192.277344 205.945312 192.390625 206.222656 C 192.507812 206.5 192.648438 206.765625 192.816406 207.015625 C 192.984375 207.265625 193.171875 207.496094 193.386719 207.707031 C 193.597656 207.917969 193.828125 208.109375 194.082031 208.277344 C 194.332031 208.441406 194.59375 208.585938 194.871094 208.699219 C 195.152344 208.8125 195.4375 208.902344 195.730469 208.960938 C 196.027344 209.019531 196.324219 209.046875 196.625 209.046875 L 205.792969 209.046875 C 206.09375 209.046875 206.390625 209.019531 206.6875 208.960938 C 206.984375 208.902344 207.269531 208.8125 207.546875 208.699219 C 207.824219 208.585938 208.089844 208.441406 208.339844 208.277344 C 208.589844 208.109375 208.820312 207.917969 209.035156 207.707031 C 209.246094 207.496094 209.4375 207.265625 209.605469 207.015625 C 209.769531 206.765625 209.914062 206.5 210.027344 206.222656 C 210.144531 205.945312 210.230469 205.660156 210.289062 205.363281 C 210.347656 205.070312 210.375 204.773438 210.375 204.472656 L 210.375 195.324219 C 210.375 195.023438 210.347656 194.722656 210.289062 194.429688 C 210.230469 194.136719 210.144531 193.847656 210.027344 193.570312 C 209.914062 193.292969 209.769531 193.03125 209.605469 192.78125 C 209.4375 192.53125 209.246094 192.300781 209.035156 192.085938 C 208.820312 191.875 208.589844 191.683594 208.339844 191.519531 C 208.089844 191.351562 207.824219 191.210938 207.546875 191.09375 C 207.269531 190.980469 206.984375 190.894531 206.6875 190.835938 C 206.390625 190.777344 206.09375 190.746094 205.792969 190.746094 L 196.625 190.746094 C 196.324219 190.746094 196.027344 190.777344 195.730469 190.835938 C 195.4375 190.894531 195.152344 190.980469 194.871094 191.09375 C 194.59375 191.210938 194.332031 191.351562 194.082031 191.519531 C 193.828125 191.683594 193.597656 191.875 193.386719 192.085938 C 193.171875 192.300781 192.984375 192.53125 192.816406 192.78125 C 192.648438 193.03125 192.507812 193.292969 192.390625 193.570312 C 192.277344 193.847656 192.191406 194.136719 192.132812 194.429688 C 192.074219 194.722656 192.042969 195.023438 192.042969 195.324219 Z M 196.625 195.324219 L 205.792969 195.324219 L 205.792969 204.472656 L 196.625 204.472656 Z M 196.625 195.324219 " fill-opacity="1" fill-rule="nonzero"/><path fill="#003475" d="M 219.542969 204.472656 C 219.542969 204.773438 219.574219 205.070312 219.632812 205.363281 C 219.691406 205.660156 219.777344 205.945312 219.890625 206.222656 C 220.007812 206.5 220.148438 206.765625 220.316406 207.015625 C 220.484375 207.265625 220.671875 207.496094 220.886719 207.707031 C 221.097656 207.917969 221.328125 208.109375 221.582031 208.277344 C 221.832031 208.441406 222.09375 208.585938 222.371094 208.699219 C 222.652344 208.8125 222.9375 208.902344 223.230469 208.960938 C 223.527344 209.019531 223.824219 209.046875 224.125 209.046875 L 233.292969 209.046875 C 233.59375 209.046875 233.890625 209.019531 234.1875 208.960938 C 234.484375 208.902344 234.769531 208.8125 235.046875 208.699219 C 235.324219 208.585938 235.589844 208.441406 235.839844 208.277344 C 236.089844 208.109375 236.320312 207.917969 236.535156 207.707031 C 236.746094 207.496094 236.9375 207.265625 237.105469 207.015625 C 237.269531 206.765625 237.414062 206.5 237.527344 206.222656 C 237.644531 205.945312 237.730469 205.660156 237.789062 205.363281 C 237.847656 205.070312 237.875 204.773438 237.875 204.472656 L 237.875 195.324219 C 237.875 195.023438 237.847656 194.722656 237.789062 194.429688 C 237.730469 194.136719 237.644531 193.847656 237.527344 193.570312 C 237.414062 193.292969 237.269531 193.03125 237.105469 192.78125 C 236.9375 192.53125 236.746094 192.300781 236.535156 192.085938 C 236.320312 191.875 236.089844 191.683594 235.839844 191.519531 C 235.589844 191.351562 235.324219 191.210938 235.046875 191.09375 C 234.769531 190.980469 234.484375 190.894531 234.1875 190.835938 C 233.890625 190.777344 233.59375 190.746094 233.292969 190.746094 L 224.125 190.746094 C 223.824219 190.746094 223.527344 190.777344 223.230469 190.835938 C 222.9375 190.894531 222.652344 190.980469 222.371094 191.09375 C 222.09375 191.210938 221.832031 191.351562 221.582031 191.519531 C 221.328125 191.683594 221.097656 191.875 220.886719 192.085938 C 220.671875 192.300781 220.484375 192.53125 220.316406 192.78125 C 220.148438 193.03125 220.007812 193.292969 219.890625 193.570312 C 219.777344 193.847656 219.691406 194.136719 219.632812 194.429688 C 219.574219 194.722656 219.542969 195.023438 219.542969 195.324219 Z M 224.125 195.324219 L 233.292969 195.324219 L 233.292969 204.472656 L 224.125 204.472656 Z M 224.125 195.324219 " fill-opacity="1" fill-rule="nonzero"/><path fill="#003475" d="M 137.042969 228.492188 C 137.042969 228.792969 137.074219 229.089844 137.132812 229.382812 C 137.191406 229.679688 137.277344 229.964844 137.390625 230.242188 C 137.507812 230.519531 137.648438 230.78125 137.816406 231.03125 C 137.984375 231.28125 138.171875 231.511719 138.386719 231.726562 C 138.597656 231.9375 138.828125 232.128906 139.082031 232.296875 C 139.332031 232.460938 139.59375 232.601562 139.871094 232.71875 C 140.152344 232.832031 140.4375 232.917969 140.730469 232.976562 C 141.027344 233.035156 141.324219 233.066406 141.625 233.066406 L 150.792969 233.066406 C 151.09375 233.066406 151.390625 233.035156 151.6875 232.976562 C 151.984375 232.917969 152.269531 232.832031 152.546875 232.71875 C 152.824219 232.601562 153.089844 232.460938 153.339844 232.296875 C 153.589844 232.128906 153.820312 231.9375 154.035156 231.726562 C 154.246094 231.511719 154.4375 231.28125 154.605469 231.03125 C 154.769531 230.78125 154.914062 230.519531 155.027344 230.242188 C 155.144531 229.964844 155.230469 229.679688 155.289062 229.382812 C 155.347656 229.089844 155.375 228.792969 155.375 228.492188 L 155.375 219.339844 C 155.375 219.039062 155.347656 218.742188 155.289062 218.449219 C 155.230469 218.152344 155.144531 217.867188 155.027344 217.589844 C 154.914062 217.3125 154.769531 217.050781 154.605469 216.800781 C 154.4375 216.550781 154.246094 216.320312 154.035156 216.105469 C 153.820312 215.894531 153.589844 215.703125 153.339844 215.535156 C 153.089844 215.371094 152.824219 215.230469 152.546875 215.113281 C 152.269531 215 151.984375 214.914062 151.6875 214.855469 C 151.390625 214.796875 151.09375 214.765625 150.792969 214.765625 L 141.625 214.765625 C 141.324219 214.765625 141.027344 214.796875 140.730469 214.855469 C 140.4375 214.914062 140.152344 215 139.871094 215.113281 C 139.59375 215.230469 139.332031 215.371094 139.082031 215.535156 C 138.828125 215.703125 138.597656 215.894531 138.386719 216.105469 C 138.171875 216.320312 137.984375 216.550781 137.816406 216.800781 C 137.648438 217.050781 137.507812 217.3125 137.390625 217.589844 C 137.277344 217.867188 137.191406 218.152344 137.132812 218.449219 C 137.074219 218.742188 137.042969 219.039062 137.042969 219.339844 Z M 141.625 219.339844 L 150.792969 219.339844 L 150.792969 228.492188 L 141.625 228.492188 Z M 141.625 219.339844 " fill-opacity="1" fill-rule="nonzero"/><path fill="#003475" d="M 164.542969 228.492188 C 164.542969 228.792969 164.574219 229.089844 164.632812 229.382812 C 164.691406 229.679688 164.777344 229.964844 164.890625 230.242188 C 165.007812 230.519531 165.148438 230.78125 165.316406 231.03125 C 165.484375 231.28125 165.671875 231.511719 165.886719 231.726562 C 166.097656 231.9375 166.328125 232.128906 166.582031 232.296875 C 166.832031 232.460938 167.09375 232.601562 167.371094 232.71875 C 167.652344 232.832031 167.9375 232.917969 168.230469 232.976562 C 168.527344 233.035156 168.824219 233.066406 169.125 233.066406 L 178.292969 233.066406 C 178.59375 233.066406 178.890625 233.035156 179.1875 232.976562 C 179.484375 232.917969 179.769531 232.832031 180.046875 232.71875 C 180.324219 232.601562 180.589844 232.460938 180.839844 232.296875 C 181.089844 232.128906 181.320312 231.9375 181.535156 231.726562 C 181.746094 231.511719 181.9375 231.28125 182.105469 231.03125 C 182.269531 230.78125 182.414062 230.519531 182.527344 230.242188 C 182.644531 229.964844 182.730469 229.679688 182.789062 229.382812 C 182.847656 229.089844 182.875 228.792969 182.875 228.492188 L 182.875 219.339844 C 182.875 219.039062 182.847656 218.742188 182.789062 218.449219 C 182.730469 218.152344 182.644531 217.867188 182.527344 217.589844 C 182.414062 217.3125 182.269531 217.050781 182.105469 216.800781 C 181.9375 216.550781 181.746094 216.320312 181.535156 216.105469 C 181.320312 215.894531 181.089844 215.703125 180.839844 215.535156 C 180.589844 215.371094 180.324219 215.230469 180.046875 215.113281 C 179.769531 215 179.484375 214.914062 179.1875 214.855469 C 178.890625 214.796875 178.59375 214.765625 178.292969 214.765625 L 169.125 214.765625 C 168.824219 214.765625 168.527344 214.796875 168.230469 214.855469 C 167.9375 214.914062 167.652344 215 167.371094 215.113281 C 167.09375 215.230469 166.832031 215.371094 166.582031 215.535156 C 166.328125 215.703125 166.097656 215.894531 165.886719 216.105469 C 165.671875 216.320312 165.484375 216.550781 165.316406 216.800781 C 165.148438 217.050781 165.007812 217.3125 164.890625 217.589844 C 164.777344 217.867188 164.691406 218.152344 164.632812 218.449219 C 164.574219 218.742188 164.542969 219.039062 164.542969 219.339844 Z M 169.125 219.339844 L 178.292969 219.339844 L 178.292969 228.492188 L 169.125 228.492188 Z M 169.125 219.339844 " fill-opacity="1" fill-rule="nonzero"/><path fill="#003475" d="M 192.042969 228.492188 C 192.042969 228.792969 192.074219 229.089844 192.132812 229.382812 C 192.191406 229.679688 192.277344 229.964844 192.390625 230.242188 C 192.507812 230.519531 192.648438 230.78125 192.816406 231.03125 C 192.984375 231.28125 193.171875 231.511719 193.386719 231.726562 C 193.597656 231.9375 193.828125 232.128906 194.082031 232.296875 C 194.332031 232.460938 194.59375 232.601562 194.871094 232.71875 C 195.152344 232.832031 195.4375 232.917969 195.730469 232.976562 C 196.027344 233.035156 196.324219 233.066406 196.625 233.066406 L 205.792969 233.066406 C 206.09375 233.066406 206.390625 233.035156 206.6875 232.976562 C 206.984375 232.917969 207.269531 232.832031 207.546875 232.71875 C 207.824219 232.601562 208.089844 232.460938 208.339844 232.296875 C 208.589844 232.128906 208.820312 231.9375 209.035156 231.726562 C 209.246094 231.511719 209.4375 231.28125 209.605469 231.03125 C 209.769531 230.78125 209.914062 230.519531 210.027344 230.242188 C 210.144531 229.964844 210.230469 229.679688 210.289062 229.382812 C 210.347656 229.089844 210.375 228.792969 210.375 228.492188 L 210.375 219.339844 C 210.375 219.039062 210.347656 218.742188 210.289062 218.449219 C 210.230469 218.152344 210.144531 217.867188 210.027344 217.589844 C 209.914062 217.3125 209.769531 217.050781 209.605469 216.800781 C 209.4375 216.550781 209.246094 216.320312 209.035156 216.105469 C 208.820312 215.894531 208.589844 215.703125 208.339844 215.535156 C 208.089844 215.371094 207.824219 215.230469 207.546875 215.113281 C 207.269531 215 206.984375 214.914062 206.6875 214.855469 C 206.390625 214.796875 206.09375 214.765625 205.792969 214.765625 L 196.625 214.765625 C 196.324219 214.765625 196.027344 214.796875 195.730469 214.855469 C 195.4375 214.914062 195.152344 215 194.871094 215.113281 C 194.59375 215.230469 194.332031 215.371094 194.082031 215.535156 C 193.828125 215.703125 193.597656 215.894531 193.386719 216.105469 C 193.171875 216.320312 192.984375 216.550781 192.816406 216.800781 C 192.648438 217.050781 192.507812 217.3125 192.390625 217.589844 C 192.277344 217.867188 192.191406 218.152344 192.132812 218.449219 C 192.074219 218.742188 192.042969 219.039062 192.042969 219.339844 Z M 196.625 219.339844 L 205.792969 219.339844 L 205.792969 228.492188 L 196.625 228.492188 Z M 196.625 219.339844 " fill-opacity="1" fill-rule="nonzero"/><g clip-path="url(#17d85b228d)"><path fill="#003475" d="M 237.875 127.839844 L 231 127.839844 L 231 126.699219 C 231 126.171875 230.949219 125.652344 230.847656 125.136719 C 230.746094 124.621094 230.59375 124.117188 230.390625 123.632812 C 230.1875 123.148438 229.941406 122.6875 229.648438 122.25 C 229.355469 121.8125 229.023438 121.40625 228.652344 121.035156 C 228.28125 120.664062 227.875 120.332031 227.4375 120.039062 C 227 119.75 226.535156 119.5 226.050781 119.300781 C 225.5625 119.097656 225.0625 118.949219 224.546875 118.84375 C 224.027344 118.742188 223.507812 118.691406 222.980469 118.691406 C 222.453125 118.691406 221.933594 118.742188 221.414062 118.84375 C 220.898438 118.949219 220.398438 119.097656 219.910156 119.300781 C 219.425781 119.5 218.960938 119.75 218.523438 120.039062 C 218.085938 120.332031 217.679688 120.664062 217.308594 121.035156 C 216.9375 121.40625 216.605469 121.8125 216.3125 122.25 C 216.019531 122.6875 215.773438 123.148438 215.570312 123.632812 C 215.367188 124.117188 215.214844 124.621094 215.113281 125.136719 C 215.011719 125.652344 214.960938 126.171875 214.960938 126.699219 L 214.960938 127.839844 L 195.480469 127.839844 L 195.480469 126.699219 C 195.480469 126.171875 195.429688 125.652344 195.328125 125.136719 C 195.222656 124.621094 195.070312 124.117188 194.871094 123.632812 C 194.667969 123.148438 194.421875 122.6875 194.128906 122.25 C 193.835938 121.8125 193.503906 121.40625 193.132812 121.035156 C 192.757812 120.664062 192.355469 120.332031 191.914062 120.039062 C 191.476562 119.75 191.015625 119.5 190.527344 119.300781 C 190.042969 119.097656 189.542969 118.949219 189.023438 118.84375 C 188.507812 118.742188 187.988281 118.691406 187.460938 118.691406 C 186.933594 118.691406 186.410156 118.742188 185.894531 118.84375 C 185.378906 118.949219 184.875 119.097656 184.390625 119.300781 C 183.902344 119.5 183.441406 119.75 183.003906 120.039062 C 182.566406 120.332031 182.160156 120.664062 181.789062 121.035156 C 181.414062 121.40625 181.082031 121.8125 180.789062 122.25 C 180.5 122.6875 180.25 123.148438 180.050781 123.632812 C 179.847656 124.117188 179.695312 124.621094 179.59375 125.136719 C 179.492188 125.652344 179.4375 126.171875 179.4375 126.699219 L 179.4375 127.839844 L 159.960938 127.839844 L 159.960938 126.699219 C 159.960938 126.171875 159.910156 125.652344 159.804688 125.136719 C 159.703125 124.621094 159.550781 124.117188 159.347656 123.632812 C 159.148438 123.148438 158.902344 122.6875 158.609375 122.25 C 158.316406 121.8125 157.984375 121.40625 157.609375 121.035156 C 157.238281 120.664062 156.832031 120.332031 156.394531 120.039062 C 155.957031 119.75 155.496094 119.5 155.007812 119.300781 C 154.523438 119.097656 154.019531 118.949219 153.503906 118.84375 C 152.988281 118.742188 152.464844 118.691406 151.9375 118.691406 C 151.414062 118.691406 150.890625 118.742188 150.375 118.84375 C 149.859375 118.949219 149.355469 119.097656 148.871094 119.300781 C 148.382812 119.5 147.921875 119.75 147.484375 120.039062 C 147.046875 120.332031 146.640625 120.664062 146.265625 121.035156 C 145.894531 121.40625 145.5625 121.8125 145.269531 122.25 C 144.976562 122.6875 144.730469 123.148438 144.527344 123.632812 C 144.328125 124.117188 144.175781 124.621094 144.070312 125.136719 C 143.96875 125.652344 143.917969 126.171875 143.917969 126.699219 L 143.917969 127.839844 L 137.042969 127.839844 C 136.292969 127.84375 135.546875 127.917969 134.808594 128.0625 C 134.070312 128.210938 133.355469 128.429688 132.660156 128.714844 C 131.964844 129.003906 131.304688 129.355469 130.679688 129.773438 C 130.054688 130.191406 129.476562 130.664062 128.945312 131.195312 C 128.414062 131.726562 127.9375 132.304688 127.519531 132.925781 C 127.101562 133.550781 126.75 134.210938 126.460938 134.902344 C 126.171875 135.597656 125.953125 136.3125 125.808594 137.046875 C 125.660156 137.785156 125.585938 138.527344 125.585938 139.277344 L 125.585938 210.191406 C 125.585938 210.496094 125.644531 210.785156 125.757812 211.066406 C 125.875 211.347656 126.042969 211.59375 126.257812 211.808594 C 126.472656 212.023438 126.71875 212.1875 127 212.304688 C 127.28125 212.421875 127.574219 212.480469 127.875 212.480469 C 128.179688 212.480469 128.472656 212.421875 128.753906 212.304688 C 129.035156 212.1875 129.28125 212.023438 129.496094 211.808594 C 129.710938 211.59375 129.878906 211.347656 129.992188 211.066406 C 130.109375 210.785156 130.167969 210.496094 130.167969 210.191406 L 130.167969 159.867188 L 244.75 159.867188 L 244.75 214.765625 C 244.75 215.070312 244.691406 215.359375 244.578125 215.640625 C 244.460938 215.921875 244.296875 216.167969 244.082031 216.382812 C 243.867188 216.597656 243.617188 216.761719 243.335938 216.878906 C 243.054688 216.996094 242.765625 217.054688 242.460938 217.054688 L 231 217.054688 C 230.25 217.054688 229.503906 217.128906 228.765625 217.277344 C 228.03125 217.421875 227.3125 217.640625 226.617188 217.929688 C 225.925781 218.214844 225.265625 218.566406 224.640625 218.984375 C 224.015625 219.402344 223.433594 219.875 222.902344 220.40625 C 222.371094 220.9375 221.898438 221.515625 221.480469 222.140625 C 221.0625 222.765625 220.707031 223.421875 220.417969 224.117188 C 220.132812 224.808594 219.914062 225.523438 219.765625 226.261719 C 219.617188 226.996094 219.542969 227.742188 219.542969 228.492188 L 219.542969 239.929688 C 219.542969 240.230469 219.484375 240.523438 219.367188 240.804688 C 219.253906 241.085938 219.085938 241.332031 218.871094 241.546875 C 218.65625 241.761719 218.410156 241.925781 218.128906 242.042969 C 217.847656 242.15625 217.554688 242.214844 217.25 242.214844 L 137.042969 242.074219 C 136.589844 242.074219 136.144531 242.03125 135.703125 241.945312 C 135.257812 241.855469 134.828125 241.726562 134.414062 241.554688 C 133.996094 241.382812 133.597656 241.167969 133.222656 240.917969 C 132.847656 240.667969 132.5 240.382812 132.183594 240.066406 C 131.863281 239.746094 131.578125 239.402344 131.328125 239.027344 C 131.074219 238.652344 130.863281 238.257812 130.691406 237.839844 C 130.519531 237.421875 130.386719 236.996094 130.300781 236.550781 C 130.210938 236.109375 130.167969 235.664062 130.167969 235.214844 L 130.167969 228.492188 C 130.167969 228.1875 130.109375 227.894531 129.992188 227.617188 C 129.878906 227.335938 129.710938 227.089844 129.496094 226.875 C 129.28125 226.660156 129.035156 226.492188 128.753906 226.378906 C 128.472656 226.261719 128.179688 226.203125 127.875 226.203125 C 127.574219 226.203125 127.28125 226.261719 127 226.378906 C 126.71875 226.492188 126.472656 226.660156 126.257812 226.875 C 126.042969 227.089844 125.875 227.335938 125.757812 227.617188 C 125.644531 227.894531 125.585938 228.1875 125.585938 228.492188 L 125.585938 244.503906 C 125.585938 245.253906 125.660156 245.996094 125.808594 246.734375 C 125.953125 247.46875 126.171875 248.183594 126.460938 248.878906 C 126.75 249.570312 127.101562 250.230469 127.519531 250.855469 C 127.9375 251.480469 128.414062 252.054688 128.945312 252.585938 C 129.476562 253.117188 130.054688 253.589844 130.679688 254.007812 C 131.304688 254.425781 131.964844 254.777344 132.660156 255.066406 C 133.355469 255.355469 134.070312 255.570312 134.808594 255.71875 C 135.546875 255.867188 136.292969 255.941406 137.042969 255.941406 L 237.875 255.941406 C 238.628906 255.941406 239.375 255.867188 240.109375 255.71875 C 240.847656 255.570312 241.566406 255.355469 242.257812 255.066406 C 242.953125 254.777344 243.613281 254.425781 244.238281 254.007812 C 244.863281 253.589844 245.441406 253.117188 245.972656 252.585938 C 246.507812 252.054688 246.980469 251.480469 247.398438 250.855469 C 247.816406 250.230469 248.171875 249.570312 248.457031 248.878906 C 248.746094 248.183594 248.964844 247.46875 249.113281 246.734375 C 249.257812 245.996094 249.332031 245.253906 249.335938 244.503906 L 249.335938 139.277344 C 249.332031 138.527344 249.257812 137.785156 249.113281 137.046875 C 248.964844 136.3125 248.746094 135.597656 248.457031 134.902344 C 248.171875 134.210938 247.816406 133.550781 247.398438 132.925781 C 246.980469 132.304688 246.507812 131.726562 245.972656 131.195312 C 245.441406 130.664062 244.863281 130.191406 244.238281 129.773438 C 243.613281 129.355469 242.953125 129.003906 242.257812 128.714844 C 241.566406 128.429688 240.847656 128.210938 240.109375 128.0625 C 239.375 127.917969 238.628906 127.84375 237.875 127.839844 Z M 219.542969 126.699219 C 219.542969 126.242188 219.628906 125.804688 219.804688 125.382812 C 219.980469 124.964844 220.226562 124.59375 220.550781 124.269531 C 220.871094 123.949219 221.242188 123.703125 221.664062 123.527344 C 222.085938 123.351562 222.523438 123.265625 222.980469 123.265625 C 223.4375 123.265625 223.875 123.351562 224.296875 123.527344 C 224.71875 123.703125 225.089844 123.949219 225.410156 124.269531 C 225.734375 124.59375 225.980469 124.964844 226.15625 125.382812 C 226.332031 125.804688 226.417969 126.242188 226.417969 126.699219 L 226.417969 135.847656 C 226.417969 136.300781 226.332031 136.738281 226.15625 137.160156 C 225.980469 137.582031 225.734375 137.953125 225.410156 138.273438 C 225.089844 138.59375 224.71875 138.84375 224.296875 139.015625 C 223.875 139.191406 223.4375 139.277344 222.980469 139.277344 C 222.523438 139.277344 222.085938 139.191406 221.664062 139.015625 C 221.242188 138.84375 220.871094 138.59375 220.550781 138.273438 C 220.226562 137.953125 219.980469 137.582031 219.804688 137.160156 C 219.628906 136.738281 219.542969 136.300781 219.542969 135.847656 Z M 184.023438 126.699219 C 184.023438 126.242188 184.109375 125.804688 184.285156 125.382812 C 184.457031 124.964844 184.707031 124.59375 185.027344 124.269531 C 185.351562 123.949219 185.722656 123.703125 186.144531 123.527344 C 186.566406 123.351562 187.003906 123.265625 187.460938 123.265625 C 187.914062 123.265625 188.355469 123.351562 188.773438 123.527344 C 189.195312 123.703125 189.566406 123.949219 189.890625 124.269531 C 190.210938 124.59375 190.460938 124.964844 190.636719 125.382812 C 190.808594 125.804688 190.898438 126.242188 190.898438 126.699219 L 190.898438 135.847656 C 190.898438 136.300781 190.808594 136.738281 190.636719 137.160156 C 190.460938 137.582031 190.210938 137.953125 189.890625 138.273438 C 189.566406 138.59375 189.195312 138.84375 188.773438 139.015625 C 188.355469 139.191406 187.914062 139.277344 187.460938 139.277344 C 187.003906 139.277344 186.566406 139.191406 186.144531 139.015625 C 185.722656 138.84375 185.351562 138.59375 185.027344 138.273438 C 184.707031 137.953125 184.457031 137.582031 184.285156 137.160156 C 184.109375 136.738281 184.023438 136.300781 184.023438 135.847656 Z M 148.5 126.699219 C 148.5 126.242188 148.589844 125.804688 148.761719 125.382812 C 148.9375 124.964844 149.1875 124.59375 149.507812 124.269531 C 149.832031 123.949219 150.203125 123.703125 150.625 123.527344 C 151.042969 123.351562 151.484375 123.265625 151.9375 123.265625 C 152.394531 123.265625 152.832031 123.351562 153.253906 123.527344 C 153.675781 123.703125 154.046875 123.949219 154.371094 124.269531 C 154.691406 124.59375 154.941406 124.964844 155.113281 125.382812 C 155.289062 125.804688 155.375 126.242188 155.375 126.699219 L 155.375 135.847656 C 155.375 136.300781 155.289062 136.738281 155.113281 137.160156 C 154.941406 137.582031 154.691406 137.953125 154.371094 138.273438 C 154.046875 138.59375 153.675781 138.84375 153.253906 139.015625 C 152.832031 139.191406 152.394531 139.277344 151.9375 139.277344 C 151.484375 139.277344 151.042969 139.191406 150.625 139.015625 C 150.203125 138.84375 149.832031 138.59375 149.507812 138.273438 C 149.1875 137.953125 148.9375 137.582031 148.761719 137.160156 C 148.589844 136.738281 148.5 136.300781 148.5 135.847656 Z M 130.167969 155.292969 L 130.167969 139.277344 C 130.167969 138.828125 130.210938 138.382812 130.300781 137.941406 C 130.386719 137.496094 130.519531 137.070312 130.691406 136.652344 C 130.863281 136.234375 131.074219 135.839844 131.328125 135.464844 C 131.578125 135.089844 131.863281 134.746094 132.183594 134.425781 C 132.5 134.105469 132.847656 133.824219 133.222656 133.574219 C 133.597656 133.320312 133.996094 133.109375 134.414062 132.9375 C 134.828125 132.765625 135.257812 132.636719 135.703125 132.546875 C 136.144531 132.460938 136.589844 132.417969 137.042969 132.417969 L 143.917969 132.417969 L 143.917969 135.847656 C 143.917969 136.371094 143.96875 136.894531 144.070312 137.410156 C 144.175781 137.925781 144.328125 138.425781 144.527344 138.910156 C 144.730469 139.398438 144.976562 139.859375 145.269531 140.296875 C 145.5625 140.730469 145.894531 141.136719 146.265625 141.507812 C 146.640625 141.878906 147.046875 142.210938 147.484375 142.503906 C 147.921875 142.796875 148.382812 143.042969 148.871094 143.242188 C 149.355469 143.445312 149.859375 143.597656 150.375 143.699219 C 150.890625 143.800781 151.414062 143.855469 151.9375 143.855469 C 152.464844 143.855469 152.988281 143.800781 153.503906 143.699219 C 154.019531 143.597656 154.523438 143.445312 155.007812 143.242188 C 155.496094 143.042969 155.957031 142.796875 156.394531 142.503906 C 156.832031 142.210938 157.238281 141.878906 157.609375 141.507812 C 157.984375 141.136719 158.316406 140.730469 158.609375 140.296875 C 158.902344 139.859375 159.148438 139.398438 159.347656 138.910156 C 159.550781 138.425781 159.703125 137.925781 159.804688 137.410156 C 159.910156 136.894531 159.960938 136.371094 159.960938 135.847656 L 159.960938 132.417969 L 179.4375 132.417969 L 179.4375 135.847656 C 179.4375 136.371094 179.492188 136.894531 179.59375 137.410156 C 179.695312 137.925781 179.847656 138.425781 180.050781 138.910156 C 180.25 139.398438 180.5 139.859375 180.789062 140.296875 C 181.082031 140.730469 181.414062 141.136719 181.789062 141.507812 C 182.160156 141.878906 182.566406 142.210938 183.003906 142.503906 C 183.441406 142.796875 183.902344 143.042969 184.390625 143.242188 C 184.875 143.445312 185.378906 143.597656 185.894531 143.699219 C 186.410156 143.800781 186.933594 143.855469 187.460938 143.855469 C 187.988281 143.855469 188.507812 143.800781 189.023438 143.699219 C 189.542969 143.597656 190.042969 143.445312 190.527344 143.242188 C 191.015625 143.042969 191.476562 142.796875 191.914062 142.503906 C 192.355469 142.210938 192.757812 141.878906 193.132812 141.507812 C 193.503906 141.136719 193.835938 140.730469 194.128906 140.296875 C 194.421875 139.859375 194.667969 139.398438 194.871094 138.910156 C 195.070312 138.425781 195.222656 137.925781 195.328125 137.410156 C 195.429688 136.894531 195.480469 136.371094 195.480469 135.847656 L 195.480469 132.417969 L 214.960938 132.417969 L 214.960938 135.847656 C 214.960938 136.371094 215.011719 136.894531 215.113281 137.410156 C 215.214844 137.925781 215.367188 138.425781 215.570312 138.910156 C 215.773438 139.398438 216.019531 139.859375 216.3125 140.296875 C 216.605469 140.730469 216.9375 141.136719 217.308594 141.507812 C 217.679688 141.878906 218.085938 142.210938 218.523438 142.503906 C 218.960938 142.796875 219.425781 143.042969 219.910156 143.242188 C 220.398438 143.445312 220.898438 143.597656 221.414062 143.699219 C 221.933594 143.800781 222.453125 143.855469 222.980469 143.855469 C 223.507812 143.855469 224.027344 143.800781 224.546875 143.699219 C 225.0625 143.597656 225.5625 143.445312 226.050781 143.242188 C 226.535156 143.042969 227 142.796875 227.4375 142.503906 C 227.875 142.210938 228.28125 141.878906 228.652344 141.507812 C 229.023438 141.136719 229.355469 140.730469 229.648438 140.296875 C 229.941406 139.859375 230.1875 139.398438 230.390625 138.910156 C 230.59375 138.425781 230.746094 137.925781 230.847656 137.410156 C 230.949219 136.894531 231 136.371094 231 135.847656 L 231 132.417969 L 237.875 132.417969 C 238.328125 132.417969 238.773438 132.460938 239.21875 132.546875 C 239.660156 132.636719 240.089844 132.765625 240.507812 132.9375 C 240.925781 133.109375 241.320312 133.320312 241.695312 133.574219 C 242.070312 133.824219 242.417969 134.105469 242.738281 134.425781 C 243.058594 134.746094 243.34375 135.089844 243.59375 135.464844 C 243.84375 135.839844 244.054688 136.234375 244.226562 136.652344 C 244.402344 137.070312 244.53125 137.496094 244.621094 137.941406 C 244.707031 138.382812 244.75 138.828125 244.75 139.277344 L 244.75 155.292969 Z M 224.125 228.492188 C 224.125 228.039062 224.171875 227.59375 224.257812 227.152344 C 224.347656 226.710938 224.476562 226.28125 224.648438 225.863281 C 224.824219 225.449219 225.035156 225.054688 225.285156 224.679688 C 225.535156 224.304688 225.820312 223.957031 226.140625 223.636719 C 226.460938 223.320312 226.804688 223.035156 227.183594 222.785156 C 227.558594 222.535156 227.953125 222.324219 228.371094 222.152344 C 228.789062 221.976562 229.21875 221.847656 229.660156 221.761719 C 230.101562 221.671875 230.550781 221.628906 231 221.628906 L 241.515625 221.628906 L 224.125 238.988281 Z M 237.875 251.367188 L 137.042969 251.367188 C 136.582031 251.363281 136.128906 251.320312 135.679688 251.226562 C 135.226562 251.136719 134.792969 251 134.367188 250.820312 C 133.945312 250.640625 133.542969 250.421875 133.164062 250.164062 C 132.785156 249.902344 132.433594 249.609375 132.113281 249.28125 C 131.792969 248.953125 131.511719 248.59375 131.261719 248.207031 C 131.011719 247.824219 130.804688 247.414062 130.636719 246.988281 C 130.46875 246.5625 130.347656 246.121094 130.269531 245.667969 C 130.1875 245.21875 130.15625 244.761719 130.167969 244.304688 C 131.152344 245.058594 132.230469 245.636719 133.402344 246.039062 C 134.578125 246.4375 135.78125 246.644531 137.023438 246.652344 L 218.007812 246.792969 C 219.535156 246.789062 221.003906 246.5 222.414062 245.917969 C 223.824219 245.335938 225.070312 244.507812 226.152344 243.433594 L 244.75 224.867188 L 244.75 244.503906 C 244.75 244.953125 244.707031 245.398438 244.621094 245.84375 C 244.53125 246.285156 244.402344 246.714844 244.226562 247.128906 C 244.054688 247.546875 243.84375 247.941406 243.59375 248.316406 C 243.34375 248.691406 243.058594 249.039062 242.738281 249.355469 C 242.417969 249.675781 242.070312 249.960938 241.695312 250.210938 C 241.320312 250.460938 240.925781 250.671875 240.507812 250.84375 C 240.089844 251.015625 239.660156 251.144531 239.21875 251.234375 C 238.773438 251.320312 238.328125 251.367188 237.875 251.367188 Z M 237.875 251.367188 " fill-opacity="1" fill-rule="nonzero"/></g><g clip-path="url(#46fb54ed2d)"><path fill="#003475" d="M 130.167969 219.339844 C 130.167969 219.644531 130.109375 219.9375 129.992188 220.214844 C 129.878906 220.496094 129.710938 220.742188 129.496094 220.957031 C 129.28125 221.171875 129.035156 221.339844 128.753906 221.453125 C 128.472656 221.570312 128.179688 221.628906 127.875 221.628906 C 127.574219 221.628906 127.28125 221.570312 127 221.453125 C 126.71875 221.339844 126.472656 221.171875 126.257812 220.957031 C 126.042969 220.742188 125.875 220.496094 125.757812 220.214844 C 125.644531 219.9375 125.585938 219.644531 125.585938 219.339844 C 125.585938 219.039062 125.644531 218.746094 125.757812 218.464844 C 125.875 218.183594 126.042969 217.9375 126.257812 217.722656 C 126.472656 217.507812 126.71875 217.34375 127 217.226562 C 127.28125 217.113281 127.574219 217.054688 127.875 217.054688 C 128.179688 217.054688 128.472656 217.113281 128.753906 217.226562 C 129.035156 217.34375 129.28125 217.507812 129.496094 217.722656 C 129.710938 217.9375 129.878906 218.183594 129.992188 218.464844 C 130.109375 218.746094 130.167969 219.039062 130.167969 219.339844 Z M 130.167969 219.339844 " fill-opacity="1" fill-rule="nonzero"/></g></svg>