<svg xmlns="http://www.w3.org/2000/svg" xmlns:xlink="http://www.w3.org/1999/xlink" width="500" zoomAndPan="magnify" viewBox="0 0 375 374.999991" height="500" preserveAspectRatio="xMidYMid meet" version="1.0"><defs><clipPath id="69213d277b"><path d="M 74.171875 113.515625 L 300.542969 113.515625 L 300.542969 261.265625 L 74.171875 261.265625 Z M 74.171875 113.515625 " clip-rule="nonzero"/></clipPath></defs><g clip-path="url(#69213d277b)"><path fill="#003475" d="M 237.199219 254.765625 C 205.855469 254.765625 180.351562 229.269531 180.351562 197.933594 C 180.351562 166.59375 205.855469 141.097656 237.199219 141.097656 C 268.542969 141.097656 294.042969 166.59375 294.042969 197.933594 C 294.042969 229.269531 268.542969 254.765625 237.199219 254.765625 Z M 295.566406 173.28125 C 292.375 165.738281 287.808594 158.964844 281.992188 153.148438 C 276.175781 147.335938 269.402344 142.769531 261.855469 139.578125 C 255.039062 136.695312 247.851562 135.054688 240.449219 134.683594 L 240.449219 127.378906 L 244.304688 127.378906 C 246.324219 127.378906 247.960938 125.742188 247.960938 123.722656 L 247.960938 117.171875 C 247.960938 115.152344 246.324219 113.515625 244.304688 113.515625 L 230.09375 113.515625 C 228.074219 113.515625 226.4375 115.152344 226.4375 117.171875 L 226.4375 123.722656 C 226.4375 125.742188 228.074219 127.378906 230.09375 127.378906 L 233.949219 127.378906 L 233.949219 134.683594 C 226.546875 135.054688 219.359375 136.695312 212.539062 139.578125 C 211.152344 140.164062 209.792969 140.800781 208.457031 141.480469 L 143.949219 144.710938 L 198.921875 147.464844 C 196.636719 149.203125 194.460938 151.09375 192.40625 153.148438 C 191.472656 154.085938 190.574219 155.046875 189.703125 156.027344 L 125.890625 159.226562 L 184.902344 162.179688 C 182.71875 165.367188 180.832031 168.746094 179.257812 172.304688 L 95.265625 175.402344 L 176.917969 178.410156 C 175.546875 182.632812 174.636719 186.972656 174.183594 191.402344 L 74.171875 194.609375 L 173.851562 197.808594 C 173.851562 197.851562 173.851562 197.890625 173.851562 197.933594 C 173.851562 202.609375 174.355469 207.210938 175.351562 211.699219 L 77.785156 214.832031 L 177.105469 218.015625 C 177.617188 219.558594 178.195312 221.078125 178.832031 222.585938 C 179.382812 223.882812 179.972656 225.15625 180.605469 226.410156 L 120.546875 229.417969 L 184.179688 232.605469 C 186.242188 235.753906 188.585938 238.71875 191.203125 241.476562 L 134.992188 244.292969 L 197.683594 247.433594 C 202.203125 251.050781 207.175781 254.015625 212.539062 256.285156 C 220.351562 259.589844 228.648438 261.265625 237.199219 261.265625 C 245.75 261.265625 254.046875 259.589844 261.855469 256.285156 C 269.402344 253.097656 276.175781 248.53125 281.992188 242.714844 C 287.808594 236.898438 292.375 230.125 295.566406 222.585938 C 298.871094 214.773438 300.546875 206.480469 300.546875 197.933594 C 300.546875 189.382812 298.871094 181.089844 295.566406 173.28125 " fill-opacity="1" fill-rule="nonzero"/></g><path fill="#003475" d="M 237.199219 191.648438 C 234.527344 191.648438 232.25 193.335938 231.371094 195.703125 L 223.753906 196.753906 L 225.316406 204.542969 L 233.058594 202.488281 C 234.160156 203.472656 235.609375 204.070312 237.199219 204.070312 C 239.941406 204.070312 242.265625 202.292969 243.089844 199.832031 L 288.289062 187.851562 L 242.222656 194.207031 C 241.089844 192.65625 239.261719 191.648438 237.199219 191.648438 " fill-opacity="1" fill-rule="nonzero"/><path fill="#003475" d="M 237.414062 154.746094 C 238.414062 154.746094 239.222656 153.941406 239.222656 152.941406 L 239.222656 145.722656 C 239.222656 144.722656 238.414062 143.914062 237.414062 143.914062 C 236.417969 143.914062 235.609375 144.722656 235.609375 145.722656 L 235.609375 152.941406 C 235.609375 153.941406 236.417969 154.746094 237.414062 154.746094 " fill-opacity="1" fill-rule="nonzero"/><path fill="#003475" d="M 258.945312 160.632812 C 259.230469 160.796875 259.542969 160.875 259.847656 160.875 C 260.472656 160.875 261.078125 160.550781 261.414062 159.972656 L 265.027344 153.71875 C 265.523438 152.855469 265.230469 151.75 264.367188 151.25 C 263.5 150.753906 262.398438 151.050781 261.898438 151.914062 L 258.285156 158.167969 C 257.789062 159.03125 258.082031 160.132812 258.945312 160.632812 " fill-opacity="1" fill-rule="nonzero"/><path fill="#003475" d="M 274.652344 176.492188 C 274.988281 177.070312 275.59375 177.394531 276.21875 177.394531 C 276.523438 177.394531 276.832031 177.316406 277.117188 177.152344 L 283.375 173.542969 C 284.238281 173.042969 284.535156 171.9375 284.035156 171.074219 C 283.535156 170.210938 282.433594 169.917969 281.570312 170.414062 L 275.3125 174.027344 C 274.449219 174.523438 274.152344 175.628906 274.652344 176.492188 " fill-opacity="1" fill-rule="nonzero"/><path fill="#003475" d="M 280.320312 198.078125 C 280.320312 199.074219 281.128906 199.882812 282.125 199.882812 L 289.347656 199.882812 C 290.347656 199.882812 291.15625 199.074219 291.15625 198.078125 C 291.15625 197.078125 290.347656 196.269531 289.347656 196.269531 L 282.125 196.269531 C 281.128906 196.269531 280.320312 197.078125 280.320312 198.078125 " fill-opacity="1" fill-rule="nonzero"/><path fill="#003475" d="M 283.15625 222.554688 L 276.902344 218.941406 C 276.039062 218.445312 274.933594 218.738281 274.4375 219.601562 C 273.9375 220.464844 274.234375 221.570312 275.097656 222.070312 L 281.351562 225.679688 C 281.636719 225.84375 281.945312 225.921875 282.253906 225.921875 C 282.875 225.921875 283.484375 225.597656 283.816406 225.019531 C 284.316406 224.15625 284.019531 223.050781 283.15625 222.554688 " fill-opacity="1" fill-rule="nonzero"/><path fill="#003475" d="M 261.039062 235.964844 C 260.539062 235.101562 259.4375 234.804688 258.570312 235.304688 C 257.707031 235.800781 257.414062 236.90625 257.910156 237.769531 L 261.523438 244.023438 C 261.855469 244.605469 262.464844 244.925781 263.089844 244.925781 C 263.394531 244.925781 263.703125 244.847656 263.988281 244.683594 C 264.855469 244.1875 265.148438 243.082031 264.652344 242.21875 L 261.039062 235.964844 " fill-opacity="1" fill-rule="nonzero"/><path fill="#003475" d="M 236.984375 240.972656 C 235.984375 240.972656 235.175781 241.78125 235.175781 242.777344 L 235.175781 250 C 235.175781 250.996094 235.984375 251.804688 236.984375 251.804688 C 237.980469 251.804688 238.789062 250.996094 238.789062 250 L 238.789062 242.777344 C 238.789062 241.78125 237.980469 240.972656 236.984375 240.972656 " fill-opacity="1" fill-rule="nonzero"/><path fill="#003475" d="M 215.449219 235.089844 C 214.585938 234.589844 213.480469 234.886719 212.984375 235.75 L 209.371094 242.003906 C 208.875 242.867188 209.167969 243.96875 210.03125 244.46875 C 210.316406 244.632812 210.628906 244.710938 210.933594 244.710938 C 211.558594 244.710938 212.164062 244.386719 212.5 243.808594 L 216.113281 237.554688 C 216.609375 236.691406 216.3125 235.585938 215.449219 235.089844 " fill-opacity="1" fill-rule="nonzero"/><path fill="#003475" d="M 197.277344 218.566406 L 191.023438 222.179688 C 190.160156 222.675781 189.863281 223.78125 190.363281 224.644531 C 190.695312 225.222656 191.304688 225.546875 191.925781 225.546875 C 192.234375 225.546875 192.546875 225.46875 192.828125 225.304688 L 199.085938 221.695312 C 199.949219 221.195312 200.242188 220.089844 199.746094 219.226562 C 199.246094 218.363281 198.144531 218.070312 197.277344 218.566406 " fill-opacity="1" fill-rule="nonzero"/><path fill="#003475" d="M 194.078125 197.644531 C 194.078125 196.648438 193.269531 195.839844 192.269531 195.839844 L 185.046875 195.839844 C 184.050781 195.839844 183.242188 196.648438 183.242188 197.644531 C 183.242188 198.640625 184.050781 199.449219 185.046875 199.449219 L 192.269531 199.449219 C 193.269531 199.449219 194.078125 198.640625 194.078125 197.644531 " fill-opacity="1" fill-rule="nonzero"/><path fill="#003475" d="M 199.300781 173.652344 L 193.046875 170.039062 C 192.183594 169.542969 191.078125 169.835938 190.578125 170.699219 C 190.082031 171.5625 190.378906 172.667969 191.242188 173.167969 L 197.496094 176.777344 C 197.78125 176.941406 198.089844 177.019531 198.398438 177.019531 C 199.019531 177.019531 199.628906 176.695312 199.960938 176.117188 C 200.460938 175.253906 200.164062 174.148438 199.300781 173.652344 " fill-opacity="1" fill-rule="nonzero"/><path fill="#003475" d="M 212.875 151.695312 C 212.375 150.832031 211.273438 150.535156 210.40625 151.035156 C 209.542969 151.53125 209.25 152.636719 209.746094 153.5 L 213.359375 159.753906 C 213.695312 160.335938 214.300781 160.65625 214.925781 160.65625 C 215.230469 160.65625 215.539062 160.582031 215.828125 160.414062 C 216.691406 159.917969 216.984375 158.8125 216.488281 157.949219 L 212.875 151.695312 " fill-opacity="1" fill-rule="nonzero"/></svg>