<svg xmlns="http://www.w3.org/2000/svg" xmlns:xlink="http://www.w3.org/1999/xlink" width="500" zoomAndPan="magnify" viewBox="0 0 375 374.999991" height="500" preserveAspectRatio="xMidYMid meet" version="1.0"><defs><clipPath id="ef99a61310"><path d="M 123.082031 113 L 151 113 L 151 199 L 123.082031 199 Z M 123.082031 113 " clip-rule="nonzero"/></clipPath><clipPath id="9589c85850"><path d="M 247 175 L 252.082031 175 L 252.082031 214 L 247 214 Z M 247 175 " clip-rule="nonzero"/></clipPath></defs><g clip-path="url(#ef99a61310)"><path fill="#003475" d="M 137.183594 177.34375 C 138.042969 177 138.5625 176.144531 138.5625 175.285156 L 138.5625 121.773438 L 146.472656 132.578125 C 146.988281 133.609375 148.363281 133.949219 149.398438 133.4375 C 150.429688 132.921875 150.773438 131.550781 150.257812 130.519531 C 150.085938 130.347656 138.21875 113.882812 138.21875 113.882812 C 137.871094 113.371094 137.183594 113.027344 136.496094 113.027344 C 135.464844 113.027344 134.949219 113.542969 134.777344 113.882812 L 123.769531 131.378906 C 123.082031 132.40625 123.425781 133.609375 124.457031 134.292969 C 124.800781 134.464844 125.144531 134.636719 125.660156 134.636719 C 126.347656 134.636719 127.035156 134.292969 127.554688 133.609375 L 134.433594 122.632812 L 134.433594 169.625 L 127.382812 161.222656 C 126.691406 160.363281 125.316406 160.191406 124.285156 161.050781 C 123.769531 161.394531 123.597656 162.078125 123.597656 162.59375 L 123.597656 196.210938 C 123.597656 197.410156 124.628906 198.269531 125.660156 198.269531 C 126.691406 198.269531 127.726562 197.238281 127.726562 196.210938 L 127.726562 168.425781 L 134.777344 176.828125 C 135.464844 177.515625 136.496094 177.6875 137.183594 177.34375 Z M 137.183594 177.34375 " fill-opacity="1" fill-rule="nonzero"/></g><path fill="#003475" d="M 237.460938 174.597656 C 236.257812 174.597656 235.398438 175.628906 235.398438 176.65625 L 235.398438 210.789062 L 228.34375 202.382812 C 227.65625 201.527344 226.28125 201.355469 225.25 202.210938 C 224.734375 202.554688 224.5625 203.242188 224.5625 203.757812 L 224.5625 252.292969 L 216.820312 240.117188 C 216.132812 239.089844 214.929688 238.746094 213.898438 239.429688 C 212.863281 240.117188 212.519531 241.316406 213.207031 242.347656 L 224.90625 260.699219 C 225.25 261.382812 225.9375 261.726562 226.796875 261.726562 C 227.828125 261.726562 228.34375 261.214844 228.515625 260.871094 L 239.351562 243.375 C 240.039062 242.347656 239.695312 240.972656 238.664062 240.460938 C 237.632812 239.773438 236.257812 240.117188 235.742188 241.144531 L 228.859375 252.121094 L 228.859375 209.757812 L 235.914062 218.164062 C 236.601562 219.019531 237.976562 219.191406 239.007812 218.335938 C 239.523438 217.992188 239.695312 217.304688 239.695312 216.792969 L 239.695312 176.828125 C 239.695312 175.628906 238.664062 174.597656 237.460938 174.597656 C 237.632812 174.597656 237.460938 174.597656 237.460938 174.597656 Z M 237.460938 174.597656 " fill-opacity="1" fill-rule="nonzero"/><path fill="#003475" d="M 207.875 227.253906 C 184.3125 239.773438 155.246094 230.855469 142.6875 207.359375 C 142.34375 206.5 141.828125 205.816406 141.484375 204.957031 C 138.5625 198.609375 137.011719 191.921875 137.183594 184.890625 C 137.183594 183.691406 136.152344 182.832031 135.121094 182.832031 C 133.917969 182.832031 133.058594 183.859375 133.058594 184.890625 C 133.058594 192.4375 134.605469 199.8125 137.871094 206.671875 C 149.914062 232.914062 181.042969 244.40625 207.1875 232.398438 C 208.222656 231.882812 209.082031 231.542969 210.113281 231.027344 C 211.144531 230.511719 211.660156 229.3125 211.316406 228.28125 C 210.972656 227.253906 209.082031 226.566406 207.875 227.253906 Z M 207.875 227.253906 " fill-opacity="1" fill-rule="nonzero"/><path fill="#003475" d="M 187.753906 203.757812 L 188.097656 203.757812 C 191.019531 203.757812 193.429688 201.355469 193.429688 198.441406 L 193.429688 193.292969 C 193.429688 192.09375 192.226562 190.550781 190.160156 189.179688 L 187.753906 188.148438 Z M 187.753906 203.757812 " fill-opacity="1" fill-rule="nonzero"/><path fill="#003475" d="M 176.746094 171.339844 L 176.746094 176.484375 C 176.746094 178.03125 178.464844 179.574219 179.839844 180.429688 L 183.453125 181.804688 L 183.453125 165.851562 L 182.078125 165.851562 C 179.152344 166.023438 176.746094 168.425781 176.746094 171.339844 Z M 176.746094 171.339844 " fill-opacity="1" fill-rule="nonzero"/><path fill="#003475" d="M 185.171875 147.328125 C 164.1875 147.328125 147.332031 164.136719 147.332031 185.0625 C 147.332031 205.984375 164.1875 222.792969 185.171875 222.792969 C 206.15625 222.792969 223.011719 205.984375 223.011719 185.0625 C 223.011719 164.136719 206.15625 147.328125 185.171875 147.328125 Z M 197.902344 173.742188 C 197.902344 174.941406 196.867188 175.800781 195.835938 175.800781 C 194.804688 175.800781 193.773438 174.769531 193.773438 173.742188 L 193.773438 171.339844 C 193.773438 168.425781 191.363281 166.023438 188.441406 166.023438 L 188.097656 166.023438 L 188.097656 183.519531 C 188.097656 183.519531 192.742188 185.40625 192.914062 185.40625 C 196.523438 187.632812 198.246094 190.378906 198.246094 193.121094 L 198.246094 198.269531 C 198.246094 203.585938 193.945312 207.871094 188.613281 207.871094 L 188.269531 207.871094 L 188.269531 212.675781 C 188.269531 213.875 187.238281 214.734375 186.203125 214.734375 C 185.171875 214.734375 184.140625 213.703125 184.140625 212.675781 L 184.140625 207.871094 L 182.765625 207.871094 C 177.433594 207.871094 173.132812 203.585938 172.960938 198.269531 L 172.960938 195.867188 C 172.960938 194.667969 173.992188 193.808594 175.023438 193.808594 C 176.058594 193.808594 177.089844 194.835938 177.089844 195.867188 L 177.089844 198.269531 C 177.089844 201.183594 179.496094 203.585938 182.59375 203.585938 L 183.96875 203.585938 L 183.96875 186.433594 L 178.121094 184.203125 C 174.164062 181.972656 172.445312 179.402344 172.445312 176.484375 L 172.445312 171.339844 C 172.445312 166.023438 176.746094 161.734375 182.25 161.734375 L 183.625 161.734375 L 183.625 157.277344 C 183.625 156.078125 184.65625 155.21875 185.6875 155.21875 C 186.722656 155.21875 187.753906 156.246094 187.753906 157.277344 L 187.753906 161.734375 L 188.097656 161.734375 C 193.429688 161.734375 197.730469 166.023438 197.730469 171.339844 L 197.730469 173.742188 Z M 197.902344 173.742188 " fill-opacity="1" fill-rule="nonzero"/><g clip-path="url(#9589c85850)"><path fill="#003475" d="M 250.015625 175.285156 C 248.8125 175.285156 247.953125 176.316406 247.953125 177.34375 L 247.953125 211.304688 C 247.953125 212.503906 248.984375 213.359375 250.015625 213.359375 C 251.050781 213.359375 252.082031 212.332031 252.082031 211.304688 L 252.082031 177.34375 C 252.082031 176.144531 251.222656 175.285156 250.015625 175.285156 Z M 250.015625 175.285156 " fill-opacity="1" fill-rule="nonzero"/></g><path fill="#003475" d="M 158.683594 151.445312 C 159.890625 151.445312 160.75 150.417969 160.75 149.386719 L 160.75 143.898438 C 183.625 130.519531 213.035156 137.894531 226.453125 160.707031 C 228.171875 163.621094 229.722656 166.882812 230.753906 170.140625 C 231.097656 170.996094 231.785156 171.683594 232.816406 171.683594 C 232.988281 171.683594 233.332031 171.683594 233.503906 171.511719 C 234.707031 171.167969 235.226562 169.96875 234.882812 168.769531 C 225.9375 141.324219 196.351562 126.40625 168.832031 135.496094 C 166.082031 136.351562 163.328125 137.554688 160.75 138.925781 L 160.75 132.75 C 160.75 131.550781 159.71875 130.691406 158.683594 130.691406 C 157.652344 130.691406 156.621094 131.722656 156.621094 132.75 L 156.621094 149.386719 C 156.621094 150.417969 157.480469 151.445312 158.683594 151.445312 Z M 158.683594 151.445312 " fill-opacity="1" fill-rule="nonzero"/></svg>