<svg xmlns="http://www.w3.org/2000/svg" xmlns:xlink="http://www.w3.org/1999/xlink" width="500" zoomAndPan="magnify" viewBox="0 0 375 374.999991" height="500" preserveAspectRatio="xMidYMid meet" version="1.0"><defs><clipPath id="dfe5b6772e"><path d="M 193 55.507812 L 304.574219 55.507812 L 304.574219 226 L 193 226 Z M 193 55.507812 " clip-rule="nonzero"/></clipPath><clipPath id="30b1837518"><path d="M 59 172 L 304.574219 172 L 304.574219 340.507812 L 59 340.507812 Z M 59 172 " clip-rule="nonzero"/></clipPath><clipPath id="73ed30d194"><path d="M 147 269 L 304.574219 269 L 304.574219 340.507812 L 147 340.507812 Z M 147 269 " clip-rule="nonzero"/></clipPath></defs><g clip-path="url(#dfe5b6772e)"><path fill="#7f9abd" d="M 332.796875 139.5625 C 332.789062 139.511719 332.773438 139.464844 332.757812 139.417969 C 332.757812 139.417969 332.753906 139.417969 332.753906 139.414062 C 332.742188 139.382812 332.730469 139.355469 332.714844 139.328125 L 304.257812 88.667969 C 304.226562 88.621094 304.195312 88.574219 304.15625 88.53125 C 304.15625 88.53125 304.152344 88.527344 304.152344 88.527344 C 304.082031 88.453125 303.996094 88.390625 303.894531 88.347656 C 303.894531 88.347656 303.890625 88.347656 303.890625 88.347656 C 303.878906 88.34375 303.871094 88.34375 303.859375 88.335938 L 213.960938 55.5625 C 213.878906 55.527344 213.789062 55.511719 213.695312 55.511719 C 213.652344 55.503906 213.609375 55.515625 213.566406 55.523438 C 213.429688 55.546875 213.3125 55.605469 213.214844 55.6875 C 213.164062 55.730469 213.121094 55.777344 213.082031 55.832031 C 213 55.953125 212.953125 56.097656 212.953125 56.25 C 212.953125 56.277344 212.953125 56.300781 212.957031 56.324219 C 212.957031 56.324219 212.957031 56.324219 212.957031 56.328125 C 212.957031 56.332031 212.957031 56.339844 212.957031 56.347656 L 217.738281 94.664062 L 195.363281 125.203125 C 195.304688 125.28125 195.261719 125.375 195.238281 125.472656 C 195.238281 125.472656 195.238281 125.476562 195.238281 125.476562 C 195.230469 125.5 195.226562 125.523438 195.222656 125.550781 C 195.222656 125.554688 195.222656 125.554688 195.222656 125.554688 C 195.21875 125.574219 195.21875 125.597656 195.21875 125.617188 L 193.523438 173.640625 C 193.519531 173.695312 193.523438 173.753906 193.535156 173.8125 C 193.535156 173.816406 193.535156 173.816406 193.535156 173.816406 C 193.535156 173.816406 193.535156 173.820312 193.535156 173.820312 C 193.535156 173.824219 193.535156 173.828125 193.535156 173.832031 C 193.535156 173.832031 193.535156 173.835938 193.535156 173.835938 C 193.535156 173.835938 193.535156 173.835938 193.535156 173.839844 C 193.539062 173.839844 193.535156 173.84375 193.539062 173.84375 C 193.539062 173.847656 193.539062 173.847656 193.539062 173.847656 C 193.570312 173.980469 193.636719 174.097656 193.726562 174.191406 L 242.871094 225.269531 C 243.015625 225.421875 243.210938 225.496094 243.40625 225.496094 C 243.417969 225.496094 243.429688 225.496094 243.441406 225.496094 L 324.125 221.976562 C 324.125 221.976562 324.128906 221.972656 324.128906 221.976562 C 324.128906 221.976562 324.132812 221.972656 324.132812 221.976562 C 324.132812 221.976562 324.132812 221.976562 324.136719 221.976562 C 324.136719 221.976562 324.136719 221.976562 324.140625 221.976562 C 324.300781 221.964844 324.445312 221.902344 324.5625 221.808594 C 324.609375 221.769531 324.652344 221.722656 324.6875 221.671875 C 324.765625 221.566406 324.816406 221.441406 324.828125 221.300781 C 324.832031 221.277344 324.832031 221.25 324.832031 221.226562 L 324.738281 160.878906 L 332.753906 139.96875 C 332.761719 139.949219 332.769531 139.925781 332.777344 139.90625 C 332.777344 139.90625 332.777344 139.902344 332.777344 139.902344 C 332.816406 139.789062 332.820312 139.675781 332.796875 139.5625 C 332.800781 139.5625 332.796875 139.5625 332.796875 139.5625 Z M 234.929688 154.03125 L 259.195312 104.121094 L 271.898438 130.027344 Z M 271.875 131.808594 L 268.152344 156.601562 L 235.472656 155.445312 Z M 263.300781 173.84375 L 197.609375 172.980469 L 233.058594 156.9375 Z M 236.136719 156.957031 L 267.929688 158.074219 L 265.621094 173.453125 Z M 269.421875 158.128906 L 307.511719 159.46875 L 267.113281 173.519531 Z M 269.644531 156.652344 L 273.40625 131.621094 L 309.125 158.046875 Z M 272.988281 128.871094 L 260.242188 102.886719 L 301.667969 90.394531 Z M 301.257812 88.964844 L 259.40625 101.589844 L 216.535156 58.078125 Z M 214.703125 58.335938 L 257.003906 101.265625 L 219.179688 94.234375 Z M 218.835938 95.679688 L 256.398438 102.664062 L 198.011719 124.097656 Z M 257.71875 103.761719 L 232.839844 154.933594 L 197.433594 125.890625 Z M 196.648438 127.167969 L 231.703125 155.921875 L 195.046875 172.507812 Z M 243.1875 223.453125 L 196.03125 174.441406 L 265.050781 175.351562 Z M 244.585938 223.960938 L 266.476562 175.804688 L 322.097656 220.582031 Z M 267.691406 174.886719 L 310.933594 159.851562 L 322.960938 219.371094 Z M 312.429688 159.761719 L 323.261719 161.382812 L 323.34375 213.757812 Z M 323.523438 159.925781 L 313.121094 158.371094 L 330.226562 142.429688 Z M 311.4375 157.90625 L 275.738281 131.5 L 330.449219 140.195312 Z M 274.183594 129.75 L 303.519531 90.394531 L 330.671875 138.726562 Z M 274.183594 129.75 " fill-opacity="1" fill-rule="nonzero"/></g><g clip-path="url(#30b1837518)"><path fill="#6f859f" d="M 311.84375 217.953125 C 311.824219 217.828125 311.773438 217.707031 311.6875 217.601562 C 311.664062 217.570312 311.636719 217.542969 311.605469 217.515625 C 311.53125 217.449219 311.449219 217.402344 311.363281 217.371094 L 194.011719 172.675781 C 193.992188 172.667969 193.976562 172.664062 193.957031 172.65625 C 193.953125 172.65625 193.953125 172.65625 193.953125 172.65625 C 193.839844 172.625 193.726562 172.617188 193.613281 172.636719 C 193.613281 172.636719 193.609375 172.636719 193.609375 172.636719 C 193.609375 172.636719 193.609375 172.636719 193.605469 172.636719 C 193.605469 172.636719 193.601562 172.636719 193.601562 172.636719 C 193.597656 172.636719 193.597656 172.636719 193.597656 172.636719 C 193.597656 172.636719 193.59375 172.636719 193.59375 172.636719 C 193.59375 172.636719 193.589844 172.636719 193.589844 172.636719 C 193.589844 172.636719 193.585938 172.640625 193.582031 172.640625 C 193.578125 172.640625 193.570312 172.644531 193.5625 172.644531 C 193.558594 172.644531 193.558594 172.644531 193.554688 172.644531 C 193.554688 172.644531 193.554688 172.644531 193.550781 172.644531 C 193.546875 172.648438 193.546875 172.648438 193.546875 172.648438 C 193.546875 172.648438 193.542969 172.648438 193.542969 172.648438 C 193.527344 172.652344 193.511719 172.65625 193.496094 172.664062 L 121.726562 198.488281 C 121.691406 198.5 121.65625 198.515625 121.621094 198.535156 C 121.585938 198.554688 121.546875 198.578125 121.515625 198.601562 C 121.515625 198.601562 121.511719 198.605469 121.511719 198.605469 C 121.425781 198.671875 121.351562 198.761719 121.300781 198.867188 C 121.289062 198.890625 121.277344 198.917969 121.269531 198.941406 L 111.238281 226.613281 L 59.265625 286.433594 C 59.246094 286.457031 59.230469 286.476562 59.210938 286.5 C 59.132812 286.613281 59.089844 286.742188 59.078125 286.875 C 59.078125 286.875 59.078125 286.875 59.078125 286.878906 C 59.078125 286.933594 59.078125 286.988281 59.085938 287.042969 C 59.109375 287.1875 59.175781 287.324219 59.28125 287.4375 C 59.28125 287.4375 59.28125 287.4375 59.28125 287.441406 C 59.292969 287.449219 59.300781 287.457031 59.308594 287.464844 L 136.332031 360.25 C 136.464844 360.378906 136.648438 360.457031 136.84375 360.457031 C 136.859375 360.457031 136.875 360.457031 136.890625 360.457031 C 136.890625 360.457031 136.894531 360.457031 136.894531 360.457031 C 136.902344 360.457031 136.90625 360.453125 136.910156 360.453125 L 229.554688 351.988281 C 229.691406 351.976562 229.824219 351.925781 229.941406 351.835938 C 229.945312 351.839844 229.945312 351.835938 229.945312 351.835938 L 229.945312 351.832031 C 229.945312 351.832031 229.949219 351.832031 229.949219 351.832031 C 229.996094 351.792969 230.039062 351.75 230.074219 351.703125 L 269.660156 302.601562 C 269.691406 302.5625 269.71875 302.515625 269.742188 302.472656 C 269.742188 302.472656 269.746094 302.46875 269.746094 302.46875 C 269.746094 302.46875 269.746094 302.464844 269.746094 302.464844 C 269.789062 302.378906 269.8125 302.285156 269.820312 302.191406 L 273.871094 252.585938 L 311.605469 218.613281 C 311.742188 218.492188 311.820312 218.332031 311.84375 218.164062 C 311.855469 218.097656 311.855469 218.023438 311.84375 217.953125 Z M 307.769531 217.589844 L 226.683594 224.027344 L 195.558594 174.855469 Z M 194.316406 175.664062 L 225.203125 224.460938 L 189.628906 239.550781 Z M 169.386719 269.96875 L 128.230469 236.808594 L 187.515625 241.355469 Z M 188.546875 242.5 L 204.699219 298.414062 L 170.550781 270.90625 Z M 168.589844 271.226562 L 157.34375 288.980469 L 128.53125 238.953125 Z M 169.753906 272.164062 L 203.210938 299.125 L 158.511719 289.914062 Z M 205.546875 301.121094 L 227.421875 348.535156 L 160.027344 291.730469 Z M 189.695312 241.136719 L 225.1875 226.082031 L 206.035156 297.699219 Z M 192.917969 174.453125 L 188.152344 239.429688 L 123.664062 199.371094 Z M 185.828125 239.738281 L 126.582031 235.191406 L 122.867188 200.625 Z M 121.574219 202.460938 L 125.007812 234.433594 L 112.789062 226.691406 Z M 112.03125 227.96875 L 124.621094 235.941406 L 65.28125 281.773438 Z M 125.691406 236.992188 L 156 289.625 L 61.898438 286.265625 Z M 136.472656 358.351562 L 61.757812 287.742188 L 156.335938 291.113281 Z M 137.863281 358.882812 L 157.703125 291.714844 L 227.652344 350.679688 Z M 229.664062 349.855469 L 207.238281 301.242188 L 267.5625 302.84375 Z M 207.023438 299.753906 L 226.539062 226.773438 L 267.804688 301.363281 Z M 268.542969 299.632812 L 228.253906 226.8125 L 272.378906 252.640625 Z M 273.0625 251.324219 L 228.710938 225.359375 L 308.988281 218.980469 Z M 273.0625 251.324219 " fill-opacity="1" fill-rule="nonzero"/></g><g clip-path="url(#73ed30d194)"><path fill="#adc5cd" d="M 390.976562 319.652344 C 390.921875 319.542969 390.839844 319.445312 390.730469 319.375 C 390.707031 319.359375 390.683594 319.34375 390.65625 319.328125 L 297 269.351562 C 296.960938 269.332031 296.921875 269.316406 296.882812 269.300781 C 296.882812 269.300781 296.882812 269.300781 296.878906 269.300781 C 296.859375 269.292969 296.835938 269.285156 296.8125 269.28125 C 296.65625 269.242188 296.480469 269.257812 296.320312 269.332031 C 296.308594 269.339844 296.296875 269.34375 296.289062 269.351562 L 203.449219 319.226562 C 203.371094 319.269531 203.300781 319.324219 203.238281 319.394531 C 203.238281 319.394531 203.234375 319.394531 203.234375 319.398438 C 203.234375 319.398438 203.230469 319.398438 203.230469 319.402344 C 203.226562 319.410156 203.21875 319.421875 203.210938 319.429688 C 203.210938 319.433594 203.207031 319.433594 203.207031 319.433594 C 203.207031 319.433594 203.207031 319.4375 203.207031 319.4375 C 203.207031 319.441406 203.203125 319.441406 203.203125 319.441406 C 203.164062 319.496094 203.132812 319.550781 203.109375 319.609375 L 172.832031 393.03125 C 172.816406 393.066406 172.804688 393.101562 172.796875 393.136719 C 172.777344 393.222656 172.769531 393.308594 172.777344 393.390625 C 172.777344 393.394531 172.777344 393.394531 172.777344 393.394531 L 178.898438 452.097656 L 147.316406 507.488281 C 147.3125 507.496094 147.3125 507.496094 147.308594 507.5 L 147.308594 507.503906 C 147.246094 507.617188 147.21875 507.738281 147.21875 507.855469 C 147.21875 507.925781 147.226562 507.996094 147.246094 508.0625 C 147.246094 508.066406 147.246094 508.066406 147.246094 508.066406 C 147.246094 508.070312 147.246094 508.070312 147.246094 508.070312 C 147.246094 508.070312 147.246094 508.070312 147.246094 508.074219 C 147.257812 508.109375 147.269531 508.144531 147.285156 508.175781 C 147.34375 508.300781 147.4375 508.410156 147.5625 508.488281 C 147.5625 508.488281 147.566406 508.492188 147.566406 508.492188 C 147.589844 508.507812 147.617188 508.523438 147.648438 508.535156 C 147.75 508.582031 147.855469 508.613281 147.96875 508.601562 L 277.019531 508.910156 C 277.019531 508.910156 277.023438 508.910156 277.023438 508.910156 C 277.042969 508.910156 277.070312 508.90625 277.082031 508.910156 C 277.082031 508.90625 277.085938 508.90625 277.085938 508.90625 C 277.152344 508.902344 277.214844 508.886719 277.273438 508.867188 C 277.273438 508.867188 277.273438 508.867188 277.277344 508.867188 C 277.363281 508.835938 277.445312 508.785156 277.515625 508.722656 L 345.464844 448.011719 C 345.496094 447.980469 345.527344 447.953125 345.550781 447.917969 C 345.550781 447.917969 345.554688 447.921875 345.554688 447.917969 C 345.554688 447.917969 345.554688 447.914062 345.554688 447.914062 C 345.636719 447.8125 345.691406 447.6875 345.707031 447.550781 L 350.246094 411.429688 L 390.984375 320.296875 C 390.996094 320.269531 391.007812 320.242188 391.015625 320.210938 C 391.058594 320.078125 391.0625 319.9375 391.027344 319.804688 C 391.019531 319.753906 391 319.703125 390.976562 319.652344 Z M 295.796875 271.296875 L 289.386719 357.171875 L 205.476562 319.820312 Z M 238.527344 367.085938 L 205.988281 321.671875 L 287.5625 357.984375 Z M 288.980469 359.21875 L 281.0625 384.765625 L 240.804688 368.171875 Z M 238.789062 370.789062 L 267.261719 428.722656 L 234.007812 461.488281 Z M 239.730469 369.335938 L 280.621094 386.1875 L 268.007812 426.875 Z M 282 386.753906 L 331.257812 407.054688 L 269.300781 427.714844 Z M 282.441406 385.335938 L 290.371094 359.757812 L 330.6875 405.222656 Z M 203.96875 321.402344 L 237.039062 367.558594 L 174.859375 391.988281 Z M 237.398438 369.011719 L 232.523438 461.460938 L 174.75 393.625 Z M 174.496094 395.621094 L 231.199219 462.195312 L 180.339844 451.640625 Z M 180.03125 453.089844 L 230.980469 463.664062 L 149.855469 506.03125 Z M 150.96875 507.125 L 233.019531 464.273438 L 275.253906 507.421875 Z M 234.214844 463.371094 L 267.597656 430.480469 L 276.046875 506.109375 Z M 277.605469 506.65625 L 269.019531 429.847656 L 343.425781 447.84375 Z M 270.851562 428.765625 L 332.871094 408.082031 L 343.910156 446.433594 Z M 344.691406 443.777344 L 334.445312 408.167969 L 348.707031 411.789062 Z M 349.105469 410.355469 L 334.558594 406.671875 L 385.820312 328.222656 Z M 333.28125 405.910156 L 291.316406 358.589844 L 388.441406 321.496094 Z M 290.875 357.183594 L 297.292969 271.191406 L 388.527344 319.875 Z M 290.875 357.183594 " fill-opacity="1" fill-rule="nonzero"/></g></svg>