<svg width="642" height="786" viewBox="0 0 642 786" fill="none" xmlns="http://www.w3.org/2000/svg">
<mask id="mask0_4_9754" style="mask-type:luminance" maskUnits="userSpaceOnUse" x="243" y="0" width="284" height="182">
<path d="M243.036 0.425781H526.09V181.424H243.036V0.425781Z" fill="white"/>
</mask>
<g mask="url(#mask0_4_9754)">
<path d="M524.897 -3.91668C524.88 -4.02109 524.851 -4.11936 524.816 -4.22378C524.816 -4.22378 524.81 -4.22378 524.81 -4.22992C524.787 -4.29748 524.758 -4.35276 524.729 -4.41418L467.373 -112.808C467.315 -112.912 467.245 -113.011 467.17 -113.103L467.164 -113.109C467.02 -113.268 466.846 -113.404 466.643 -113.496C466.638 -113.496 466.638 -113.496 466.638 -113.496C466.614 -113.502 466.591 -113.508 466.574 -113.52L285.387 -183.649C285.219 -183.717 285.04 -183.754 284.849 -183.754C284.762 -183.766 284.675 -183.748 284.588 -183.729C284.316 -183.68 284.073 -183.551 283.876 -183.373C283.778 -183.287 283.691 -183.183 283.616 -183.072C283.448 -182.808 283.355 -182.501 283.355 -182.169C283.355 -182.12 283.355 -182.065 283.361 -182.016V-182.01C283.361 -181.997 283.361 -181.985 283.361 -181.967L292.994 -99.9834L247.904 -34.6389C247.783 -34.4669 247.696 -34.2703 247.649 -34.0615V-34.0554V-34.0492C247.638 -34.0001 247.626 -33.951 247.62 -33.8957C247.62 -33.8957 247.62 -33.8957 247.62 -33.8895C247.62 -33.8895 247.62 -33.8895 247.62 -33.8834C247.615 -33.8404 247.609 -33.7974 247.609 -33.7483L244.193 69.0009C244.182 69.1237 244.193 69.2466 244.217 69.3694C244.217 69.3694 244.217 69.3694 244.217 69.3756V69.3817V69.3878C244.217 69.394 244.217 69.4001 244.222 69.4124V69.4186V69.4247C244.222 69.4308 244.222 69.4308 244.222 69.437C244.222 69.4431 244.222 69.4431 244.222 69.4431C244.286 69.7318 244.425 69.9836 244.604 70.1802L343.652 179.471C343.948 179.796 344.336 179.956 344.729 179.956C344.752 179.956 344.781 179.956 344.804 179.956L507.415 172.42C507.42 172.42 507.42 172.42 507.426 172.42H507.432C507.438 172.42 507.438 172.42 507.438 172.42C507.443 172.42 507.443 172.42 507.443 172.42H507.449C507.773 172.401 508.063 172.266 508.3 172.063C508.393 171.977 508.48 171.885 508.549 171.775C508.711 171.554 508.81 171.277 508.839 170.982C508.839 170.927 508.844 170.872 508.844 170.816L508.653 41.6998L524.804 -3.04452C524.822 -3.08751 524.839 -3.1305 524.851 -3.17964C524.851 -3.17964 524.851 -3.18578 524.856 -3.18578C524.932 -3.42532 524.938 -3.671 524.897 -3.91668C524.897 -3.91054 524.897 -3.91054 524.897 -3.91668ZM327.646 27.0389L376.551 -79.7456L402.161 -24.3203L327.646 27.0389ZM402.109 -20.5L394.606 32.5421L328.746 30.073L402.109 -20.5ZM384.829 69.437L252.425 67.5882L323.878 33.2607L384.829 69.437ZM330.077 33.3037L394.161 35.6991L389.506 68.5955L330.077 33.3037ZM397.165 35.8096L473.932 38.6841L392.511 68.7429L397.165 35.8096ZM397.617 32.6527L405.194 -20.9054L477.185 35.6377L397.617 32.6527ZM404.349 -26.7894L378.664 -82.3866L462.151 -109.117L404.349 -26.7894ZM461.329 -112.169L376.979 -85.1628L290.574 -178.263L461.329 -112.169ZM286.881 -177.716L372.14 -85.8507L295.9 -100.905L286.881 -177.716ZM295.205 -97.8091L370.912 -82.8657L253.241 -37.0035L295.205 -97.8091ZM373.575 -80.5194L323.432 28.9798L252.078 -33.1648L373.575 -80.5194ZM250.492 -30.4316L321.139 31.0926L247.267 66.581L250.492 -30.4316ZM344.289 175.589L249.247 70.7207L388.354 72.6615L344.289 175.589ZM347.108 176.676L391.226 73.632L503.333 169.441L347.108 176.676ZM393.68 71.6727L480.826 39.4948L505.07 166.849L393.68 71.6727ZM483.842 39.3044L505.678 42.7808L505.84 154.841L483.842 39.3044ZM506.205 39.6545L485.231 36.3256L519.716 2.2253L506.205 39.6545ZM481.845 35.3429L409.901 -21.1695L520.167 -2.5593L481.845 35.3429ZM406.763 -24.91L465.885 -109.117L520.607 -5.70399L406.763 -24.91Z" fill="#1A5B8F"/>
</g>
<mask id="mask1_4_9754" style="mask-type:luminance" maskUnits="userSpaceOnUse" x="0" y="66" width="484" height="404">
<path d="M0.370728 66.6421H483.113V469.163H0.370728V66.6421Z" fill="white"/>
</mask>
<g mask="url(#mask1_4_9754)">
<path d="M482.661 163.814C482.626 163.55 482.522 163.286 482.348 163.065C482.296 162.998 482.244 162.936 482.186 162.881C482.186 162.881 482.186 162.875 482.181 162.875C482.036 162.74 481.868 162.641 481.694 162.574L245.177 66.937C245.137 66.9247 245.102 66.9124 245.067 66.9001C245.062 66.9001 245.062 66.894 245.056 66.894C244.836 66.8264 244.604 66.8141 244.373 66.8571C244.373 66.8571 244.373 66.8571 244.367 66.8571C244.361 66.8571 244.361 66.8571 244.361 66.8571C244.361 66.8571 244.361 66.8571 244.355 66.8571H244.35C244.344 66.851 244.344 66.8571 244.338 66.8571C244.332 66.8571 244.332 66.8571 244.326 66.8571C244.326 66.8571 244.321 66.8633 244.315 66.8633C244.303 66.8633 244.286 66.8694 244.274 66.8694C244.268 66.8755 244.263 66.8755 244.257 66.8755H244.251C244.245 66.8755 244.245 66.8755 244.24 66.8755C244.24 66.8755 244.234 66.8755 244.234 66.8817C244.234 66.8817 244.234 66.8817 244.228 66.8817C244.199 66.8878 244.17 66.9001 244.141 66.9124L99.4882 122.172C99.4129 122.196 99.3492 122.227 99.2798 122.264C99.2045 122.307 99.1293 122.356 99.0656 122.411H99.0598V122.417C98.8803 122.559 98.7356 122.749 98.6314 122.976V122.983C98.6083 123.032 98.5851 123.087 98.5677 123.136L78.3529 182.345L-26.3972 310.344C-26.4377 310.387 -26.4724 310.436 -26.5072 310.485C-26.6635 310.731 -26.7561 311.007 -26.7735 311.283C-26.7735 311.289 -26.7735 311.289 -26.7735 311.289C-26.7793 311.412 -26.7735 311.529 -26.7561 311.652C-26.7098 311.959 -26.5766 312.248 -26.3682 312.493C-26.3682 312.493 -26.3682 312.493 -26.3625 312.493C-26.3451 312.512 -26.3277 312.53 -26.3104 312.549L128.925 468.285C129.197 468.561 129.561 468.727 129.961 468.727C129.99 468.727 130.019 468.727 130.048 468.727C130.048 468.727 130.048 468.727 130.054 468.727H130.059C130.077 468.727 130.088 468.721 130.094 468.721L316.815 450.602C317.087 450.577 317.359 450.473 317.596 450.282L317.602 450.276L317.608 450.27C317.706 450.19 317.793 450.098 317.863 450L397.64 344.935C397.703 344.849 397.761 344.757 397.813 344.659C397.807 344.659 397.813 344.653 397.813 344.653C397.813 344.647 397.813 344.647 397.819 344.64C397.906 344.456 397.952 344.26 397.964 344.057L406.132 237.917L482.186 165.227C482.458 164.969 482.621 164.631 482.667 164.269C482.667 164.269 482.667 164.269 482.667 164.263C482.69 164.121 482.69 163.968 482.661 163.814ZM474.447 163.041L311.026 176.817L248.298 71.5987L474.447 163.041ZM245.791 73.3308L308.039 177.744L236.349 210.033L245.791 73.3308ZM195.549 275.113L112.6 204.161L232.083 213.89L195.549 275.113ZM234.161 216.341L266.718 335.98L197.894 277.115L234.161 216.341ZM193.94 277.81L171.276 315.785L113.208 208.749L193.94 277.81ZM196.284 279.812L263.719 337.491L173.627 317.788L196.284 279.812ZM268.426 341.766L312.514 443.219L176.683 321.676L268.426 341.766ZM236.482 213.417L308.01 181.208L269.41 334.445L236.482 213.417ZM242.972 70.7388L233.368 209.775L103.396 124.051L242.972 70.7388ZM228.685 210.426L109.277 200.703L101.786 126.735L228.685 210.426ZM99.1814 130.666L106.105 199.082L81.4731 182.511L99.1814 130.666ZM79.9449 185.244L105.323 202.306L-14.2694 300.369L79.9449 185.244ZM107.483 204.554L168.567 317.167L-21.0946 309.981L107.483 204.554ZM129.214 464.219L-21.3724 313.144L169.239 320.349L129.214 464.219ZM132.016 465.355L172 321.639L312.983 447.801L132.016 465.355ZM317.035 446.044L271.835 342.024L393.414 345.451L317.035 446.044ZM271.407 338.842L310.737 182.689L393.9 342.288L271.407 338.842ZM395.388 338.584L314.193 182.769L403.127 238.04L395.388 338.584ZM404.505 235.215L315.113 179.661L476.907 166.019L404.505 235.215Z" fill="#094A9B"/>
</g>
<path d="M641.848 381.66C641.739 381.421 641.571 381.218 641.357 381.065C641.311 381.028 641.258 380.998 641.206 380.973L452.61 274.195C452.535 274.152 452.454 274.116 452.373 274.085C452.327 274.067 452.281 274.054 452.234 274.042C451.916 273.962 451.563 273.993 451.245 274.159H451.24C451.222 274.165 451.199 274.177 451.176 274.189L264.234 380.752C264.078 380.838 263.933 380.961 263.806 381.108C263.806 381.114 263.8 381.114 263.8 381.114C263.8 381.114 263.8 381.114 263.8 381.12C263.8 381.12 263.794 381.12 263.794 381.126C263.783 381.145 263.766 381.169 263.754 381.188C263.754 381.188 263.748 381.188 263.748 381.194C263.748 381.194 263.748 381.2 263.742 381.2V381.206C263.742 381.206 263.737 381.206 263.737 381.212C263.661 381.323 263.598 381.445 263.552 381.568L202.579 538.432C202.55 538.506 202.527 538.579 202.51 538.659C202.469 538.843 202.452 539.021 202.469 539.205C202.469 539.205 202.469 539.205 202.469 539.211L214.795 664.62L151.197 782.97C151.197 782.977 151.191 782.983 151.185 782.989V782.995C151.064 783.234 151 783.498 151 783.749C151 783.903 151.017 784.05 151.058 784.191C151.058 784.197 151.058 784.197 151.058 784.197C151.058 784.203 151.058 784.203 151.058 784.203C151.058 784.203 151.058 784.203 151.058 784.209C151.058 784.209 151.058 784.209 151.058 784.215C151.081 784.289 151.104 784.369 151.139 784.436C151.26 784.7 151.445 784.933 151.7 785.105C151.758 785.141 151.81 785.172 151.868 785.197C152.07 785.301 152.284 785.368 152.51 785.344L412.379 786C412.379 786 412.384 786 412.39 786C412.425 786 412.483 785.988 412.5 786C412.506 785.988 412.512 785.994 412.512 785.994C412.645 785.982 412.772 785.957 412.893 785.908C412.893 785.908 412.893 785.908 412.899 785.908C413.073 785.841 413.235 785.736 413.379 785.601L550.211 655.893C550.269 655.832 550.332 655.771 550.379 655.697C550.379 655.697 550.384 655.703 550.384 655.691C550.384 655.691 550.384 655.691 550.39 655.691C550.546 655.47 550.662 655.206 550.697 654.906L559.829 577.743L641.866 383.034C641.889 382.972 641.912 382.917 641.929 382.856C642.016 382.568 642.022 382.267 641.953 381.991C641.941 381.875 641.9 381.764 641.848 381.66ZM450.193 278.347L437.283 461.822L268.317 382.022L450.193 278.347ZM334.865 482.998L269.347 385.977L433.611 463.557L334.865 482.998ZM436.462 466.194L420.516 520.776L339.452 485.322L436.462 466.194ZM335.397 490.909L392.731 614.687L325.767 684.687L335.397 490.909ZM337.288 487.806L419.631 523.812L394.229 610.738L337.288 487.806ZM422.408 525.026L521.593 568.391L396.838 612.534L422.408 525.026ZM423.293 521.99L439.261 467.347L520.448 564.478L423.293 521.99ZM265.281 385.401L331.869 484.016L206.668 536.206L265.281 385.401ZM332.592 487.119L322.777 684.625L206.443 539.702L332.592 487.119ZM205.934 543.964L320.111 686.195L217.698 663.651L205.934 543.964ZM217.079 666.748L319.671 689.335L156.315 779.849L217.079 666.748ZM158.559 782.185L323.778 690.641L408.827 782.823L158.559 782.185ZM326.184 688.71L393.402 618.434L410.424 780.014L326.184 688.71ZM413.559 781.186L396.271 617.091L546.099 655.537L413.559 781.186ZM399.955 614.773L524.849 570.586L547.07 652.526L399.955 614.773ZM548.643 646.847L528.013 570.776L556.735 578.504L548.643 646.847ZM557.533 575.443L528.244 567.575L631.467 399.972L557.533 575.443ZM525.67 565.95L441.17 464.851L636.741 385.603L525.67 565.95ZM440.279 461.84L453.206 278.127L636.921 382.132L440.279 461.84Z" fill="#2E5F9D"/>
</svg>
