<svg xmlns="http://www.w3.org/2000/svg" xmlns:xlink="http://www.w3.org/1999/xlink" width="500" zoomAndPan="magnify" viewBox="0 0 375 374.999991" height="500" preserveAspectRatio="xMidYMid meet" version="1.0"><defs><clipPath id="b394f13e89"><path d="M 80 194 L 308.15625 194 L 308.15625 348.058594 L 80 348.058594 Z M 80 194 " clip-rule="nonzero"/></clipPath><clipPath id="2b266b6ed4"><path d="M 67 27.058594 L 308.15625 27.058594 L 308.15625 49 L 67 49 Z M 67 27.058594 " clip-rule="nonzero"/></clipPath><clipPath id="69d6843b59"><path d="M 155 27.058594 L 308.15625 27.058594 L 308.15625 197 L 155 197 Z M 155 27.058594 " clip-rule="nonzero"/></clipPath></defs><g clip-path="url(#b394f13e89)"><path fill="#a8b7d8" d="M 311.203125 289.316406 C 311.191406 289.269531 311.171875 289.21875 311.148438 289.167969 C 311.109375 289.09375 311.058594 289.027344 311 288.96875 L 223.609375 201.601562 C 223.601562 201.59375 223.59375 201.582031 223.582031 201.574219 C 223.582031 201.574219 223.582031 201.570312 223.578125 201.570312 C 223.460938 201.464844 223.3125 201.398438 223.160156 201.382812 L 156.109375 194.113281 C 156.058594 194.105469 156.011719 194.101562 155.960938 194.109375 C 155.898438 194.113281 155.839844 194.128906 155.78125 194.144531 C 155.78125 194.148438 155.777344 194.148438 155.777344 194.148438 C 155.671875 194.183594 155.570312 194.246094 155.488281 194.332031 C 155.46875 194.351562 155.453125 194.371094 155.433594 194.394531 L 139.925781 214.246094 L 80.867188 244.671875 C 80.847656 244.679688 80.832031 244.691406 80.8125 244.699219 C 80.6875 244.777344 80.59375 244.886719 80.53125 245.011719 C 80.507812 245.058594 80.492188 245.109375 80.480469 245.164062 C 80.445312 245.3125 80.453125 245.472656 80.519531 245.621094 C 80.519531 245.621094 80.519531 245.621094 80.519531 245.625 C 80.523438 245.636719 80.527344 245.652344 80.535156 245.660156 L 126.761719 340.742188 C 126.761719 340.746094 126.765625 340.746094 126.765625 340.75 C 126.777344 340.765625 126.769531 340.753906 126.769531 340.753906 C 126.84375 340.902344 126.964844 341.023438 127.128906 341.09375 C 127.140625 341.101562 127.15625 341.105469 127.167969 341.109375 L 207.363281 372.089844 C 207.375 372.09375 207.382812 372.097656 207.394531 372.101562 C 207.398438 372.101562 207.398438 372.101562 207.402344 372.105469 C 207.402344 372.105469 207.402344 372.105469 207.40625 372.105469 C 207.476562 372.128906 207.550781 372.140625 207.628906 372.140625 C 207.703125 372.140625 207.78125 372.128906 207.855469 372.105469 C 207.910156 372.085938 207.957031 372.066406 208.007812 372.039062 L 253.917969 345.777344 C 253.933594 345.765625 253.949219 345.757812 253.960938 345.75 C 253.964844 345.75 253.964844 345.746094 253.96875 345.746094 C 253.96875 345.746094 253.96875 345.746094 253.96875 345.742188 C 253.988281 345.730469 254.003906 345.714844 254.023438 345.703125 C 254.023438 345.703125 254.023438 345.703125 254.023438 345.699219 C 254.027344 345.699219 254.027344 345.699219 254.027344 345.699219 C 254.027344 345.699219 254.027344 345.695312 254.027344 345.695312 C 254.097656 345.640625 254.152344 345.574219 254.191406 345.5 C 254.191406 345.5 254.191406 345.5 254.195312 345.5 C 254.195312 345.5 254.195312 345.5 254.195312 345.496094 C 254.195312 345.496094 254.195312 345.496094 254.195312 345.492188 C 254.210938 345.460938 254.226562 345.433594 254.238281 345.398438 L 270.332031 304.066406 L 310.722656 290.210938 C 310.730469 290.207031 310.738281 290.203125 310.746094 290.203125 C 310.910156 290.136719 311.042969 290.023438 311.121094 289.878906 C 311.15625 289.816406 311.183594 289.753906 311.199219 289.6875 C 311.214844 289.628906 311.222656 289.570312 311.222656 289.507812 C 311.226562 289.445312 311.21875 289.378906 311.203125 289.316406 Z M 307.410156 287.476562 L 237.957031 259.714844 L 224.433594 204.519531 Z M 236.375 259.476562 L 202.730469 257.867188 L 222.933594 204.613281 Z M 236.019531 260.941406 L 201.679688 315 L 202.40625 259.339844 Z M 222.050781 202.757812 L 201.472656 257.007812 L 157.585938 195.765625 Z M 176.738281 276.769531 L 162.910156 287.390625 L 151.613281 232.765625 Z M 151.949219 230.378906 L 200.347656 258.644531 L 177.921875 275.859375 Z M 177.480469 278.070312 L 198.488281 314.855469 L 163.640625 288.695312 Z M 178.664062 277.160156 L 200.914062 260.078125 L 200.203125 314.871094 Z M 156.4375 196.707031 L 199.050781 256.167969 L 150.765625 227.96875 Z M 154.753906 197.671875 L 149.527344 226.476562 L 141.332031 214.851562 Z M 140.171875 215.785156 L 148.714844 227.886719 L 87.15625 243.097656 Z M 149.371094 229.253906 L 161.375 287.296875 L 83.253906 245.589844 Z M 82.863281 247.0625 L 161.351562 288.957031 L 127.53125 338.9375 Z M 128.5625 340.058594 L 162.355469 290.117188 L 206.007812 369.976562 Z M 164.714844 291.347656 L 200.210938 318.003906 L 206.410156 367.625 Z M 208.226562 370.199219 L 201.816406 318.910156 L 252.011719 345.15625 Z M 201.964844 317.316406 L 236.953125 262.238281 L 252.539062 343.761719 Z M 253.796875 342.460938 L 238.65625 263.265625 L 268.929688 303.589844 Z M 270.039062 302.601562 L 239.507812 261.933594 L 308.355469 289.453125 Z M 270.039062 302.601562 " fill-opacity="1" fill-rule="nonzero"/></g><g clip-path="url(#2b266b6ed4)"><path fill="#6f859f" d="M 319.355469 -94.117188 C 319.335938 -94.242188 319.28125 -94.363281 319.199219 -94.46875 C 319.171875 -94.5 319.144531 -94.527344 319.117188 -94.554688 C 319.117188 -94.554688 319.117188 -94.554688 319.113281 -94.554688 C 319.042969 -94.621094 318.960938 -94.667969 318.875 -94.699219 L 201.785156 -139.339844 C 201.769531 -139.347656 201.75 -139.351562 201.734375 -139.359375 C 201.730469 -139.359375 201.730469 -139.359375 201.730469 -139.359375 C 201.617188 -139.394531 201.503906 -139.398438 201.390625 -139.378906 C 201.390625 -139.378906 201.386719 -139.378906 201.386719 -139.378906 C 201.386719 -139.378906 201.386719 -139.378906 201.382812 -139.378906 C 201.382812 -139.378906 201.378906 -139.378906 201.378906 -139.378906 C 201.375 -139.382812 201.375 -139.378906 201.375 -139.378906 C 201.375 -139.378906 201.371094 -139.378906 201.371094 -139.378906 C 201.371094 -139.378906 201.371094 -139.378906 201.367188 -139.378906 C 201.367188 -139.378906 201.363281 -139.378906 201.359375 -139.378906 C 201.355469 -139.375 201.347656 -139.375 201.339844 -139.371094 C 201.339844 -139.371094 201.335938 -139.371094 201.332031 -139.371094 C 201.332031 -139.371094 201.332031 -139.371094 201.328125 -139.371094 C 201.328125 -139.371094 201.328125 -139.371094 201.324219 -139.371094 C 201.324219 -139.371094 201.320312 -139.371094 201.320312 -139.367188 C 201.304688 -139.363281 201.289062 -139.359375 201.273438 -139.351562 L 129.664062 -113.558594 C 129.628906 -113.546875 129.597656 -113.53125 129.5625 -113.511719 C 129.523438 -113.496094 129.488281 -113.46875 129.457031 -113.445312 C 129.457031 -113.445312 129.453125 -113.445312 129.453125 -113.445312 C 129.367188 -113.375 129.292969 -113.285156 129.242188 -113.179688 C 129.230469 -113.15625 129.21875 -113.132812 129.210938 -113.105469 L 119.203125 -85.46875 L 67.347656 -25.71875 C 67.328125 -25.695312 67.3125 -25.675781 67.292969 -25.652344 C 67.214844 -25.539062 67.171875 -25.410156 67.160156 -25.277344 C 67.160156 -25.21875 67.160156 -25.164062 67.167969 -25.109375 C 67.191406 -24.964844 67.257812 -24.828125 67.363281 -24.714844 C 67.375 -24.707031 67.382812 -24.695312 67.390625 -24.6875 L 144.238281 48.007812 C 144.375 48.136719 144.554688 48.214844 144.75 48.214844 C 144.765625 48.214844 144.78125 48.214844 144.796875 48.214844 C 144.796875 48.214844 144.800781 48.214844 144.800781 48.214844 C 144.808594 48.214844 144.8125 48.214844 144.816406 48.214844 L 237.25 39.757812 C 237.386719 39.746094 237.523438 39.695312 237.636719 39.605469 C 237.640625 39.609375 237.640625 39.605469 237.640625 39.605469 L 237.640625 39.601562 C 237.640625 39.601562 237.644531 39.601562 237.644531 39.601562 C 237.691406 39.5625 237.734375 39.519531 237.769531 39.476562 L 277.261719 -9.570312 C 277.296875 -9.609375 277.324219 -9.65625 277.347656 -9.699219 C 277.347656 -9.699219 277.347656 -9.703125 277.347656 -9.703125 C 277.347656 -9.703125 277.347656 -9.703125 277.351562 -9.707031 C 277.394531 -9.792969 277.417969 -9.886719 277.425781 -9.980469 L 281.464844 -59.527344 L 319.117188 -93.457031 C 319.25 -93.578125 319.332031 -93.738281 319.355469 -93.90625 C 319.355469 -93.90625 319.355469 -93.90625 319.355469 -93.910156 C 319.367188 -93.976562 319.367188 -94.046875 319.355469 -94.117188 Z M 315.289062 -94.480469 L 234.386719 -88.050781 L 203.332031 -137.164062 Z M 202.09375 -136.355469 L 232.910156 -87.617188 L 197.417969 -72.542969 Z M 177.21875 -42.164062 L 136.15625 -75.285156 L 195.304688 -70.742188 Z M 196.335938 -69.601562 L 212.449219 -13.75 L 178.382812 -41.230469 Z M 176.421875 -40.90625 L 165.203125 -23.175781 L 136.457031 -73.144531 Z M 177.585938 -39.96875 L 210.96875 -13.042969 L 166.367188 -22.242188 Z M 213.296875 -11.050781 L 235.121094 36.308594 L 167.882812 -20.425781 Z M 197.484375 -70.960938 L 232.890625 -86 L 213.785156 -14.46875 Z M 200.695312 -137.566406 L 195.941406 -72.664062 L 131.597656 -112.679688 Z M 193.625 -72.359375 L 134.511719 -76.898438 L 130.804688 -111.425781 Z M 129.511719 -109.59375 L 132.941406 -77.65625 L 120.75 -85.390625 Z M 119.992188 -84.117188 L 132.554688 -76.148438 L 73.351562 -30.375 Z M 133.621094 -75.101562 L 163.863281 -22.53125 L 69.972656 -25.886719 Z M 144.378906 46.113281 L 69.835938 -24.410156 L 164.195312 -21.046875 Z M 145.769531 46.644531 L 165.5625 -20.445312 L 235.355469 38.449219 Z M 237.359375 37.628906 L 214.984375 -10.929688 L 275.171875 -9.328125 Z M 214.773438 -12.414062 L 234.242188 -85.308594 L 275.414062 -10.804688 Z M 276.148438 -12.535156 L 235.953125 -85.269531 L 279.980469 -59.46875 Z M 280.660156 -60.789062 L 236.410156 -86.722656 L 316.503906 -93.089844 Z M 280.660156 -60.789062 " fill-opacity="1" fill-rule="nonzero"/></g><g clip-path="url(#69d6843b59)"><path fill="#adc5cd" d="M 398.308594 7.460938 C 398.25 7.351562 398.167969 7.253906 398.0625 7.183594 C 398.039062 7.167969 398.015625 7.152344 397.988281 7.136719 L 304.542969 -42.777344 C 304.503906 -42.800781 304.464844 -42.816406 304.425781 -42.832031 C 304.402344 -42.839844 304.378906 -42.847656 304.355469 -42.851562 C 304.199219 -42.890625 304.023438 -42.875 303.867188 -42.796875 C 303.867188 -42.796875 303.863281 -42.796875 303.863281 -42.796875 C 303.855469 -42.792969 303.84375 -42.789062 303.832031 -42.78125 L 211.207031 7.035156 C 211.128906 7.078125 211.054688 7.132812 210.992188 7.203125 C 210.992188 7.203125 210.992188 7.203125 210.992188 7.207031 C 210.992188 7.207031 210.992188 7.207031 210.988281 7.207031 C 210.988281 7.207031 210.988281 7.207031 210.988281 7.210938 C 210.980469 7.21875 210.972656 7.230469 210.964844 7.238281 C 210.964844 7.242188 210.964844 7.242188 210.964844 7.242188 C 210.964844 7.242188 210.964844 7.246094 210.960938 7.246094 C 210.960938 7.25 210.960938 7.25 210.960938 7.25 C 210.921875 7.300781 210.890625 7.359375 210.867188 7.417969 L 180.65625 80.753906 C 180.644531 80.785156 180.632812 80.820312 180.621094 80.859375 C 180.601562 80.945312 180.59375 81.027344 180.601562 81.113281 C 180.601562 81.113281 180.601562 81.113281 180.601562 81.117188 L 186.707031 139.746094 L 155.199219 195.074219 C 155.195312 195.078125 155.195312 195.082031 155.191406 195.085938 C 155.128906 195.199219 155.101562 195.320312 155.101562 195.441406 C 155.101562 195.511719 155.109375 195.578125 155.128906 195.648438 C 155.128906 195.652344 155.128906 195.652344 155.128906 195.652344 C 155.128906 195.652344 155.128906 195.65625 155.128906 195.65625 C 155.140625 195.691406 155.152344 195.726562 155.167969 195.761719 C 155.226562 195.886719 155.320312 195.992188 155.445312 196.070312 C 155.445312 196.070312 155.445312 196.074219 155.445312 196.074219 C 155.472656 196.089844 155.5 196.105469 155.527344 196.117188 C 155.628906 196.164062 155.734375 196.195312 155.847656 196.183594 L 284.605469 196.492188 C 284.609375 196.492188 284.613281 196.492188 284.613281 196.492188 C 284.632812 196.492188 284.660156 196.488281 284.667969 196.492188 C 284.671875 196.488281 284.671875 196.488281 284.675781 196.488281 C 284.738281 196.484375 284.800781 196.472656 284.863281 196.449219 C 284.953125 196.417969 285.035156 196.367188 285.105469 196.304688 L 352.898438 135.667969 C 352.929688 135.636719 352.960938 135.609375 352.984375 135.574219 C 352.984375 135.574219 352.988281 135.578125 352.988281 135.570312 C 353.070312 135.46875 353.125 135.34375 353.140625 135.207031 L 357.667969 99.128906 L 398.316406 8.101562 C 398.328125 8.074219 398.335938 8.046875 398.347656 8.019531 C 398.390625 7.886719 398.390625 7.746094 398.359375 7.613281 C 398.351562 7.5625 398.332031 7.511719 398.308594 7.460938 Z M 303.34375 -40.839844 L 296.949219 44.9375 L 213.226562 7.628906 Z M 246.203125 54.835938 L 213.738281 9.476562 L 295.128906 45.746094 Z M 296.542969 46.980469 L 288.640625 72.496094 L 248.472656 55.921875 Z M 246.464844 58.535156 L 274.871094 116.402344 L 241.695312 149.128906 Z M 247.402344 57.085938 L 288.199219 73.917969 L 275.617188 114.558594 Z M 289.578125 74.484375 L 338.722656 94.757812 L 276.90625 115.394531 Z M 290.015625 73.066406 L 297.929688 47.519531 L 338.15625 92.929688 Z M 211.722656 9.210938 L 244.71875 55.3125 L 182.679688 79.710938 Z M 245.074219 56.761719 L 240.210938 149.101562 L 182.570312 81.347656 Z M 182.316406 83.335938 L 238.890625 149.832031 L 188.144531 139.292969 Z M 187.839844 140.742188 L 238.671875 151.300781 L 157.734375 193.617188 Z M 158.84375 194.710938 L 240.707031 151.910156 L 282.847656 195.007812 Z M 241.898438 151.007812 L 275.207031 118.15625 L 283.640625 193.695312 Z M 285.191406 194.242188 L 276.625 117.523438 L 350.863281 135.5 Z M 278.453125 116.441406 L 340.335938 95.785156 L 351.347656 134.09375 Z M 352.125 131.4375 L 341.902344 95.871094 L 356.132812 99.488281 Z M 356.53125 98.054688 L 342.019531 94.378906 L 393.164062 16.019531 Z M 340.742188 93.617188 L 298.875 46.351562 L 395.777344 9.300781 Z M 298.433594 44.945312 L 304.835938 -40.941406 L 395.863281 7.683594 Z M 298.433594 44.945312 " fill-opacity="1" fill-rule="nonzero"/></g></svg>