<?xml version="1.0" standalone="no"?>
<!DOCTYPE svg PUBLIC "-//W3C//DTD SVG 20010904//EN"
 "http://www.w3.org/TR/2001/REC-SVG-20010904/DTD/svg10.dtd">
<svg version="1.0" xmlns="http://www.w3.org/2000/svg"
 width="339.000000pt" height="265.000000pt" viewBox="0 0 339.000000 265.000000"
 preserveAspectRatio="xMidYMid meet">

<g transform="translate(0.000000,265.000000) scale(0.100000,-0.100000)"
fill="#000000" stroke="none">
<path d="M807 2499 c-127 -14 -245 -104 -308 -235 l-30 -64 -125 0 c-119 0
-126 -1 -149 -24 -32 -32 -40 -69 -25 -107 22 -52 42 -59 177 -59 l122 0 30
-64 c43 -89 109 -159 185 -196 208 -103 448 -17 548 195 l30 65 930 0 930 0
29 29 c40 41 40 91 0 132 l-29 29 -930 0 -930 0 -30 65 c-79 168 -236 255
-425 234z m108 -200 c83 -21 155 -111 155 -193 0 -123 -132 -228 -247 -197
-95 26 -156 102 -156 196 0 89 51 159 139 190 48 17 55 18 109 4z"/>
<path d="M2465 1686 c-115 -37 -205 -115 -251 -220 l-28 -66 -979 0 c-1083 0
-1014 4 -1037 -65 -14 -42 -5 -77 27 -107 l25 -23 982 -3 982 -2 24 -56 c28
-68 112 -161 177 -196 198 -106 447 -27 549 174 13 26 24 54 24 62 0 10 19 15
81 18 77 3 82 5 111 37 26 29 30 39 25 75 -9 65 -41 86 -132 86 l-73 0 -30 63
c-50 108 -129 180 -239 218 -65 22 -176 25 -238 5z m227 -222 c99 -70 115
-200 35 -291 -124 -141 -347 -59 -347 127 0 68 19 109 70 153 49 42 64 46 143
43 45 -2 66 -9 99 -32z"/>
<path d="M1277 890 c-112 -29 -209 -108 -262 -214 l-36 -71 -379 -5 -378 -5
-26 -24 c-14 -13 -28 -36 -31 -52 -7 -32 18 -93 43 -106 9 -4 187 -10 396 -13
l378 -5 20 -53 c28 -75 113 -163 196 -204 62 -31 73 -33 172 -33 99 0 110 2
172 33 83 41 168 129 196 204 l20 53 687 5 687 5 24 28 c26 31 31 71 12 112
-25 56 -10 55 -736 55 l-669 0 -36 74 c-67 134 -185 212 -333 221 -43 2 -96 0
-117 -5z m189 -217 c109 -56 137 -209 56 -305 -54 -64 -165 -87 -240 -49 -159
82 -145 308 23 369 42 16 115 9 161 -15z"/>
</g>
</svg>
