<svg xmlns="http://www.w3.org/2000/svg" xmlns:xlink="http://www.w3.org/1999/xlink" width="500" zoomAndPan="magnify" viewBox="0 0 375 374.999991" height="500" preserveAspectRatio="xMidYMid meet" version="1.0"><defs><clipPath id="20684e256c"><path d="M 191 70 L 374.761719 70 L 374.761719 146 L 191 146 Z M 191 70 " clip-rule="nonzero"/></clipPath><clipPath id="0e8e9a99b2"><path d="M 175.261719 135 L 193 135 L 193 153 L 175.261719 153 Z M 175.261719 135 " clip-rule="nonzero"/></clipPath><clipPath id="120bf4c5c0"><path d="M 335 101 L 374.761719 101 L 374.761719 211.976562 L 335 211.976562 Z M 335 101 " clip-rule="nonzero"/></clipPath><clipPath id="25f51e31a1"><path d="M 241 187 L 374.761719 187 L 374.761719 211.976562 L 241 211.976562 Z M 241 187 " clip-rule="nonzero"/></clipPath></defs><g clip-path="url(#20684e256c)"><path fill="#003475" d="M 294.8125 145.121094 L 191.714844 145.121094 L 191.714844 143.011719 L 293.941406 143.011719 L 366.105469 70.71875 L 733.472656 70.71875 L 733.472656 72.828125 L 366.976562 72.828125 Z M 294.8125 145.121094 " fill-opacity="1" fill-rule="nonzero"/></g><path fill="#003475" d="M 233.984375 196.609375 C 229.351562 196.609375 225.578125 192.832031 225.578125 188.1875 C 225.578125 183.546875 229.351562 179.769531 233.984375 179.769531 C 238.617188 179.769531 242.386719 183.546875 242.386719 188.1875 C 242.386719 192.832031 238.617188 196.609375 233.984375 196.609375 Z M 233.984375 180.824219 C 229.929688 180.824219 226.632812 184.128906 226.632812 188.191406 C 226.632812 192.253906 229.929688 195.554688 233.984375 195.554688 C 238.035156 195.554688 241.332031 192.253906 241.332031 188.191406 C 241.332031 184.128906 238.035156 180.824219 233.984375 180.824219 Z M 233.984375 180.824219 " fill-opacity="1" fill-rule="nonzero"/><g clip-path="url(#0e8e9a99b2)"><path fill="#003475" d="M 183.839844 152.484375 C 179.203125 152.484375 175.4375 148.707031 175.4375 144.066406 C 175.4375 139.425781 179.203125 135.648438 183.839844 135.648438 C 188.472656 135.648438 192.242188 139.425781 192.242188 144.066406 C 192.242188 148.707031 188.472656 152.484375 183.839844 152.484375 Z M 183.839844 136.703125 C 179.785156 136.703125 176.488281 140.007812 176.488281 144.070312 C 176.488281 148.128906 179.785156 151.433594 183.839844 151.433594 C 187.894531 151.433594 191.191406 148.128906 191.191406 144.070312 C 191.191406 140.007812 187.890625 136.703125 183.839844 136.703125 Z M 183.839844 136.703125 " fill-opacity="1" fill-rule="nonzero"/></g><g clip-path="url(#120bf4c5c0)"><path fill="#003475" d="M 685.699219 213.597656 L 624.023438 213.597656 L 566.679688 156.152344 L 389.3125 156.152344 L 335.8125 102.558594 L 337.300781 101.066406 L 390.183594 154.046875 L 567.550781 154.046875 L 624.894531 211.488281 L 685.699219 211.488281 Z M 685.699219 213.597656 " fill-opacity="1" fill-rule="nonzero"/></g><g clip-path="url(#25f51e31a1)"><path fill="#003475" d="M 447.953125 226.917969 L 381.691406 226.917969 L 344.085938 189.246094 L 241.859375 189.246094 L 241.859375 187.136719 L 344.957031 187.136719 L 382.5625 224.8125 L 447.082031 224.8125 L 479.4375 192.398438 L 533.574219 192.398438 L 533.574219 194.507812 L 480.308594 194.507812 Z M 447.953125 226.917969 " fill-opacity="1" fill-rule="nonzero"/></g></svg>