<svg xmlns="http://www.w3.org/2000/svg" xmlns:xlink="http://www.w3.org/1999/xlink" width="500" zoomAndPan="magnify" viewBox="0 0 375 374.999991" height="500" preserveAspectRatio="xMidYMid meet" version="1.0"><defs><clipPath id="9c564e794e"><path d="M 0 103 L 224 103 L 224 132.71875 L 0 132.71875 Z M 0 103 " clip-rule="nonzero"/></clipPath><clipPath id="3361a14b45"><path d="M 222 95 L 240.75 95 L 240.75 114 L 222 114 Z M 222 95 " clip-rule="nonzero"/></clipPath><clipPath id="1ec28831ce"><path d="M 18 59.21875 L 35 59.21875 L 35 77 L 18 77 Z M 18 59.21875 " clip-rule="nonzero"/></clipPath><clipPath id="cd6ef3b671"><path d="M 155 59.21875 L 171 59.21875 L 171 76 L 155 76 Z M 155 59.21875 " clip-rule="nonzero"/></clipPath></defs><g clip-path="url(#9c564e794e)"><path fill="#003475" d="M -214.921875 177.609375 L -318.015625 177.609375 L -318.015625 175.503906 L -215.792969 175.503906 L -143.625 103.210938 L 223.742188 103.210938 L 223.742188 105.320312 L -142.753906 105.320312 Z M -214.921875 177.609375 " fill-opacity="1" fill-rule="nonzero"/></g><g clip-path="url(#3361a14b45)"><path fill="#003475" d="M 231.617188 113.464844 C 226.691406 113.464844 222.6875 109.449219 222.6875 104.519531 C 222.6875 99.585938 226.691406 95.570312 231.617188 95.570312 C 236.539062 95.570312 240.546875 99.585938 240.546875 104.519531 C 240.546875 109.449219 236.539062 113.464844 231.617188 113.464844 Z M 231.617188 97.683594 C 227.855469 97.683594 224.792969 100.75 224.792969 104.519531 C 224.792969 108.292969 227.855469 111.359375 231.617188 111.359375 C 235.382812 111.359375 238.441406 108.292969 238.441406 104.519531 C 238.441406 100.75 235.382812 97.683594 231.617188 97.683594 Z M 231.617188 97.683594 " fill-opacity="1" fill-rule="nonzero"/></g><g clip-path="url(#1ec28831ce)"><path fill="#003475" d="M 26.523438 76.027344 C 21.890625 76.027344 18.117188 72.25 18.117188 67.609375 C 18.117188 62.96875 21.890625 59.191406 26.523438 59.191406 C 31.15625 59.191406 34.925781 62.96875 34.925781 67.609375 C 34.925781 72.25 31.15625 76.027344 26.523438 76.027344 Z M 26.523438 60.242188 C 22.46875 60.242188 19.171875 63.546875 19.171875 67.609375 C 19.171875 71.671875 22.46875 74.972656 26.523438 74.972656 C 30.574219 74.972656 33.871094 71.671875 33.871094 67.609375 C 33.871094 63.546875 30.574219 60.242188 26.523438 60.242188 Z M 26.523438 60.242188 " fill-opacity="1" fill-rule="nonzero"/></g><g clip-path="url(#cd6ef3b671)"><path fill="#003475" d="M 170.886719 67.609375 C 170.886719 68.125 170.835938 68.640625 170.734375 69.148438 C 170.632812 69.65625 170.484375 70.148438 170.285156 70.628906 C 170.089844 71.109375 169.84375 71.5625 169.558594 71.992188 C 169.269531 72.425781 168.945312 72.824219 168.578125 73.1875 C 168.210938 73.554688 167.816406 73.882812 167.382812 74.171875 C 166.953125 74.457031 166.5 74.703125 166.023438 74.898438 C 165.542969 75.097656 165.050781 75.246094 164.542969 75.347656 C 164.039062 75.449219 163.523438 75.5 163.007812 75.5 C 162.492188 75.5 161.976562 75.449219 161.472656 75.347656 C 160.964844 75.246094 160.472656 75.097656 159.992188 74.898438 C 159.515625 74.703125 159.0625 74.457031 158.632812 74.171875 C 158.199219 73.882812 157.804688 73.554688 157.4375 73.1875 C 157.070312 72.824219 156.746094 72.425781 156.457031 71.992188 C 156.171875 71.5625 155.925781 71.109375 155.730469 70.628906 C 155.53125 70.148438 155.382812 69.65625 155.28125 69.148438 C 155.179688 68.640625 155.128906 68.125 155.128906 67.609375 C 155.128906 67.089844 155.179688 66.578125 155.28125 66.070312 C 155.382812 65.5625 155.53125 65.066406 155.730469 64.589844 C 155.925781 64.109375 156.171875 63.65625 156.457031 63.222656 C 156.746094 62.792969 157.070312 62.394531 157.4375 62.027344 C 157.804688 61.660156 158.199219 61.335938 158.632812 61.046875 C 159.0625 60.757812 159.515625 60.515625 159.992188 60.316406 C 160.472656 60.121094 160.964844 59.96875 161.472656 59.867188 C 161.976562 59.765625 162.492188 59.714844 163.007812 59.714844 C 163.523438 59.714844 164.039062 59.765625 164.542969 59.867188 C 165.050781 59.96875 165.542969 60.121094 166.023438 60.316406 C 166.5 60.515625 166.953125 60.757812 167.382812 61.046875 C 167.816406 61.335938 168.210938 61.660156 168.578125 62.027344 C 168.945312 62.394531 169.269531 62.792969 169.558594 63.222656 C 169.84375 63.65625 170.089844 64.109375 170.285156 64.589844 C 170.484375 65.066406 170.632812 65.5625 170.734375 66.070312 C 170.835938 66.578125 170.886719 67.089844 170.886719 67.609375 Z M 170.886719 67.609375 " fill-opacity="1" fill-rule="nonzero"/></g><path fill="#003475" d="M 33.667969 66.554688 L 158.179688 66.554688 L 158.179688 68.664062 L 33.667969 68.664062 Z M 33.667969 66.554688 " fill-opacity="1" fill-rule="nonzero"/></svg>