<svg xmlns="http://www.w3.org/2000/svg" xmlns:xlink="http://www.w3.org/1999/xlink" width="500" zoomAndPan="magnify" viewBox="0 0 375 374.999991" height="500" preserveAspectRatio="xMidYMid meet" version="1.0"><defs><clipPath id="88d21a216c"><path d="M 245 26.726562 L 259 26.726562 L 259 41 L 245 41 Z M 245 26.726562 " clip-rule="nonzero"/></clipPath><clipPath id="7f7ea84032"><path d="M 0 63 L 281 63 L 281 126.476562 L 0 126.476562 Z M 0 63 " clip-rule="nonzero"/></clipPath></defs><path fill="#003475" d="M 286.363281 71.039062 C 282.617188 71.039062 279.570312 67.984375 279.570312 64.226562 C 279.570312 60.46875 282.617188 57.414062 286.363281 57.414062 C 290.109375 57.414062 293.152344 60.46875 293.152344 64.226562 C 293.152344 67.980469 290.105469 71.039062 286.363281 71.039062 Z M 286.363281 59.15625 C 283.574219 59.15625 281.308594 61.433594 281.308594 64.226562 C 281.308594 67.023438 283.574219 69.296875 286.363281 69.296875 C 289.148438 69.296875 291.417969 67.023438 291.417969 64.226562 C 291.417969 61.433594 289.148438 59.15625 286.363281 59.15625 Z M 286.363281 59.15625 " fill-opacity="1" fill-rule="nonzero"/><g clip-path="url(#88d21a216c)"><path fill="#003475" d="M 252.011719 40.300781 C 248.265625 40.300781 245.21875 37.246094 245.21875 33.488281 C 245.21875 29.730469 248.265625 26.675781 252.011719 26.675781 C 255.757812 26.675781 258.804688 29.730469 258.804688 33.488281 C 258.804688 37.246094 255.753906 40.300781 252.011719 40.300781 Z M 252.011719 28.421875 C 249.222656 28.421875 246.957031 30.695312 246.957031 33.492188 C 246.957031 36.285156 249.222656 38.558594 252.011719 38.558594 C 254.796875 38.558594 257.066406 36.285156 257.066406 33.492188 C 257.066406 30.695312 254.796875 28.421875 252.011719 28.421875 Z M 252.011719 28.421875 " fill-opacity="1" fill-rule="nonzero"/></g><path fill="#003475" d="M 205.46875 105.191406 L 84.933594 105.191406 L 44.699219 64.84375 L 45.929688 63.609375 L 85.652344 103.445312 L 205.46875 103.445312 Z M 205.46875 105.191406 " fill-opacity="1" fill-rule="nonzero"/><path fill="#003475" d="M 212.355469 112.09375 C 208.078125 112.09375 204.601562 108.605469 204.601562 104.320312 C 204.601562 100.03125 208.078125 96.542969 212.355469 96.542969 C 216.628906 96.542969 220.109375 100.03125 220.109375 104.320312 C 220.109375 108.605469 216.628906 112.09375 212.355469 112.09375 Z M 212.355469 98.285156 C 209.035156 98.285156 206.335938 100.988281 206.335938 104.316406 C 206.335938 107.644531 209.035156 110.351562 212.355469 110.351562 C 215.671875 110.351562 218.371094 107.644531 218.371094 104.316406 C 218.371094 100.992188 215.671875 98.285156 212.355469 98.285156 Z M 212.355469 98.285156 " fill-opacity="1" fill-rule="nonzero"/><path fill="#003475" d="M 135.210938 64.84375 L 133.984375 63.609375 L 164.886719 32.617188 L 246.089844 32.617188 L 246.089844 34.359375 L 165.605469 34.359375 Z M 135.210938 64.84375 " fill-opacity="1" fill-rule="nonzero"/><g clip-path="url(#7f7ea84032)"><path fill="#003475" d="M -151.691406 142.3125 L -199.433594 142.3125 L -199.433594 140.570312 L -152.414062 140.570312 L -75.417969 63.355469 L 280.292969 63.355469 L 280.292969 65.097656 L -74.699219 65.097656 Z M -151.691406 142.3125 " fill-opacity="1" fill-rule="nonzero"/></g></svg>