<svg xmlns="http://www.w3.org/2000/svg" xmlns:xlink="http://www.w3.org/1999/xlink" width="500" zoomAndPan="magnify" viewBox="0 0 375 374.999991" height="500" preserveAspectRatio="xMidYMid meet" version="1.0"><defs><clipPath id="b75430c891"><path d="M 121.128906 169 L 253.878906 169 L 253.878906 254.792969 L 121.128906 254.792969 Z M 121.128906 169 " clip-rule="nonzero"/></clipPath><clipPath id="e757299576"><path d="M 185 120.542969 L 190 120.542969 L 190 131 L 185 131 Z M 185 120.542969 " clip-rule="nonzero"/></clipPath></defs><path fill="#003475" d="M 143.578125 188.558594 C 143.75 188.546875 161.242188 186.945312 175.3125 192.96875 C 175.527344 193.0625 175.75 193.105469 175.96875 193.105469 C 176.617188 193.105469 177.234375 192.722656 177.503906 192.085938 C 177.867188 191.238281 177.472656 190.253906 176.625 189.894531 C 161.742188 183.527344 144.003906 185.15625 143.257812 185.230469 C 142.339844 185.320312 141.671875 186.136719 141.757812 187.054688 C 141.847656 187.976562 142.6875 188.648438 143.578125 188.558594 " fill-opacity="1" fill-rule="nonzero"/><path fill="#003475" d="M 143.578125 200.300781 C 143.75 200.285156 161.242188 198.6875 175.3125 204.710938 C 175.527344 204.800781 175.75 204.84375 175.96875 204.84375 C 176.617188 204.84375 177.234375 204.464844 177.503906 203.828125 C 177.867188 202.976562 177.472656 201.996094 176.625 201.636719 C 161.742188 195.265625 144.003906 196.898438 143.257812 196.972656 C 142.339844 197.058594 141.671875 197.878906 141.757812 198.796875 C 141.847656 199.714844 142.6875 200.390625 143.578125 200.300781 " fill-opacity="1" fill-rule="nonzero"/><path fill="#003475" d="M 143.578125 212.039062 C 143.75 212.027344 161.242188 210.429688 175.3125 216.449219 C 175.527344 216.542969 175.75 216.585938 175.96875 216.585938 C 176.617188 216.585938 177.234375 216.203125 177.503906 215.570312 C 177.867188 214.71875 177.472656 213.738281 176.625 213.375 C 161.742188 207.003906 144.003906 208.636719 143.257812 208.714844 C 142.339844 208.800781 141.671875 209.621094 141.757812 210.539062 C 141.847656 211.457031 142.6875 212.132812 143.578125 212.039062 " fill-opacity="1" fill-rule="nonzero"/><path fill="#003475" d="M 175.316406 228.191406 C 175.527344 228.28125 175.75 228.324219 175.96875 228.324219 C 176.617188 228.324219 177.234375 227.945312 177.503906 227.308594 C 177.867188 226.460938 177.472656 225.476562 176.625 225.117188 C 161.746094 218.746094 144.003906 220.375 143.257812 220.457031 C 142.339844 220.542969 141.671875 221.359375 141.757812 222.28125 C 141.847656 223.199219 142.6875 223.871094 143.578125 223.78125 C 143.753906 223.769531 161.207031 222.15625 175.316406 228.191406 " fill-opacity="1" fill-rule="nonzero"/><g clip-path="url(#b75430c891)"><path fill="#003475" d="M 250.5 250.453125 C 227.234375 240.71875 199.972656 250.167969 196.65625 251.390625 L 190.601562 251.390625 C 194.628906 246.613281 207.738281 236.398438 244.261719 241.160156 C 244.734375 241.214844 245.210938 241.074219 245.574219 240.757812 C 245.9375 240.4375 246.140625 239.980469 246.140625 239.5 L 246.140625 177.550781 L 250.5 184.105469 Z M 124.503906 250.453125 L 124.503906 184.105469 L 128.863281 177.550781 L 128.863281 239.5 C 128.863281 239.980469 129.066406 240.4375 129.429688 240.757812 C 129.789062 241.074219 130.265625 241.214844 130.746094 241.160156 C 167.277344 236.386719 180.386719 246.617188 184.40625 251.390625 L 178.347656 251.390625 C 175.03125 250.171875 147.777344 240.714844 124.503906 250.453125 Z M 132.199219 173.5 C 174.667969 168.324219 184.644531 183.753906 185.835938 185.949219 L 185.835938 247.914062 C 181.277344 243.222656 170.886719 236.566406 148.566406 236.566406 C 143.703125 236.566406 138.257812 236.882812 132.199219 237.605469 Z M 242.804688 173.5 L 242.804688 237.605469 C 208.945312 233.574219 194.71875 242.199219 189.171875 247.914062 L 189.171875 185.949219 C 190.359375 183.753906 200.308594 168.332031 242.804688 173.5 Z M 253.558594 182.671875 L 245.863281 171.09375 L 245.863281 171.097656 C 245.601562 170.707031 245.183594 170.429688 244.6875 170.363281 C 205.222656 165.230469 191.597656 176.941406 187.503906 182.375 C 183.410156 176.945312 169.792969 165.234375 130.316406 170.363281 C 129.820312 170.429688 129.402344 170.707031 129.140625 171.097656 L 129.140625 171.09375 L 121.449219 182.671875 C 121.265625 182.945312 121.167969 183.269531 121.167969 183.601562 L 121.167969 253.039062 C 121.167969 253.613281 121.464844 254.148438 121.949219 254.453125 C 122.441406 254.761719 123.050781 254.792969 123.5625 254.542969 C 146.996094 243.230469 177.152344 254.511719 177.453125 254.628906 C 177.640625 254.699219 177.84375 254.734375 178.046875 254.734375 L 196.957031 254.734375 C 197.160156 254.734375 197.363281 254.699219 197.554688 254.628906 C 197.851562 254.507812 228.007812 243.222656 251.445312 254.542969 C 251.957031 254.792969 252.566406 254.761719 253.058594 254.453125 C 253.542969 254.148438 253.839844 253.613281 253.839844 253.039062 L 253.839844 183.601562 C 253.839844 183.269531 253.742188 182.945312 253.558594 182.671875 " fill-opacity="1" fill-rule="nonzero"/></g><path fill="#003475" d="M 199.035156 193.105469 C 199.253906 193.105469 199.476562 193.0625 199.6875 192.96875 C 213.773438 186.949219 231.253906 188.550781 231.425781 188.558594 C 232.328125 188.640625 233.160156 187.976562 233.246094 187.054688 C 233.335938 186.136719 232.664062 185.320312 231.746094 185.230469 C 231 185.160156 213.257812 183.53125 198.378906 189.894531 C 197.53125 190.253906 197.140625 191.238281 197.5 192.085938 C 197.769531 192.722656 198.386719 193.105469 199.035156 193.105469 " fill-opacity="1" fill-rule="nonzero"/><path fill="#003475" d="M 199.035156 204.84375 C 199.253906 204.84375 199.476562 204.800781 199.6875 204.710938 C 213.773438 198.691406 231.253906 200.285156 231.425781 200.300781 C 232.328125 200.382812 233.160156 199.714844 233.246094 198.796875 C 233.335938 197.878906 232.664062 197.058594 231.746094 196.972656 C 231 196.898438 213.257812 195.265625 198.378906 201.636719 C 197.53125 201.996094 197.140625 202.976562 197.5 203.828125 C 197.769531 204.464844 198.386719 204.84375 199.035156 204.84375 " fill-opacity="1" fill-rule="nonzero"/><path fill="#003475" d="M 199.035156 216.585938 C 199.253906 216.585938 199.476562 216.542969 199.6875 216.449219 C 213.773438 210.429688 231.253906 212.03125 231.425781 212.039062 C 232.328125 212.125 233.160156 211.457031 233.246094 210.539062 C 233.335938 209.621094 232.664062 208.800781 231.746094 208.714844 C 231 208.636719 213.257812 207.007812 198.378906 213.375 C 197.53125 213.738281 197.140625 214.71875 197.5 215.570312 C 197.769531 216.203125 198.386719 216.585938 199.035156 216.585938 " fill-opacity="1" fill-rule="nonzero"/><path fill="#003475" d="M 199.035156 228.324219 C 199.253906 228.324219 199.476562 228.28125 199.6875 228.191406 C 213.761719 222.167969 231.253906 223.769531 231.425781 223.78125 C 232.328125 223.863281 233.160156 223.199219 233.246094 222.28125 C 233.335938 221.359375 232.664062 220.542969 231.746094 220.457031 C 230.992188 220.378906 213.257812 218.746094 198.378906 225.117188 C 197.53125 225.476562 197.140625 226.460938 197.5 227.308594 C 197.769531 227.945312 198.386719 228.324219 199.035156 228.324219 " fill-opacity="1" fill-rule="nonzero"/><g clip-path="url(#e757299576)"><path fill="#003475" d="M 187.503906 130.378906 C 188.425781 130.378906 189.171875 129.628906 189.171875 128.707031 L 189.171875 122.210938 C 189.171875 121.285156 188.425781 120.535156 187.503906 120.535156 C 186.582031 120.535156 185.835938 121.285156 185.835938 122.210938 L 185.835938 128.707031 C 185.835938 129.628906 186.582031 130.378906 187.503906 130.378906 " fill-opacity="1" fill-rule="nonzero"/></g><path fill="#003475" d="M 203.636719 147.191406 C 203.636719 148.117188 204.382812 148.863281 205.304688 148.863281 L 211.789062 148.863281 C 212.707031 148.863281 213.457031 148.113281 213.457031 147.191406 C 213.457031 146.265625 212.707031 145.519531 211.789062 145.519531 L 205.304688 145.519531 C 204.382812 145.519531 203.636719 146.269531 203.636719 147.191406 " fill-opacity="1" fill-rule="nonzero"/><path fill="#003475" d="M 200.222656 135.925781 C 200.652344 135.925781 201.078125 135.761719 201.402344 135.4375 L 205.988281 130.839844 C 206.640625 130.1875 206.640625 129.128906 205.988281 128.476562 C 205.335938 127.824219 204.28125 127.824219 203.628906 128.476562 L 199.042969 133.070312 C 198.390625 133.726562 198.390625 134.785156 199.042969 135.4375 C 199.367188 135.761719 199.792969 135.925781 200.222656 135.925781 " fill-opacity="1" fill-rule="nonzero"/><path fill="#003475" d="M 163.21875 148.863281 L 169.699219 148.863281 C 170.621094 148.863281 171.367188 148.117188 171.367188 147.191406 C 171.367188 146.269531 170.621094 145.519531 169.699219 145.519531 L 163.21875 145.519531 C 162.296875 145.519531 161.550781 146.265625 161.550781 147.191406 C 161.550781 148.113281 162.296875 148.863281 163.21875 148.863281 " fill-opacity="1" fill-rule="nonzero"/><path fill="#003475" d="M 173.601562 135.4375 C 173.925781 135.761719 174.351562 135.925781 174.78125 135.925781 C 175.207031 135.925781 175.636719 135.761719 175.960938 135.4375 C 176.613281 134.785156 176.613281 133.726562 175.960938 133.070312 L 171.378906 128.476562 C 170.730469 127.824219 169.675781 127.820312 169.019531 128.476562 C 168.367188 129.128906 168.367188 130.1875 169.019531 130.839844 L 173.601562 135.4375 " fill-opacity="1" fill-rule="nonzero"/><path fill="#003475" d="M 187.453125 135.867188 C 193.054688 135.867188 197.613281 140.4375 197.613281 146.050781 C 197.613281 149.390625 195.972656 152.523438 193.226562 154.425781 C 192.777344 154.738281 192.507812 155.253906 192.507812 155.800781 L 192.507812 159.683594 L 182.398438 159.683594 L 182.398438 155.800781 C 182.398438 155.253906 182.128906 154.738281 181.679688 154.425781 C 178.933594 152.523438 177.292969 149.390625 177.292969 146.050781 C 177.292969 140.4375 181.851562 135.867188 187.453125 135.867188 Z M 179.0625 156.640625 L 179.0625 161.355469 C 179.0625 162.277344 179.808594 163.027344 180.730469 163.027344 L 194.175781 163.027344 C 195.097656 163.027344 195.84375 162.277344 195.84375 161.355469 L 195.84375 156.640625 C 199.054688 154.082031 200.949219 150.1875 200.949219 146.050781 C 200.949219 138.59375 194.894531 132.523438 187.453125 132.523438 C 180.011719 132.523438 173.957031 138.59375 173.957031 146.050781 C 173.957031 150.1875 175.851562 154.082031 179.0625 156.640625 " fill-opacity="1" fill-rule="nonzero"/><path fill="#003475" d="M 194.175781 166.449219 L 180.730469 166.449219 C 179.808594 166.449219 179.0625 167.199219 179.0625 168.125 C 179.0625 169.046875 179.808594 169.796875 180.730469 169.796875 L 194.175781 169.796875 C 195.097656 169.796875 195.84375 169.046875 195.84375 168.125 C 195.84375 167.199219 195.097656 166.449219 194.175781 166.449219 " fill-opacity="1" fill-rule="nonzero"/></svg>