<svg xmlns="http://www.w3.org/2000/svg" xmlns:xlink="http://www.w3.org/1999/xlink" width="500" zoomAndPan="magnify" viewBox="0 0 375 374.999991" height="500" preserveAspectRatio="xMidYMid meet" version="1.0"><defs><clipPath id="82b9d05693"><path d="M 131.136719 106 L 243.636719 106 L 243.636719 269.421875 L 131.136719 269.421875 Z M 131.136719 106 " clip-rule="nonzero"/></clipPath></defs><path fill="#003475" d="M 189.804688 196.710938 C 189.804688 197.035156 189.746094 197.34375 189.621094 197.640625 C 189.5 197.941406 189.324219 198.203125 189.097656 198.429688 C 188.871094 198.660156 188.609375 198.835938 188.3125 198.957031 C 188.015625 199.082031 187.707031 199.140625 187.386719 199.140625 C 187.066406 199.140625 186.757812 199.082031 186.460938 198.957031 C 186.164062 198.835938 185.902344 198.660156 185.675781 198.429688 C 185.449219 198.203125 185.273438 197.941406 185.148438 197.640625 C 185.027344 197.34375 184.964844 197.035156 184.964844 196.710938 C 184.964844 196.390625 185.027344 196.078125 185.148438 195.78125 C 185.273438 195.484375 185.449219 195.222656 185.675781 194.992188 C 185.902344 194.765625 186.164062 194.589844 186.460938 194.464844 C 186.757812 194.34375 187.066406 194.28125 187.386719 194.28125 C 187.707031 194.28125 188.015625 194.34375 188.3125 194.464844 C 188.609375 194.589844 188.871094 194.765625 189.097656 194.992188 C 189.324219 195.222656 189.5 195.484375 189.621094 195.78125 C 189.746094 196.078125 189.804688 196.390625 189.804688 196.710938 Z M 189.804688 196.710938 " fill-opacity="1" fill-rule="nonzero"/><path fill="#003475" d="M 189.804688 206.316406 C 189.804688 206.640625 189.746094 206.949219 189.621094 207.246094 C 189.5 207.542969 189.324219 207.808594 189.097656 208.035156 C 188.871094 208.261719 188.609375 208.4375 188.3125 208.5625 C 188.015625 208.6875 187.707031 208.746094 187.386719 208.746094 C 187.066406 208.746094 186.757812 208.6875 186.460938 208.5625 C 186.164062 208.4375 185.902344 208.261719 185.675781 208.035156 C 185.449219 207.808594 185.273438 207.542969 185.148438 207.246094 C 185.027344 206.949219 184.964844 206.640625 184.964844 206.316406 C 184.964844 205.996094 185.027344 205.683594 185.148438 205.386719 C 185.273438 205.089844 185.449219 204.828125 185.675781 204.597656 C 185.902344 204.371094 186.164062 204.195312 186.460938 204.070312 C 186.757812 203.949219 187.066406 203.886719 187.386719 203.886719 C 187.707031 203.886719 188.015625 203.949219 188.3125 204.070312 C 188.609375 204.195312 188.871094 204.371094 189.097656 204.597656 C 189.324219 204.828125 189.5 205.089844 189.621094 205.386719 C 189.746094 205.683594 189.804688 205.996094 189.804688 206.316406 Z M 189.804688 206.316406 " fill-opacity="1" fill-rule="nonzero"/><g clip-path="url(#82b9d05693)"><path fill="#003475" d="M 204.367188 181.953125 L 214.824219 172.367188 L 219.839844 167.800781 C 228.902344 159.59375 233.394531 148.472656 233.566406 133.753906 L 233.566406 121.386719 L 241.15625 121.386719 C 241.484375 121.398438 241.796875 121.339844 242.101562 121.21875 C 242.40625 121.101562 242.671875 120.925781 242.90625 120.699219 C 243.140625 120.46875 243.320312 120.203125 243.445312 119.902344 C 243.574219 119.601562 243.636719 119.285156 243.636719 118.957031 L 243.636719 108.4375 C 243.636719 108.117188 243.574219 107.808594 243.453125 107.507812 C 243.328125 107.210938 243.152344 106.949219 242.925781 106.722656 C 242.699219 106.492188 242.4375 106.316406 242.140625 106.195312 C 241.84375 106.070312 241.535156 106.007812 241.214844 106.007812 L 133.59375 106.007812 C 133.273438 106.007812 132.964844 106.070312 132.667969 106.195312 C 132.371094 106.316406 132.109375 106.492188 131.882812 106.722656 C 131.65625 106.949219 131.480469 107.210938 131.359375 107.507812 C 131.238281 107.808594 131.175781 108.117188 131.175781 108.4375 L 131.175781 118.957031 C 131.175781 119.28125 131.238281 119.589844 131.359375 119.886719 C 131.480469 120.1875 131.65625 120.449219 131.882812 120.675781 C 132.109375 120.90625 132.371094 121.082031 132.667969 121.203125 C 132.964844 121.328125 133.273438 121.386719 133.59375 121.386719 L 141.1875 121.386719 L 141.1875 133.714844 C 141.359375 148.394531 145.871094 159.515625 154.933594 167.703125 L 160.742188 173.03125 L 170.425781 181.894531 C 171.441406 182.664062 172.257812 183.609375 172.867188 184.734375 C 173.480469 185.855469 173.832031 187.054688 173.929688 188.332031 C 173.804688 189.648438 173.414062 190.878906 172.761719 192.03125 C 172.113281 193.179688 171.253906 194.144531 170.191406 194.921875 L 154.894531 208.960938 C 145.832031 217.148438 141.339844 228.269531 141.148438 242.988281 L 141.148438 253.71875 L 133.59375 253.71875 C 133.269531 253.71875 132.957031 253.78125 132.65625 253.910156 C 132.355469 254.039062 132.089844 254.21875 131.863281 254.453125 C 131.636719 254.6875 131.460938 254.957031 131.34375 255.261719 C 131.222656 255.566406 131.167969 255.882812 131.175781 256.207031 L 131.175781 266.726562 C 131.175781 267.050781 131.238281 267.359375 131.359375 267.65625 C 131.480469 267.957031 131.65625 268.21875 131.882812 268.445312 C 132.109375 268.671875 132.371094 268.847656 132.667969 268.972656 C 132.964844 269.097656 133.273438 269.15625 133.59375 269.15625 L 241.15625 269.15625 C 241.488281 269.164062 241.808594 269.109375 242.117188 268.984375 C 242.421875 268.859375 242.695312 268.683594 242.929688 268.445312 C 243.164062 268.210938 243.339844 267.941406 243.464844 267.628906 C 243.585938 267.320312 243.644531 267 243.636719 266.667969 L 243.636719 256.207031 C 243.636719 255.886719 243.574219 255.574219 243.453125 255.277344 C 243.328125 254.980469 243.152344 254.71875 242.925781 254.488281 C 242.699219 254.261719 242.4375 254.085938 242.140625 253.964844 C 241.84375 253.839844 241.535156 253.777344 241.214844 253.777344 L 233.566406 253.777344 L 233.566406 242.949219 C 233.394531 228.269531 228.902344 217.148438 219.839844 208.960938 L 204.523438 194.902344 C 203.46875 194.128906 202.621094 193.175781 201.976562 192.035156 C 201.332031 190.898438 200.945312 189.675781 200.824219 188.371094 C 200.933594 187.097656 201.292969 185.898438 201.914062 184.78125 C 202.53125 183.664062 203.347656 182.722656 204.367188 181.953125 Z M 195.984375 188.390625 C 196.035156 189.375 196.191406 190.34375 196.453125 191.296875 C 196.714844 192.246094 197.070312 193.160156 197.527344 194.035156 C 197.984375 194.90625 198.527344 195.722656 199.15625 196.480469 C 199.789062 197.234375 200.492188 197.914062 201.269531 198.519531 L 216.527344 212.558594 C 224.660156 219.90625 228.511719 229.589844 228.667969 242.988281 L 228.667969 253.71875 L 146.027344 253.71875 L 146.027344 243.007812 C 146.199219 229.589844 150.054688 219.90625 158.1875 212.558594 L 173.484375 198.539062 C 174.265625 197.929688 174.976562 197.246094 175.609375 196.480469 C 176.246094 195.71875 176.792969 194.898438 177.253906 194.019531 C 177.710938 193.136719 178.074219 192.21875 178.335938 191.257812 C 178.597656 190.300781 178.753906 189.324219 178.808594 188.332031 C 178.757812 187.371094 178.609375 186.421875 178.355469 185.492188 C 178.105469 184.5625 177.753906 183.671875 177.3125 182.816406 C 176.867188 181.964844 176.335938 181.167969 175.71875 180.429688 C 175.105469 179.691406 174.417969 179.023438 173.65625 178.433594 L 163.976562 169.570312 L 158.167969 164.242188 C 150.054688 156.890625 146.199219 147.210938 146.027344 133.8125 L 146.027344 121.386719 L 228.726562 121.386719 L 228.726562 133.714844 C 228.570312 147.132812 224.71875 156.8125 216.585938 164.164062 C 214.902344 165.679688 213.234375 167.214844 211.550781 168.773438 L 201.039062 178.433594 C 199.523438 179.65625 198.328125 181.132812 197.445312 182.867188 C 196.566406 184.605469 196.078125 186.445312 195.984375 188.390625 Z M 195.984375 188.390625 " fill-opacity="1" fill-rule="nonzero"/></g><path fill="#003475" d="M 219.257812 153.160156 C 219.386719 152.933594 219.480469 152.691406 219.53125 152.433594 C 219.582031 152.179688 219.59375 151.921875 219.5625 151.660156 C 219.53125 151.402344 219.460938 151.15625 219.347656 150.917969 C 219.234375 150.683594 219.089844 150.46875 218.910156 150.28125 C 218.730469 150.089844 218.527344 149.929688 218.300781 149.804688 C 218.070312 149.679688 217.828125 149.59375 217.570312 149.550781 C 217.3125 149.507812 217.054688 149.503906 216.796875 149.546875 C 216.539062 149.589844 216.292969 149.671875 216.0625 149.796875 C 206.515625 154.675781 202.933594 156.503906 188.121094 151.738281 C 185.769531 150.96875 183.367188 150.433594 180.914062 150.125 C 178.457031 149.816406 175.996094 149.746094 173.527344 149.914062 C 171.0625 150.082031 168.628906 150.480469 166.238281 151.113281 C 163.847656 151.75 161.539062 152.605469 159.308594 153.683594 C 159.144531 153.761719 158.992188 153.855469 158.847656 153.96875 C 158.707031 154.082031 158.578125 154.210938 158.464844 154.351562 C 158.351562 154.492188 158.253906 154.644531 158.171875 154.808594 C 158.09375 154.972656 158.03125 155.144531 157.988281 155.320312 C 157.949219 155.5 157.925781 155.679688 157.925781 155.859375 C 157.921875 156.042969 157.941406 156.222656 157.980469 156.402344 C 158.019531 156.578125 158.078125 156.75 158.15625 156.914062 C 158.230469 157.082031 158.328125 157.234375 158.4375 157.378906 C 159.367188 158.488281 180.433594 178.765625 180.628906 178.765625 C 182.230469 180.613281 183.132812 182.757812 183.339844 185.203125 C 183.402344 185.695312 183.554688 186.164062 183.796875 186.597656 C 184.039062 187.035156 184.351562 187.410156 184.738281 187.726562 C 185.125 188.039062 185.554688 188.273438 186.027344 188.421875 C 186.503906 188.570312 186.988281 188.625 187.484375 188.585938 C 187.953125 188.628906 188.414062 188.582031 188.867188 188.445312 C 189.316406 188.304688 189.726562 188.085938 190.089844 187.78125 C 190.453125 187.476562 190.746094 187.117188 190.964844 186.695312 C 191.183594 186.277344 191.3125 185.828125 191.355469 185.355469 C 191.542969 183.804688 192.003906 182.339844 192.738281 180.960938 C 193.472656 179.582031 194.433594 178.382812 195.617188 177.367188 C 195.945312 177.074219 197.300781 175.773438 199.140625 174.003906 C 203.671875 169.648438 211.222656 162.335938 213.292969 160.507812 C 215.675781 158.382812 217.664062 155.933594 219.257812 153.160156 Z M 219.257812 153.160156 " fill-opacity="1" fill-rule="nonzero"/><path fill="#003475" d="M 154.042969 245.941406 C 154.035156 246.273438 154.09375 246.59375 154.214844 246.898438 C 154.335938 247.207031 154.511719 247.476562 154.746094 247.710938 C 154.976562 247.949219 155.246094 248.128906 155.550781 248.253906 C 155.855469 248.375 156.171875 248.4375 156.503906 248.429688 L 218.289062 248.429688 C 218.609375 248.429688 218.917969 248.371094 219.214844 248.246094 C 219.511719 248.121094 219.773438 247.945312 220 247.71875 C 220.226562 247.492188 220.402344 247.230469 220.527344 246.929688 C 220.648438 246.632812 220.710938 246.324219 220.710938 246 C 220.683594 244.921875 220.605469 243.84375 220.476562 242.773438 C 220.347656 241.703125 220.167969 240.640625 219.933594 239.585938 C 219.703125 238.53125 219.421875 237.488281 219.089844 236.464844 C 218.757812 235.4375 218.375 234.425781 217.945312 233.4375 C 217.515625 232.449219 217.039062 231.480469 216.519531 230.539062 C 215.996094 229.59375 215.429688 228.675781 214.820312 227.789062 C 214.207031 226.902344 213.554688 226.042969 212.863281 225.21875 C 212.167969 224.394531 211.4375 223.601562 210.667969 222.847656 C 209.898438 222.09375 209.09375 221.378906 208.257812 220.703125 C 207.417969 220.027344 206.550781 219.394531 205.648438 218.800781 C 204.75 218.210938 203.824219 217.664062 202.871094 217.160156 C 201.921875 216.660156 200.945312 216.207031 199.949219 215.796875 C 198.953125 215.390625 197.941406 215.03125 196.910156 214.722656 C 195.882812 214.414062 194.839844 214.15625 193.78125 213.949219 C 192.726562 213.742188 191.664062 213.585938 190.59375 213.480469 C 189.523438 213.378906 188.453125 213.324219 187.375 213.324219 C 186.300781 213.324219 185.230469 213.378906 184.160156 213.484375 C 183.089844 213.585938 182.023438 213.742188 180.96875 213.949219 C 179.914062 214.15625 178.871094 214.414062 177.839844 214.722656 C 176.8125 215.03125 175.796875 215.390625 174.800781 215.796875 C 173.804688 216.207031 172.832031 216.660156 171.878906 217.160156 C 170.929688 217.664062 170.003906 218.210938 169.101562 218.800781 C 168.203125 219.394531 167.335938 220.027344 166.496094 220.703125 C 165.660156 221.378906 164.855469 222.09375 164.085938 222.847656 C 163.316406 223.601562 162.585938 224.394531 161.890625 225.21875 C 161.199219 226.042969 160.546875 226.902344 159.933594 227.789062 C 159.324219 228.675781 158.757812 229.59375 158.234375 230.539062 C 157.710938 231.480469 157.234375 232.449219 156.808594 233.4375 C 156.378906 234.425781 155.996094 235.4375 155.664062 236.464844 C 155.332031 237.488281 155.050781 238.53125 154.816406 239.585938 C 154.585938 240.640625 154.40625 241.703125 154.277344 242.773438 C 154.148438 243.84375 154.070312 244.921875 154.042969 246 Z M 154.042969 245.941406 " fill-opacity="1" fill-rule="nonzero"/></svg>