<svg xmlns="http://www.w3.org/2000/svg" xmlns:xlink="http://www.w3.org/1999/xlink" width="500" zoomAndPan="magnify" viewBox="0 0 375 374.999991" height="500" preserveAspectRatio="xMidYMid meet" version="1.0"><defs><clipPath id="3cad8b19e6"><path d="M 80.308594 80.308594 L 294.808594 80.308594 L 294.808594 294.808594 L 80.308594 294.808594 Z M 80.308594 80.308594 " clip-rule="nonzero"/></clipPath></defs><rect x="-37.5" width="450" fill="#ffffff" y="-37.499999" height="449.999989" fill-opacity="1"/><rect x="-37.5" width="450" fill="#ffffff" y="-37.499999" height="449.999989" fill-opacity="1"/><rect x="-37.5" width="450" fill="#ffffff" y="-37.499999" height="449.999989" fill-opacity="1"/><g clip-path="url(#3cad8b19e6)"><path fill="#00b9f4" d="M 215.785156 102.890625 C 209.546875 102.890625 204.496094 97.835938 204.496094 91.597656 C 204.496094 85.363281 209.546875 80.308594 215.785156 80.308594 L 283.519531 80.308594 C 289.753906 80.308594 294.808594 85.363281 294.808594 91.597656 L 294.808594 159.335938 C 294.808594 165.570312 289.753906 170.625 283.519531 170.625 C 277.285156 170.625 272.230469 165.570312 272.230469 159.335938 L 272.230469 118.855469 L 189.898438 201.1875 C 185.488281 205.597656 178.339844 205.597656 173.933594 201.1875 C 169.523438 196.777344 169.523438 189.628906 173.933594 185.222656 L 256.265625 102.890625 Z M 114.179688 125.46875 C 107.945312 125.46875 102.890625 130.523438 102.890625 136.757812 L 102.890625 260.941406 C 102.890625 267.175781 107.945312 272.230469 114.179688 272.230469 L 238.363281 272.230469 C 244.597656 272.230469 249.652344 267.175781 249.652344 260.941406 L 249.652344 209.433594 C 249.652344 203.199219 254.707031 198.144531 260.941406 198.144531 C 267.175781 198.144531 272.230469 203.199219 272.230469 209.433594 L 272.230469 260.941406 C 272.230469 279.648438 257.066406 294.808594 238.363281 294.808594 L 114.179688 294.808594 C 95.472656 294.808594 80.308594 279.648438 80.308594 260.941406 L 80.308594 136.757812 C 80.308594 118.050781 95.472656 102.890625 114.179688 102.890625 L 165.6875 102.890625 C 171.921875 102.890625 176.976562 107.945312 176.976562 114.179688 C 176.976562 120.414062 171.921875 125.46875 165.6875 125.46875 Z M 114.179688 125.46875 " fill-opacity="1" fill-rule="evenodd"/></g></svg>