<svg xmlns="http://www.w3.org/2000/svg" xmlns:xlink="http://www.w3.org/1999/xlink" width="150" zoomAndPan="magnify" viewBox="0 0 112.5 52.499999" height="70" preserveAspectRatio="xMidYMid meet" version="1.0"><defs><filter x="0%" y="0%" width="100%" height="100%" id="43c7580dc7"><feColorMatrix values="0 0 0 0 1 0 0 0 0 1 0 0 0 0 1 0 0 0 1 0" color-interpolation-filters="sRGB"/></filter><clipPath id="af16b0876e"><path d="M 72 0 L 111.722656 0 L 111.722656 52.003906 L 72 52.003906 Z M 72 0 " clip-rule="nonzero"/></clipPath><mask id="936a4c30e2"><g filter="url(#43c7580dc7)"><rect x="-11.25" width="135" fill="#000000" y="-5.25" height="62.999998" fill-opacity="0.4588"/></g></mask><clipPath id="1ac4eaff38"><path d="M 12.097656 0.34375 L 27.230469 0.34375 L 27.230469 10.609375 L 12.097656 10.609375 Z M 12.097656 0.34375 " clip-rule="nonzero"/></clipPath><clipPath id="4c90abe3e5"><path d="M 12 35 L 28 35 L 28 48.851562 L 12 48.851562 Z M 12 35 " clip-rule="nonzero"/></clipPath><clipPath id="4cb608ba05"><path d="M 1.355469 16.308594 L 16.390625 16.308594 L 16.390625 29.535156 L 1.355469 29.535156 Z M 1.355469 16.308594 " clip-rule="nonzero"/></clipPath><clipPath id="b3751c73a0"><path d="M 34 10 L 39.722656 10 L 39.722656 23 L 34 23 Z M 34 10 " clip-rule="nonzero"/></clipPath><clipPath id="642314355d"><path d="M 34 22 L 39.722656 22 L 39.722656 36 L 34 36 Z M 34 22 " clip-rule="nonzero"/></clipPath><clipPath id="1a8ba7eb9f"><path d="M 37 22 L 39.722656 22 L 39.722656 24 L 37 24 Z M 37 22 " clip-rule="nonzero"/></clipPath><clipPath id="5f1d24b048"><rect x="0" width="40" y="0" height="53"/></clipPath><clipPath id="d855759931"><path d="M 17 3 L 89 3 L 89 52.003906 L 17 52.003906 Z M 17 3 " clip-rule="nonzero"/></clipPath><mask id="a5d05cad61"><g filter="url(#43c7580dc7)"><rect x="-11.25" width="135" fill="#000000" y="-5.25" height="62.999998" fill-opacity="0.4588"/></g></mask><clipPath id="61a39a27bf"><path d="M 12.433594 0.632812 L 27.5625 0.632812 L 27.5625 13.664062 L 12.433594 13.664062 Z M 12.433594 0.632812 " clip-rule="nonzero"/></clipPath><clipPath id="5da4c5e5ed"><path d="M 45 32 L 61 32 L 61 45.40625 L 45 45.40625 Z M 45 32 " clip-rule="nonzero"/></clipPath><clipPath id="990166b697"><path d="M 23 32 L 39 32 L 39 45.40625 L 23 45.40625 Z M 23 32 " clip-rule="nonzero"/></clipPath><clipPath id="f3fd5c75a5"><path d="M 12 38 L 28 38 L 28 45.40625 L 12 45.40625 Z M 12 38 " clip-rule="nonzero"/></clipPath><clipPath id="bb4d8896c3"><path d="M 23 38 L 28 38 L 28 45.40625 L 23 45.40625 Z M 23 38 " clip-rule="nonzero"/></clipPath><clipPath id="92b4dfbdcb"><path d="M 1.691406 19.367188 L 16.722656 19.367188 L 16.722656 32.589844 L 1.691406 32.589844 Z M 1.691406 19.367188 " clip-rule="nonzero"/></clipPath><clipPath id="fdb2b82472"><path d="M 45 45 L 61 45 L 61 45.40625 L 45 45.40625 Z M 45 45 " clip-rule="nonzero"/></clipPath><clipPath id="97c669f32b"><path d="M 48 44 L 57 44 L 57 45.40625 L 48 45.40625 Z M 48 44 " clip-rule="nonzero"/></clipPath><clipPath id="8e22349d99"><rect x="0" width="72" y="0" height="50"/></clipPath><clipPath id="a53b33fdaf"><path d="M 0.28125 0 L 34 0 L 34 52.003906 L 0.28125 52.003906 Z M 0.28125 0 " clip-rule="nonzero"/></clipPath><mask id="b74c0dcca5"><g filter="url(#43c7580dc7)"><rect x="-11.25" width="135" fill="#000000" y="-5.25" height="62.999998" fill-opacity="0.6196"/></g></mask><clipPath id="21dbf2d72e"><path d="M 0.539062 3.476562 L 1 3.476562 L 1 17 L 0.539062 17 Z M 0.539062 3.476562 " clip-rule="nonzero"/></clipPath><clipPath id="5ffaf9a3da"><path d="M 0.539062 16 L 1 16 L 1 30 L 0.539062 30 Z M 0.539062 16 " clip-rule="nonzero"/></clipPath><clipPath id="38a3807589"><path d="M 0.539062 28 L 1 28 L 1 42 L 0.539062 42 Z M 0.539062 28 " clip-rule="nonzero"/></clipPath><clipPath id="93ffaf0a93"><path d="M 7 41 L 23 41 L 23 42.277344 L 7 42.277344 Z M 7 41 " clip-rule="nonzero"/></clipPath><clipPath id="7c1f393d3a"><path d="M 0.539062 9 L 12 9 L 12 23 L 0.539062 23 Z M 0.539062 9 " clip-rule="nonzero"/></clipPath><clipPath id="c67c2be62f"><path d="M 0.539062 9 L 1 9 L 1 17 L 0.539062 17 Z M 0.539062 9 " clip-rule="nonzero"/></clipPath><clipPath id="c25aef4fb6"><path d="M 0.539062 16 L 1 16 L 1 23 L 0.539062 23 Z M 0.539062 16 " clip-rule="nonzero"/></clipPath><clipPath id="8cd1f61b67"><path d="M 7 3.476562 L 23 3.476562 L 23 17 L 7 17 Z M 7 3.476562 " clip-rule="nonzero"/></clipPath><clipPath id="c14f22db06"><path d="M 18 22 L 33.375 22 L 33.375 36 L 18 36 Z M 18 22 " clip-rule="nonzero"/></clipPath><clipPath id="4401ee61ba"><path d="M 0.539062 22 L 12 22 L 12 36 L 0.539062 36 Z M 0.539062 22 " clip-rule="nonzero"/></clipPath><clipPath id="5119d0b361"><path d="M 0.539062 22 L 1 22 L 1 30 L 0.539062 30 Z M 0.539062 22 " clip-rule="nonzero"/></clipPath><clipPath id="566ebd4f3d"><path d="M 0.539062 28 L 1 28 L 1 36 L 0.539062 36 Z M 0.539062 28 " clip-rule="nonzero"/></clipPath><clipPath id="72bf6c40ef"><path d="M 0.539062 22 L 8 22 L 8 23 L 0.539062 23 Z M 0.539062 22 " clip-rule="nonzero"/></clipPath><clipPath id="9f881d8493"><path d="M 0.539062 22 L 1 22 L 1 23 L 0.539062 23 Z M 0.539062 22 " clip-rule="nonzero"/></clipPath><clipPath id="9e489b7901"><rect x="0" width="34" y="0" height="53"/></clipPath></defs><g clip-path="url(#af16b0876e)"><g mask="url(#936a4c30e2)"><g transform="matrix(1, 0, 0, 1, 72, 0)"><g clip-path="url(#5f1d24b048)"><path fill="#e2e2e2" d="M 34.019531 4.070312 L 26.957031 4.070312 L 23.425781 10.246094 L 26.957031 16.421875 L 34.019531 16.421875 L 37.550781 10.246094 L 34.019531 4.070312 M 26.761719 3.730469 L 34.214844 3.730469 L 37.945312 10.246094 L 34.214844 16.765625 L 26.761719 16.765625 L 23.035156 10.246094 L 26.761719 3.730469 " fill-opacity="1" fill-rule="nonzero"/><g clip-path="url(#1ac4eaff38)"><path fill="#f6f6f6" d="M 15.921875 -2.617188 L 23.378906 -2.617188 L 27.007812 3.730469 L 26.761719 3.730469 L 26.6875 3.859375 L 23.179688 -2.273438 L 16.121094 -2.273438 L 12.585938 3.898438 L 16.121094 10.074219 L 23.132812 10.074219 L 23.035156 10.246094 L 23.132812 10.417969 L 15.921875 10.417969 L 12.195312 3.898438 L 15.921875 -2.617188 M 26.957031 4.070312 L 27.007812 4.070312 L 23.449219 10.289062 L 23.425781 10.246094 L 26.957031 4.070312 " fill-opacity="1" fill-rule="nonzero"/></g><path fill="#e2e2e2" d="M 26.761719 3.730469 L 27.007812 3.730469 L 27.105469 3.898438 L 27.007812 4.070312 L 26.957031 4.070312 L 23.425781 10.246094 L 23.449219 10.289062 L 23.378906 10.417969 L 23.132812 10.417969 L 23.035156 10.246094 L 23.132812 10.074219 L 23.179688 10.074219 L 26.714844 3.898438 L 26.6875 3.859375 L 26.761719 3.730469 " fill-opacity="1" fill-rule="nonzero"/><path fill="#ebebeb" d="M 26.664062 16.59375 L 26.761719 16.765625 L 26.957031 16.765625 L 23.449219 22.898438 L 23.378906 22.769531 L 23.132812 22.769531 L 26.664062 16.59375 M 34.019531 16.765625 L 34.058594 16.765625 L 37.589844 22.941406 L 34.058594 29.117188 L 34.019531 29.117188 L 37.550781 22.941406 L 34.019531 16.765625 M 23.132812 23.113281 L 23.179688 23.113281 L 26.6875 29.246094 L 26.664062 29.285156 L 23.132812 23.113281 " fill-opacity="1" fill-rule="nonzero"/><path fill="#e2e2e2" d="M 26.761719 16.421875 L 34.058594 16.421875 L 33.960938 16.59375 L 34.058594 16.765625 L 26.761719 16.765625 L 26.664062 16.59375 L 26.761719 16.421875 " fill-opacity="1" fill-rule="nonzero"/><path fill="#e2e2e2" d="M 34.019531 29.457031 L 26.957031 29.457031 L 23.425781 35.632812 L 26.957031 41.808594 L 34.019531 41.808594 L 37.550781 35.632812 L 34.019531 29.457031 M 26.761719 29.117188 L 34.214844 29.117188 L 37.945312 35.632812 L 34.214844 42.152344 L 26.761719 42.152344 L 23.035156 35.632812 L 26.761719 29.117188 " fill-opacity="1" fill-rule="nonzero"/><path fill="#ebebeb" d="M 16.167969 22.769531 L 23.132812 22.769531 L 23.035156 22.941406 L 23.132812 23.113281 L 16.167969 23.113281 L 16.265625 22.941406 L 16.167969 22.769531 M 15.851562 22.898438 L 15.875 22.941406 L 12.34375 29.117188 L 12.292969 29.117188 L 15.851562 22.898438 M 23.449219 22.898438 L 27.007812 29.117188 L 26.957031 29.117188 L 23.425781 22.941406 L 23.449219 22.898438 M 12.613281 29.328125 L 16.121094 35.460938 L 15.921875 35.460938 L 15.824219 35.632812 L 12.292969 29.457031 L 12.539062 29.457031 L 12.613281 29.328125 " fill-opacity="1" fill-rule="nonzero"/><path fill="#e5e5e5" d="M 23.132812 22.769531 L 23.378906 22.769531 L 23.449219 22.898438 L 23.425781 22.941406 L 26.957031 29.117188 L 26.761719 29.117188 L 26.6875 29.246094 L 23.179688 23.113281 L 23.132812 23.113281 L 23.035156 22.941406 L 23.132812 22.769531 " fill-opacity="1" fill-rule="nonzero"/><path fill="#ebebeb" d="M 26.957031 29.457031 L 27.007812 29.457031 L 23.476562 35.632812 L 23.449219 35.589844 L 26.957031 29.457031 " fill-opacity="1" fill-rule="nonzero"/><path fill="#e2e2e2" d="M 26.761719 29.117188 L 27.007812 29.117188 L 27.105469 29.285156 L 27.007812 29.457031 L 26.957031 29.457031 L 23.449219 35.589844 L 23.378906 35.460938 L 23.179688 35.460938 L 26.714844 29.285156 L 26.6875 29.246094 L 26.761719 29.117188 " fill-opacity="1" fill-rule="nonzero"/><g clip-path="url(#4c90abe3e5)"><path fill="#f6f6f6" d="M 15.824219 35.632812 L 15.921875 35.804688 L 16.121094 35.804688 L 12.585938 41.980469 L 16.121094 48.15625 L 23.179688 48.15625 L 26.6875 42.023438 L 26.761719 42.152344 L 27.007812 42.152344 L 23.378906 48.496094 L 15.921875 48.496094 L 12.195312 41.980469 L 15.824219 35.632812 M 23.476562 35.632812 L 27.007812 41.808594 L 26.957031 41.808594 L 23.449219 35.675781 L 23.476562 35.632812 " fill-opacity="1" fill-rule="nonzero"/></g><path fill="#e2e2e2" d="M 23.449219 35.675781 L 26.957031 41.808594 L 27.007812 41.808594 L 27.105469 41.980469 L 27.007812 42.152344 L 26.761719 42.152344 L 26.6875 42.023438 L 26.714844 41.980469 L 23.179688 35.804688 L 23.378906 35.804688 L 23.449219 35.675781 " fill-opacity="1" fill-rule="nonzero"/><path fill="#e8e8e8" d="M 15.921875 35.460938 L 23.132812 35.460938 L 23.035156 35.632812 L 23.132812 35.804688 L 15.921875 35.804688 L 15.824219 35.632812 L 15.921875 35.460938 M 23.449219 35.589844 L 23.476562 35.632812 L 23.449219 35.675781 L 23.425781 35.632812 L 23.449219 35.589844 " fill-opacity="1" fill-rule="nonzero"/><path fill="#e2e2e2" d="M 23.132812 35.460938 L 23.378906 35.460938 L 23.449219 35.589844 L 23.425781 35.632812 L 23.449219 35.675781 L 23.378906 35.804688 L 23.132812 35.804688 L 23.035156 35.632812 L 23.132812 35.460938 " fill-opacity="1" fill-rule="nonzero"/><g clip-path="url(#4cb608ba05)"><path fill="#fcfcfc" d="M 5.082031 16.421875 L 12.539062 16.421875 L 16.167969 22.769531 L 15.921875 22.769531 L 15.851562 22.898438 L 12.34375 16.765625 L 5.28125 16.765625 L 1.75 22.941406 L 5.28125 29.117188 L 12.292969 29.117188 L 12.195312 29.285156 L 12.292969 29.457031 L 5.082031 29.457031 L 1.355469 22.941406 L 5.082031 16.421875 M 16.121094 23.113281 L 16.167969 23.113281 L 12.613281 29.328125 L 12.585938 29.285156 L 16.121094 23.113281 " fill-opacity="1" fill-rule="nonzero"/></g><path fill="#eaeaea" d="M 15.921875 22.769531 L 16.167969 22.769531 L 16.265625 22.941406 L 16.167969 23.113281 L 16.121094 23.113281 L 12.585938 29.285156 L 12.613281 29.328125 L 12.539062 29.457031 L 12.292969 29.457031 L 12.195312 29.285156 L 12.292969 29.117188 L 12.34375 29.117188 L 15.875 22.941406 L 15.851562 22.898438 L 15.921875 22.769531 " fill-opacity="1" fill-rule="nonzero"/><g clip-path="url(#b3751c73a0)"><path fill="#f1f1f1" d="M 37.847656 10.074219 L 45.140625 10.074219 L 45.214844 10.203125 L 45.019531 10.546875 L 44.945312 10.417969 L 37.882812 10.417969 L 34.351562 16.59375 L 37.882812 22.769531 L 37.847656 22.769531 L 34.316406 16.59375 L 37.945312 10.246094 L 37.847656 10.074219 M 45.410156 10.546875 L 48.867188 16.59375 L 48.839844 16.640625 L 45.382812 10.59375 L 45.410156 10.546875 " fill-opacity="1" fill-rule="nonzero"/></g><path fill="#e2e2e2" d="M 37.6875 10.074219 L 37.847656 10.074219 L 37.945312 10.246094 L 34.316406 16.59375 L 34.214844 16.421875 L 34.058594 16.421875 L 37.6875 10.074219 " fill-opacity="1" fill-rule="nonzero"/><path fill="#e6e6e6" d="M 34.316406 16.59375 L 37.847656 22.769531 L 37.6875 22.769531 L 37.589844 22.941406 L 34.058594 16.765625 L 34.214844 16.765625 L 34.316406 16.59375 " fill-opacity="1" fill-rule="nonzero"/><path fill="#e2e2e2" d="M 34.058594 16.421875 L 34.214844 16.421875 L 34.316406 16.59375 L 34.214844 16.765625 L 34.058594 16.765625 L 33.960938 16.59375 L 34.058594 16.421875 " fill-opacity="1" fill-rule="nonzero"/><g clip-path="url(#642314355d)"><path fill="#e9e9e9" d="M 45.238281 22.941406 L 48.769531 29.117188 L 48.511719 29.117188 L 48.445312 29.234375 L 44.945312 23.113281 L 45.140625 23.113281 L 45.238281 22.941406 M 37.847656 23.113281 L 37.882812 23.113281 L 34.351562 29.285156 L 37.882812 35.460938 L 44.882812 35.460938 L 44.785156 35.632812 L 44.882812 35.804688 L 37.847656 35.804688 L 37.945312 35.632812 L 34.316406 29.285156 L 37.847656 23.113281 M 48.707031 29.457031 L 48.769531 29.457031 L 45.207031 35.6875 L 45.175781 35.632812 L 48.707031 29.457031 " fill-opacity="1" fill-rule="nonzero"/></g><path fill="#e4e4e4" d="M 37.589844 22.941406 L 37.6875 23.113281 L 37.847656 23.113281 L 34.316406 29.285156 L 34.214844 29.117188 L 34.058594 29.117188 L 37.589844 22.941406 " fill-opacity="1" fill-rule="nonzero"/><path fill="#e2e2e2" d="M 34.058594 29.117188 L 34.214844 29.117188 L 34.316406 29.285156 L 37.945312 35.632812 L 37.847656 35.804688 L 37.6875 35.804688 L 33.960938 29.285156 L 34.058594 29.117188 " fill-opacity="1" fill-rule="nonzero"/><g clip-path="url(#1a8ba7eb9f)"><path fill="#e6e6e6" d="M 37.847656 22.769531 L 45.140625 22.769531 L 45.238281 22.941406 L 45.140625 23.113281 L 37.847656 23.113281 L 37.945312 22.941406 L 37.847656 22.769531 " fill-opacity="1" fill-rule="nonzero"/></g><path fill="#e3e3e3" d="M 37.6875 22.769531 L 37.847656 22.769531 L 37.945312 22.941406 L 37.847656 23.113281 L 37.6875 23.113281 L 37.589844 22.941406 L 37.6875 22.769531 " fill-opacity="1" fill-rule="nonzero"/></g></g></g></g><g clip-path="url(#d855759931)"><g mask="url(#a5d05cad61)"><g transform="matrix(1, 0, 0, 1, 17, 3)"><g clip-path="url(#8e22349d99)"><path fill="#e2e2e2" d="M 34.355469 7.128906 L 27.292969 7.128906 L 23.761719 13.304688 L 27.292969 19.476562 L 34.355469 19.476562 L 37.886719 13.304688 L 34.355469 7.128906 M 27.097656 6.785156 L 34.550781 6.785156 L 38.277344 13.304688 L 34.550781 19.820312 L 27.097656 19.820312 L 23.371094 13.304688 L 27.097656 6.785156 " fill-opacity="1" fill-rule="nonzero"/><g clip-path="url(#61a39a27bf)"><path fill="#f6f6f6" d="M 16.257812 0.4375 L 23.710938 0.4375 L 27.339844 6.785156 L 27.097656 6.785156 L 27.023438 6.914062 L 23.515625 0.78125 L 16.453125 0.78125 L 12.921875 6.957031 L 16.453125 13.132812 L 23.46875 13.132812 L 23.371094 13.304688 L 23.46875 13.472656 L 16.257812 13.472656 L 12.53125 6.957031 L 16.257812 0.4375 M 27.292969 7.128906 L 27.339844 7.128906 L 23.785156 13.34375 L 23.761719 13.304688 L 27.292969 7.128906 " fill-opacity="1" fill-rule="nonzero"/></g><path fill="#e2e2e2" d="M 27.097656 6.785156 L 27.339844 6.785156 L 27.4375 6.957031 L 27.339844 7.128906 L 27.292969 7.128906 L 23.761719 13.304688 L 23.785156 13.34375 L 23.710938 13.472656 L 23.46875 13.472656 L 23.371094 13.304688 L 23.46875 13.132812 L 23.515625 13.132812 L 27.046875 6.957031 L 27.023438 6.914062 L 27.097656 6.785156 " fill-opacity="1" fill-rule="nonzero"/><path fill="#ebebeb" d="M 27 19.648438 L 27.097656 19.820312 L 27.292969 19.820312 L 23.785156 25.953125 L 23.710938 25.824219 L 23.46875 25.824219 L 27 19.648438 M 34.355469 19.820312 L 34.390625 19.820312 L 37.921875 25.996094 L 34.390625 32.171875 L 34.355469 32.171875 L 37.886719 25.996094 L 34.355469 19.820312 M 23.46875 26.167969 L 23.515625 26.167969 L 27.023438 32.300781 L 27 32.34375 L 23.46875 26.167969 " fill-opacity="1" fill-rule="nonzero"/><path fill="#e2e2e2" d="M 27.097656 19.476562 L 34.390625 19.476562 L 34.292969 19.648438 L 34.390625 19.820312 L 27.097656 19.820312 L 27 19.648438 L 27.097656 19.476562 " fill-opacity="1" fill-rule="nonzero"/><g clip-path="url(#5da4c5e5ed)"><path fill="#f1f1f1" d="M 49.101562 32.171875 L 56.300781 32.171875 L 60.027344 38.691406 L 56.398438 45.035156 L 56.300781 44.863281 L 56.105469 44.863281 L 59.636719 38.691406 L 56.105469 32.515625 L 49.101562 32.515625 L 49.199219 32.34375 L 49.101562 32.171875 M 48.777344 32.289062 L 48.808594 32.34375 L 45.277344 38.519531 L 45.214844 38.519531 L 48.777344 32.289062 M 45.542969 38.742188 L 49.042969 44.863281 L 48.84375 44.863281 L 48.746094 45.035156 L 45.214844 38.859375 L 45.472656 38.859375 L 45.542969 38.742188 " fill-opacity="1" fill-rule="nonzero"/></g><g clip-path="url(#990166b697)"><path fill="#e2e2e2" d="M 34.355469 32.515625 L 27.292969 32.515625 L 23.761719 38.691406 L 27.292969 44.863281 L 34.355469 44.863281 L 37.886719 38.691406 L 34.355469 32.515625 M 27.097656 32.171875 L 34.550781 32.171875 L 38.277344 38.691406 L 34.550781 45.207031 L 27.097656 45.207031 L 23.371094 38.691406 L 27.097656 32.171875 " fill-opacity="1" fill-rule="nonzero"/></g><path fill="#ebebeb" d="M 16.5 25.824219 L 23.46875 25.824219 L 23.371094 25.996094 L 23.46875 26.167969 L 16.5 26.167969 L 16.597656 25.996094 L 16.5 25.824219 M 16.183594 25.953125 L 16.207031 25.996094 L 12.675781 32.171875 L 12.628906 32.171875 L 16.183594 25.953125 M 23.785156 25.953125 L 27.339844 32.171875 L 27.292969 32.171875 L 23.761719 25.996094 L 23.785156 25.953125 M 12.945312 32.382812 L 16.453125 38.519531 L 16.257812 38.519531 L 16.160156 38.691406 L 12.628906 32.515625 L 12.871094 32.515625 L 12.945312 32.382812 " fill-opacity="1" fill-rule="nonzero"/><path fill="#e5e5e5" d="M 23.46875 25.824219 L 23.710938 25.824219 L 23.785156 25.953125 L 23.761719 25.996094 L 27.292969 32.171875 L 27.097656 32.171875 L 27.023438 32.300781 L 23.515625 26.167969 L 23.46875 26.167969 L 23.371094 25.996094 L 23.46875 25.824219 " fill-opacity="1" fill-rule="nonzero"/><path fill="#ebebeb" d="M 27.292969 32.515625 L 27.339844 32.515625 L 23.808594 38.691406 L 23.785156 38.648438 L 27.292969 32.515625 " fill-opacity="1" fill-rule="nonzero"/><path fill="#e2e2e2" d="M 27.097656 32.171875 L 27.339844 32.171875 L 27.4375 32.34375 L 27.339844 32.515625 L 27.292969 32.515625 L 23.785156 38.648438 L 23.710938 38.519531 L 23.515625 38.519531 L 27.046875 32.34375 L 27.023438 32.300781 L 27.097656 32.171875 " fill-opacity="1" fill-rule="nonzero"/><g clip-path="url(#f3fd5c75a5)"><path fill="#f6f6f6" d="M 16.160156 38.691406 L 16.257812 38.859375 L 16.453125 38.859375 L 12.921875 45.035156 L 16.453125 51.210938 L 23.515625 51.210938 L 27.023438 45.078125 L 27.097656 45.207031 L 27.339844 45.207031 L 23.710938 51.554688 L 16.257812 51.554688 L 12.53125 45.035156 L 16.160156 38.691406 M 23.808594 38.691406 L 27.339844 44.863281 L 27.292969 44.863281 L 23.785156 38.730469 L 23.808594 38.691406 " fill-opacity="1" fill-rule="nonzero"/></g><g clip-path="url(#bb4d8896c3)"><path fill="#e2e2e2" d="M 23.785156 38.730469 L 27.292969 44.863281 L 27.339844 44.863281 L 27.4375 45.035156 L 27.339844 45.207031 L 27.097656 45.207031 L 27.023438 45.078125 L 27.046875 45.035156 L 23.515625 38.859375 L 23.710938 38.859375 L 23.785156 38.730469 " fill-opacity="1" fill-rule="nonzero"/></g><path fill="#e8e8e8" d="M 16.257812 38.519531 L 23.46875 38.519531 L 23.371094 38.691406 L 23.46875 38.859375 L 16.257812 38.859375 L 16.160156 38.691406 L 16.257812 38.519531 M 23.785156 38.648438 L 23.808594 38.691406 L 23.785156 38.730469 L 23.761719 38.691406 L 23.785156 38.648438 " fill-opacity="1" fill-rule="nonzero"/><path fill="#e2e2e2" d="M 23.46875 38.519531 L 23.710938 38.519531 L 23.785156 38.648438 L 23.761719 38.691406 L 23.785156 38.730469 L 23.710938 38.859375 L 23.46875 38.859375 L 23.371094 38.691406 L 23.46875 38.519531 " fill-opacity="1" fill-rule="nonzero"/><g clip-path="url(#92b4dfbdcb)"><path fill="#fcfcfc" d="M 5.417969 19.476562 L 12.871094 19.476562 L 16.5 25.824219 L 16.257812 25.824219 L 16.183594 25.953125 L 12.675781 19.820312 L 5.613281 19.820312 L 2.082031 25.996094 L 5.613281 32.171875 L 12.628906 32.171875 L 12.53125 32.34375 L 12.628906 32.515625 L 5.417969 32.515625 L 1.691406 25.996094 L 5.417969 19.476562 M 16.453125 26.167969 L 16.5 26.167969 L 12.945312 32.382812 L 12.921875 32.34375 L 16.453125 26.167969 " fill-opacity="1" fill-rule="nonzero"/></g><path fill="#eaeaea" d="M 16.257812 25.824219 L 16.5 25.824219 L 16.597656 25.996094 L 16.5 26.167969 L 16.453125 26.167969 L 12.921875 32.34375 L 12.945312 32.382812 L 12.871094 32.515625 L 12.628906 32.515625 L 12.53125 32.34375 L 12.628906 32.171875 L 12.675781 32.171875 L 16.207031 25.996094 L 16.183594 25.953125 L 16.257812 25.824219 " fill-opacity="1" fill-rule="nonzero"/><g clip-path="url(#fdb2b82472)"><path fill="#fcfcfc" d="M 48.746094 45.035156 L 48.84375 45.207031 L 49.042969 45.207031 L 45.511719 51.382812 L 49.042969 57.558594 L 56.105469 57.558594 L 59.636719 51.382812 L 56.105469 45.207031 L 56.300781 45.207031 L 56.398438 45.035156 L 60.027344 51.382812 L 56.300781 57.902344 L 48.84375 57.902344 L 45.117188 51.382812 L 48.746094 45.035156 " fill-opacity="1" fill-rule="nonzero"/></g><g clip-path="url(#97c669f32b)"><path fill="#efefef" d="M 48.84375 44.863281 L 56.300781 44.863281 L 56.398438 45.035156 L 56.300781 45.207031 L 48.84375 45.207031 L 48.746094 45.035156 L 48.84375 44.863281 " fill-opacity="1" fill-rule="nonzero"/></g><path fill="#f1f1f1" d="M 38.179688 13.132812 L 45.472656 13.132812 L 45.546875 13.261719 L 45.351562 13.601562 L 45.277344 13.472656 L 38.214844 13.472656 L 34.683594 19.648438 L 38.214844 25.824219 L 38.179688 25.824219 L 34.648438 19.648438 L 38.277344 13.304688 L 38.179688 13.132812 M 45.742188 13.601562 L 49.199219 19.648438 L 49.171875 19.695312 L 45.714844 13.648438 L 45.742188 13.601562 " fill-opacity="1" fill-rule="nonzero"/><path fill="#e2e2e2" d="M 38.019531 13.132812 L 38.179688 13.132812 L 38.277344 13.304688 L 34.648438 19.648438 L 34.550781 19.476562 L 34.390625 19.476562 L 38.019531 13.132812 " fill-opacity="1" fill-rule="nonzero"/><path fill="#e6e6e6" d="M 34.648438 19.648438 L 38.179688 25.824219 L 38.019531 25.824219 L 37.921875 25.996094 L 34.390625 19.820312 L 34.550781 19.820312 L 34.648438 19.648438 " fill-opacity="1" fill-rule="nonzero"/><path fill="#e2e2e2" d="M 34.390625 19.476562 L 34.550781 19.476562 L 34.648438 19.648438 L 34.550781 19.820312 L 34.390625 19.820312 L 34.292969 19.648438 L 34.390625 19.476562 " fill-opacity="1" fill-rule="nonzero"/><path fill="#f1f1f1" d="M 48.78125 19.695312 L 48.976562 20.039062 L 45.570312 25.996094 L 45.472656 25.824219 L 45.277344 25.824219 L 48.78125 19.695312 " fill-opacity="1" fill-rule="nonzero"/><path fill="#f1f1f1" d="M 49.050781 7.132812 L 56.507812 7.132812 L 60.234375 13.648438 L 56.507812 20.167969 L 49.050781 20.167969 L 48.976562 20.039062 L 49.171875 19.695312 L 49.246094 19.824219 L 56.308594 19.824219 L 59.839844 13.648438 L 56.308594 7.472656 L 49.246094 7.472656 L 45.742188 13.601562 L 45.546875 13.261719 L 49.050781 7.132812 M 45.351562 13.601562 L 48.808594 19.648438 L 48.78125 19.695312 L 45.324219 13.648438 L 45.351562 13.601562 " fill-opacity="1" fill-rule="nonzero"/><path fill="#e9e9e9" d="M 45.546875 13.261719 L 45.742188 13.601562 L 45.714844 13.648438 L 49.171875 19.695312 L 48.976562 20.039062 L 48.78125 19.695312 L 48.808594 19.648438 L 45.351562 13.601562 L 45.546875 13.261719 " fill-opacity="1" fill-rule="nonzero"/><path fill="#e2e2e2" d="M 67 26.167969 L 59.9375 26.167969 L 56.40625 32.34375 L 59.9375 38.519531 L 67 38.519531 L 70.53125 32.34375 Z M 59.742188 25.824219 L 67.195312 25.824219 L 70.921875 32.34375 L 67.195312 38.859375 L 59.742188 38.859375 L 56.015625 32.34375 L 59.742188 25.824219 " fill-opacity="1" fill-rule="nonzero"/><path fill="#e9e9e9" d="M 45.570312 25.996094 L 49.101562 32.171875 L 48.84375 32.171875 L 48.777344 32.289062 L 45.277344 26.167969 L 45.472656 26.167969 L 45.570312 25.996094 M 38.179688 26.167969 L 38.214844 26.167969 L 34.683594 32.34375 L 38.214844 38.519531 L 45.214844 38.519531 L 45.117188 38.691406 L 45.214844 38.859375 L 38.179688 38.859375 L 38.277344 38.691406 L 34.648438 32.34375 L 38.179688 26.167969 M 49.042969 32.515625 L 49.101562 32.515625 L 45.542969 38.742188 L 45.511719 38.691406 L 49.042969 32.515625 " fill-opacity="1" fill-rule="nonzero"/><path fill="#e4e4e4" d="M 37.921875 25.996094 L 38.019531 26.167969 L 38.179688 26.167969 L 34.648438 32.34375 L 34.550781 32.171875 L 34.390625 32.171875 L 37.921875 25.996094 " fill-opacity="1" fill-rule="nonzero"/><path fill="#e6e6e6" d="M 48.84375 32.171875 L 49.101562 32.171875 L 49.199219 32.34375 L 49.101562 32.515625 L 49.042969 32.515625 L 45.511719 38.691406 L 45.542969 38.742188 L 45.472656 38.859375 L 45.214844 38.859375 L 45.117188 38.691406 L 45.214844 38.519531 L 45.277344 38.519531 L 48.808594 32.34375 L 48.777344 32.289062 L 48.84375 32.171875 " fill-opacity="1" fill-rule="nonzero"/><path fill="#e2e2e2" d="M 34.390625 32.171875 L 34.550781 32.171875 L 34.648438 32.34375 L 38.277344 38.691406 L 38.179688 38.859375 L 38.019531 38.859375 L 34.292969 32.34375 L 34.390625 32.171875 " fill-opacity="1" fill-rule="nonzero"/><path fill="#e6e6e6" d="M 38.179688 25.824219 L 45.472656 25.824219 L 45.570312 25.996094 L 45.472656 26.167969 L 38.179688 26.167969 L 38.277344 25.996094 L 38.179688 25.824219 " fill-opacity="1" fill-rule="nonzero"/><path fill="#e3e3e3" d="M 38.019531 25.824219 L 38.179688 25.824219 L 38.277344 25.996094 L 38.179688 26.167969 L 38.019531 26.167969 L 37.921875 25.996094 L 38.019531 25.824219 " fill-opacity="1" fill-rule="nonzero"/></g></g></g></g><g clip-path="url(#a53b33fdaf)"><g mask="url(#b74c0dcca5)"><g><g clip-path="url(#9e489b7901)"><g clip-path="url(#21dbf2d72e)"><path fill="#e2e2e2" d="M -3.273438 3.847656 L -10.335938 3.847656 L -13.867188 10.023438 L -10.335938 16.199219 L -3.273438 16.199219 L 0.257812 10.023438 L -3.273438 3.847656 M -10.53125 3.507812 L -3.078125 3.507812 L 0.648438 10.023438 L -3.078125 16.542969 L -10.53125 16.542969 L -14.257812 10.023438 L -10.53125 3.507812 " fill-opacity="1" fill-rule="nonzero"/></g><g clip-path="url(#5ffaf9a3da)"><path fill="#ebebeb" d="M -10.628906 16.371094 L -10.53125 16.542969 L -10.335938 16.542969 L -13.84375 22.675781 L -13.917969 22.546875 L -14.160156 22.546875 L -10.628906 16.371094 M -3.273438 16.542969 L -3.238281 16.542969 L 0.292969 22.71875 L -3.238281 28.894531 L -3.273438 28.894531 L 0.257812 22.71875 L -3.273438 16.542969 M -14.160156 22.890625 L -14.113281 22.890625 L -10.605469 29.023438 L -10.628906 29.0625 L -14.160156 22.890625 " fill-opacity="1" fill-rule="nonzero"/></g><path fill="#f1f1f1" d="M 11.472656 28.894531 L 18.671875 28.894531 L 22.398438 35.410156 L 18.769531 41.757812 L 18.671875 41.585938 L 18.476562 41.585938 L 22.007812 35.410156 L 18.476562 29.234375 L 11.472656 29.234375 L 11.574219 29.0625 L 11.472656 28.894531 M 11.148438 29.007812 L 11.179688 29.0625 L 7.648438 35.238281 L 7.585938 35.238281 L 11.148438 29.007812 M 7.914062 35.464844 L 11.414062 41.585938 L 11.21875 41.585938 L 11.117188 41.757812 L 7.585938 35.582031 L 7.84375 35.582031 L 7.914062 35.464844 " fill-opacity="1" fill-rule="nonzero"/><g clip-path="url(#38a3807589)"><path fill="#e2e2e2" d="M -3.273438 29.234375 L -10.335938 29.234375 L -13.867188 35.410156 L -10.335938 41.585938 L -3.273438 41.585938 L 0.257812 35.410156 L -3.273438 29.234375 M -10.53125 28.894531 L -3.078125 28.894531 L 0.648438 35.410156 L -3.078125 41.929688 L -10.53125 41.929688 L -14.257812 35.410156 L -10.53125 28.894531 " fill-opacity="1" fill-rule="nonzero"/></g><g clip-path="url(#93ffaf0a93)"><path fill="#fcfcfc" d="M 11.117188 41.757812 L 11.21875 41.929688 L 11.414062 41.929688 L 7.882812 48.105469 L 11.414062 54.28125 L 18.476562 54.28125 L 22.007812 48.105469 L 18.476562 41.929688 L 18.671875 41.929688 L 18.769531 41.757812 L 22.398438 48.105469 L 18.671875 54.621094 L 11.21875 54.621094 L 7.488281 48.105469 L 11.117188 41.757812 " fill-opacity="1" fill-rule="nonzero"/></g><path fill="#efefef" d="M 11.21875 41.585938 L 18.671875 41.585938 L 18.769531 41.757812 L 18.671875 41.929688 L 11.21875 41.929688 L 11.117188 41.757812 L 11.21875 41.585938 " fill-opacity="1" fill-rule="nonzero"/><g clip-path="url(#7c1f393d3a)"><path fill="#f1f1f1" d="M 0.550781 9.851562 L 7.84375 9.851562 L 7.917969 9.980469 L 7.722656 10.324219 L 7.648438 10.195312 L 0.585938 10.195312 L -2.945312 16.371094 L 0.585938 22.546875 L 0.550781 22.546875 L -2.980469 16.371094 L 0.648438 10.023438 L 0.550781 9.851562 M 8.113281 10.324219 L 11.574219 16.371094 L 11.546875 16.417969 L 8.089844 10.371094 L 8.113281 10.324219 " fill-opacity="1" fill-rule="nonzero"/></g><g clip-path="url(#c67c2be62f)"><path fill="#e2e2e2" d="M 0.390625 9.851562 L 0.550781 9.851562 L 0.648438 10.023438 L -2.980469 16.371094 L -3.078125 16.199219 L -3.238281 16.199219 L 0.390625 9.851562 " fill-opacity="1" fill-rule="nonzero"/></g><g clip-path="url(#c25aef4fb6)"><path fill="#e6e6e6" d="M -2.980469 16.371094 L 0.550781 22.546875 L 0.390625 22.546875 L 0.292969 22.71875 L -3.238281 16.542969 L -3.078125 16.542969 L -2.980469 16.371094 " fill-opacity="1" fill-rule="nonzero"/></g><path fill="#f1f1f1" d="M 11.152344 16.417969 L 11.347656 16.761719 L 7.945312 22.71875 L 7.84375 22.546875 L 7.648438 22.546875 L 11.152344 16.417969 " fill-opacity="1" fill-rule="nonzero"/><g clip-path="url(#8cd1f61b67)"><path fill="#f1f1f1" d="M 11.421875 3.851562 L 18.878906 3.851562 L 22.605469 10.371094 L 18.878906 16.886719 L 11.421875 16.886719 L 11.347656 16.761719 L 11.546875 16.417969 L 11.621094 16.546875 L 18.679688 16.546875 L 22.214844 10.371094 L 18.679688 4.195312 L 11.621094 4.195312 L 8.113281 10.324219 L 7.917969 9.980469 L 11.421875 3.851562 M 7.722656 10.324219 L 11.179688 16.371094 L 11.152344 16.417969 L 7.695312 10.371094 L 7.722656 10.324219 " fill-opacity="1" fill-rule="nonzero"/></g><path fill="#e9e9e9" d="M 7.917969 9.980469 L 8.113281 10.324219 L 8.089844 10.371094 L 11.546875 16.417969 L 11.347656 16.761719 L 11.152344 16.417969 L 11.179688 16.371094 L 7.722656 10.324219 L 7.917969 9.980469 " fill-opacity="1" fill-rule="nonzero"/><g clip-path="url(#c14f22db06)"><path fill="#e2e2e2" d="M 29.371094 22.890625 L 22.308594 22.890625 L 18.777344 29.0625 L 22.308594 35.238281 L 29.371094 35.238281 L 32.902344 29.0625 Z M 22.113281 22.546875 L 29.566406 22.546875 L 33.292969 29.0625 L 29.566406 35.582031 L 22.113281 35.582031 L 18.386719 29.0625 L 22.113281 22.546875 " fill-opacity="1" fill-rule="nonzero"/></g><g clip-path="url(#4401ee61ba)"><path fill="#e9e9e9" d="M 7.945312 22.71875 L 11.472656 28.894531 L 11.21875 28.894531 L 11.148438 29.007812 L 7.648438 22.890625 L 7.84375 22.890625 L 7.945312 22.71875 M 0.550781 22.890625 L 0.585938 22.890625 L -2.945312 29.0625 L 0.585938 35.238281 L 7.585938 35.238281 L 7.488281 35.410156 L 7.585938 35.582031 L 0.550781 35.582031 L 0.648438 35.410156 L -2.980469 29.0625 L 0.550781 22.890625 M 11.414062 29.234375 L 11.472656 29.234375 L 7.914062 35.464844 L 7.882812 35.410156 L 11.414062 29.234375 " fill-opacity="1" fill-rule="nonzero"/></g><g clip-path="url(#5119d0b361)"><path fill="#e4e4e4" d="M 0.292969 22.71875 L 0.390625 22.890625 L 0.550781 22.890625 L -2.980469 29.0625 L -3.078125 28.894531 L -3.238281 28.894531 L 0.292969 22.71875 " fill-opacity="1" fill-rule="nonzero"/></g><path fill="#e6e6e6" d="M 11.21875 28.894531 L 11.472656 28.894531 L 11.574219 29.0625 L 11.472656 29.234375 L 11.414062 29.234375 L 7.882812 35.410156 L 7.914062 35.464844 L 7.84375 35.582031 L 7.585938 35.582031 L 7.488281 35.410156 L 7.585938 35.238281 L 7.648438 35.238281 L 11.179688 29.0625 L 11.148438 29.007812 L 11.21875 28.894531 " fill-opacity="1" fill-rule="nonzero"/><g clip-path="url(#566ebd4f3d)"><path fill="#e2e2e2" d="M -3.238281 28.894531 L -3.078125 28.894531 L -2.980469 29.0625 L 0.648438 35.410156 L 0.550781 35.582031 L 0.390625 35.582031 L -3.335938 29.0625 L -3.238281 28.894531 " fill-opacity="1" fill-rule="nonzero"/></g><g clip-path="url(#72bf6c40ef)"><path fill="#e6e6e6" d="M 0.550781 22.546875 L 7.84375 22.546875 L 7.945312 22.71875 L 7.84375 22.890625 L 0.550781 22.890625 L 0.648438 22.71875 L 0.550781 22.546875 " fill-opacity="1" fill-rule="nonzero"/></g><g clip-path="url(#9f881d8493)"><path fill="#e3e3e3" d="M 0.390625 22.546875 L 0.550781 22.546875 L 0.648438 22.71875 L 0.550781 22.890625 L 0.390625 22.890625 L 0.292969 22.71875 L 0.390625 22.546875 " fill-opacity="1" fill-rule="nonzero"/></g></g></g></g></g></svg>